<svg width="200" height="176" viewBox="0 0 200 176" fill="none" xmlns="http://www.w3.org/2000/svg">
<g filter="url(#filter0_d_11521_3496)">
<rect y="6" width="200" height="160" fill="black"/>
</g>
<path d="M28.616 28.8C28.7333 28.8 28.8347 28.8427 28.92 28.928C29.0053 29.0133 29.048 29.1147 29.048 29.232V39.568C29.048 39.6853 29.0053 39.7867 28.92 39.872C28.8347 39.9573 28.7333 40 28.616 40H27.96C27.8427 40 27.7413 39.9573 27.656 39.872C27.5707 39.7867 27.528 39.6853 27.528 39.568V30.24H21.896V39.568C21.896 39.6853 21.8533 39.7867 21.768 39.872C21.6827 39.9573 21.5813 40 21.464 40H20.808C20.6907 40 20.5893 39.9573 20.504 39.872C20.4187 39.7867 20.376 39.6853 20.376 39.568V29.232C20.376 29.1147 20.4187 29.0133 20.504 28.928C20.5893 28.8427 20.6907 28.8 20.808 28.8H28.616ZM38.8219 35.088C38.8432 35.3227 38.8539 35.5787 38.8539 35.856C38.8539 36.112 38.8432 36.3573 38.8219 36.592C38.7259 37.68 38.3472 38.5493 37.6859 39.2C37.0352 39.84 36.1499 40.16 35.0299 40.16C33.9099 40.16 33.0192 39.84 32.3579 39.2C31.7072 38.5493 31.3339 37.68 31.2379 36.592C31.2272 36.4747 31.2219 36.2293 31.2219 35.856C31.2219 35.4613 31.2272 35.2053 31.2379 35.088C31.3232 34 31.6965 33.136 32.3579 32.496C33.0192 31.8453 33.9099 31.52 35.0299 31.52C36.1499 31.52 37.0405 31.8453 37.7019 32.496C38.3632 33.136 38.7365 34 38.8219 35.088ZM37.3659 35.168C37.3019 34.4853 37.0725 33.936 36.6779 33.52C36.2939 33.104 35.7445 32.896 35.0299 32.896C34.3152 32.896 33.7605 33.104 33.3659 33.52C32.9819 33.936 32.7579 34.4853 32.6939 35.168C32.6832 35.296 32.6779 35.5253 32.6779 35.856C32.6779 36.176 32.6832 36.3947 32.6939 36.512C32.7579 37.1947 32.9819 37.744 33.3659 38.16C33.7605 38.576 34.3152 38.784 35.0299 38.784C35.7445 38.784 36.2939 38.576 36.6779 38.16C37.0725 37.744 37.3019 37.1947 37.3659 36.512C37.3872 36.2773 37.3979 36.0587 37.3979 35.856C37.3979 35.6533 37.3872 35.424 37.3659 35.168ZM44.2163 38.784C45.2829 38.784 46.0029 38.368 46.3763 37.536C46.4509 37.376 46.5256 37.264 46.6003 37.2C46.6749 37.136 46.7763 37.104 46.9043 37.104H47.3843C47.5016 37.104 47.6029 37.1467 47.6883 37.232C47.7736 37.3067 47.8163 37.3973 47.8163 37.504C47.8163 37.8667 47.6723 38.256 47.3843 38.672C47.0963 39.088 46.6803 39.44 46.1363 39.728C45.5923 40.016 44.9523 40.16 44.2163 40.16C43.4589 40.16 42.8029 40 42.2483 39.68C41.6936 39.36 41.2669 38.9227 40.9683 38.368C40.6696 37.8027 40.5043 37.1733 40.4723 36.48C40.4616 36.352 40.4563 36.1067 40.4563 35.744C40.4563 35.488 40.4616 35.3067 40.4723 35.2C40.5683 34.112 40.9363 33.2267 41.5763 32.544C42.2163 31.8613 43.0963 31.52 44.2163 31.52C44.9523 31.52 45.5869 31.664 46.1203 31.952C46.6643 32.2293 47.0749 32.576 47.3523 32.992C47.6403 33.3973 47.7949 33.7813 47.8163 34.144C47.8269 34.2613 47.7843 34.3627 47.6883 34.448C47.6029 34.5333 47.5016 34.576 47.3843 34.576H46.9043C46.7763 34.576 46.6749 34.544 46.6003 34.48C46.5256 34.416 46.4509 34.304 46.3763 34.144C46.0029 33.312 45.2829 32.896 44.2163 32.896C43.6296 32.896 43.1176 33.0933 42.6803 33.488C42.2429 33.8827 41.9923 34.48 41.9283 35.28C41.9176 35.3973 41.9123 35.5893 41.9123 35.856C41.9123 36.1013 41.9176 36.2827 41.9283 36.4C42.0029 37.2 42.2536 37.7973 42.6803 38.192C43.1176 38.5867 43.6296 38.784 44.2163 38.784ZM56.0703 31.68C56.1876 31.68 56.2889 31.7227 56.3743 31.808C56.4596 31.8933 56.5023 31.9947 56.5023 32.112V32.624C56.5023 32.7413 56.4596 32.8427 56.3743 32.928C56.2889 33.0133 56.1876 33.056 56.0703 33.056H53.3023V39.568C53.3023 39.6853 53.2596 39.7867 53.1743 39.872C53.0889 39.9573 52.9876 40 52.8703 40H52.2783C52.1609 40 52.0596 39.9573 51.9743 39.872C51.8889 39.7867 51.8463 39.6853 51.8463 39.568V33.056H49.0783C48.9609 33.056 48.8596 33.0133 48.7743 32.928C48.6889 32.8427 48.6463 32.7413 48.6463 32.624V32.112C48.6463 31.9947 48.6889 31.8933 48.7743 31.808C48.8596 31.7227 48.9609 31.68 49.0783 31.68H56.0703ZM62.894 34.736V34.528C62.894 34.0053 62.718 33.6053 62.366 33.328C62.0247 33.04 61.5767 32.896 61.022 32.896C60.5953 32.896 60.2593 32.9707 60.014 33.12C59.7793 33.2587 59.5553 33.472 59.342 33.76C59.278 33.8453 59.2087 33.904 59.134 33.936C59.0593 33.968 58.958 33.984 58.83 33.984H58.35C58.2327 33.984 58.126 33.9413 58.03 33.856C57.9447 33.7707 57.9073 33.6693 57.918 33.552C57.95 33.232 58.1047 32.9173 58.382 32.608C58.67 32.288 59.0487 32.0267 59.518 31.824C59.9873 31.6213 60.4887 31.52 61.022 31.52C62.014 31.52 62.814 31.7973 63.422 32.352C64.0407 32.9067 64.35 33.6853 64.35 34.688V39.568C64.35 39.6853 64.3073 39.7867 64.222 39.872C64.1367 39.9573 64.0353 40 63.918 40H63.326C63.2087 40 63.1073 39.9573 63.022 39.872C62.9367 39.7867 62.894 39.6853 62.894 39.568V38.912C62.7233 39.296 62.3607 39.6 61.806 39.824C61.2513 40.048 60.6967 40.16 60.142 40.16C59.598 40.16 59.1127 40.064 58.686 39.872C58.2593 39.6693 57.9287 39.3973 57.694 39.056C57.47 38.7147 57.358 38.3307 57.358 37.904C57.358 37.104 57.6567 36.48 58.254 36.032C58.8513 35.5733 59.646 35.264 60.638 35.104L62.894 34.736ZM62.894 36.016L61.006 36.32C60.3127 36.4267 59.774 36.6027 59.39 36.848C59.006 37.0827 58.814 37.3813 58.814 37.744C58.814 38.0107 58.9367 38.2507 59.182 38.464C59.4273 38.6773 59.8007 38.784 60.302 38.784C61.07 38.784 61.694 38.5653 62.174 38.128C62.654 37.6907 62.894 37.12 62.894 36.416V36.016ZM68.1404 42.608C68.1404 42.7253 68.0977 42.8267 68.0124 42.912C67.927 42.9973 67.8257 43.04 67.7084 43.04H67.1164C66.999 43.04 66.8977 42.9973 66.8124 42.912C66.727 42.8267 66.6844 42.7253 66.6844 42.608V32.112C66.6844 31.9947 66.727 31.8933 66.8124 31.808C66.8977 31.7227 66.999 31.68 67.1164 31.68H67.7084C67.8257 31.68 67.927 31.7227 68.0124 31.808C68.0977 31.8933 68.1404 31.9947 68.1404 32.112V32.608C68.6844 31.8827 69.511 31.52 70.6204 31.52C71.2817 31.52 71.879 31.6747 72.4124 31.984C72.9564 32.2933 73.3884 32.736 73.7084 33.312C74.039 33.888 74.2204 34.56 74.2524 35.328C74.263 35.4347 74.2684 35.6053 74.2684 35.84C74.2684 36.0853 74.263 36.2613 74.2524 36.368C74.2204 37.136 74.039 37.808 73.7084 38.384C73.3884 38.9493 72.9617 39.3867 72.4284 39.696C71.895 40.0053 71.2924 40.16 70.6204 40.16C70.023 40.16 69.5164 40.0587 69.1004 39.856C68.695 39.6427 68.375 39.3813 68.1404 39.072V42.608ZM68.1404 36.416C68.1724 37.1627 68.3964 37.744 68.8124 38.16C69.2284 38.576 69.7777 38.784 70.4604 38.784C71.1537 38.784 71.703 38.56 72.1084 38.112C72.5244 37.664 72.7537 37.056 72.7964 36.288C72.807 36.1813 72.8124 36.032 72.8124 35.84C72.8124 35.648 72.807 35.4987 72.7964 35.392C72.7537 34.624 72.5244 34.016 72.1084 33.568C71.703 33.12 71.1537 32.896 70.4604 32.896C69.799 32.896 69.255 33.104 68.8284 33.52C68.4017 33.9253 68.1724 34.4693 68.1404 35.152L68.1244 35.776L68.1404 36.416ZM81.1909 34.736V34.528C81.1909 34.0053 81.0149 33.6053 80.6629 33.328C80.3215 33.04 79.8735 32.896 79.3189 32.896C78.8922 32.896 78.5562 32.9707 78.3109 33.12C78.0762 33.2587 77.8522 33.472 77.6389 33.76C77.5749 33.8453 77.5055 33.904 77.4309 33.936C77.3562 33.968 77.2549 33.984 77.1269 33.984H76.6469C76.5295 33.984 76.4229 33.9413 76.3269 33.856C76.2415 33.7707 76.2042 33.6693 76.2149 33.552C76.2469 33.232 76.4015 32.9173 76.6789 32.608C76.9669 32.288 77.3455 32.0267 77.8149 31.824C78.2842 31.6213 78.7855 31.52 79.3189 31.52C80.3109 31.52 81.1109 31.7973 81.7189 32.352C82.3375 32.9067 82.6469 33.6853 82.6469 34.688V39.568C82.6469 39.6853 82.6042 39.7867 82.5189 39.872C82.4335 39.9573 82.3322 40 82.2149 40H81.6229C81.5055 40 81.4042 39.9573 81.3189 39.872C81.2335 39.7867 81.1909 39.6853 81.1909 39.568V38.912C81.0202 39.296 80.6575 39.6 80.1029 39.824C79.5482 40.048 78.9935 40.16 78.4389 40.16C77.8949 40.16 77.4095 40.064 76.9829 39.872C76.5562 39.6693 76.2255 39.3973 75.9909 39.056C75.7669 38.7147 75.6549 38.3307 75.6549 37.904C75.6549 37.104 75.9535 36.48 76.5509 36.032C77.1482 35.5733 77.9429 35.264 78.9349 35.104L81.1909 34.736ZM81.1909 36.016L79.3029 36.32C78.6095 36.4267 78.0709 36.6027 77.6869 36.848C77.3029 37.0827 77.1109 37.3813 77.1109 37.744C77.1109 38.0107 77.2335 38.2507 77.4789 38.464C77.7242 38.6773 78.0975 38.784 78.5989 38.784C79.3669 38.784 79.9909 38.5653 80.4709 38.128C80.9509 37.6907 81.1909 37.12 81.1909 36.416V36.016ZM88.2613 31.52C89.4026 31.52 90.3039 31.8827 90.9653 32.608C91.6266 33.3333 91.9573 34.32 91.9573 35.568V36C91.9573 36.1173 91.9146 36.2187 91.8293 36.304C91.7439 36.3893 91.6426 36.432 91.5253 36.432H86.0213V36.528C86.0426 37.232 86.2559 37.7867 86.6613 38.192C87.0773 38.5867 87.6106 38.784 88.2613 38.784C88.7946 38.784 89.2053 38.7147 89.4933 38.576C89.7919 38.4373 90.0586 38.24 90.2933 37.984C90.3786 37.8987 90.4533 37.84 90.5173 37.808C90.5919 37.776 90.6879 37.76 90.8053 37.76H91.2853C91.4133 37.76 91.5199 37.8027 91.6053 37.888C91.6906 37.9733 91.7279 38.0747 91.7173 38.192C91.6746 38.48 91.5146 38.7787 91.2373 39.088C90.9706 39.3867 90.5813 39.6427 90.0693 39.856C89.5679 40.0587 88.9653 40.16 88.2613 40.16C87.5786 40.16 86.9706 40.0053 86.4373 39.696C85.9039 39.376 85.4773 38.9387 85.1573 38.384C84.8479 37.8293 84.6613 37.2053 84.5973 36.512C84.5759 36.192 84.5653 35.9467 84.5653 35.776C84.5653 35.6053 84.5759 35.36 84.5973 35.04C84.6613 34.3787 84.8479 33.7813 85.1573 33.248C85.4773 32.7147 85.8986 32.2933 86.4213 31.984C86.9546 31.6747 87.5679 31.52 88.2613 31.52ZM90.5173 35.088V35.04C90.5173 34.3893 90.3093 33.872 89.8933 33.488C89.4879 33.0933 88.9439 32.896 88.2613 32.896C87.6426 32.896 87.1146 33.0933 86.6773 33.488C86.2506 33.8827 86.0319 34.4 86.0213 35.04V35.088H90.5173ZM100.528 32C100.57 31.9147 100.64 31.84 100.736 31.776C100.832 31.712 100.96 31.68 101.12 31.68H101.648C101.765 31.68 101.866 31.7227 101.952 31.808C102.037 31.8933 102.08 31.9947 102.08 32.112V39.568C102.08 39.6853 102.037 39.7867 101.952 39.872C101.866 39.9573 101.765 40 101.648 40H101.056C100.938 40 100.837 39.9573 100.752 39.872C100.666 39.7867 100.624 39.6853 100.624 39.568V34.752L98.7355 38.24C98.6075 38.5067 98.4208 38.64 98.1755 38.64H97.7915C97.5568 38.64 97.3702 38.5067 97.2315 38.24L95.3435 34.752V39.568C95.3435 39.6853 95.3008 39.7867 95.2155 39.872C95.1302 39.9573 95.0288 40 94.9115 40H94.3195C94.2022 40 94.1008 39.9573 94.0155 39.872C93.9302 39.7867 93.8875 39.6853 93.8875 39.568V32.112C93.8875 31.9947 93.9302 31.8933 94.0155 31.808C94.1008 31.7227 94.2022 31.68 94.3195 31.68H94.8475C95.0075 31.68 95.1355 31.712 95.2315 31.776C95.3275 31.84 95.3968 31.9147 95.4395 32L97.9835 36.8L100.528 32ZM107.841 38.784C108.908 38.784 109.628 38.368 110.001 37.536C110.076 37.376 110.151 37.264 110.225 37.2C110.3 37.136 110.401 37.104 110.529 37.104H111.009C111.127 37.104 111.228 37.1467 111.313 37.232C111.399 37.3067 111.441 37.3973 111.441 37.504C111.441 37.8667 111.297 38.256 111.009 38.672C110.721 39.088 110.305 39.44 109.761 39.728C109.217 40.016 108.577 40.16 107.841 40.16C107.084 40.16 106.428 40 105.873 39.68C105.319 39.36 104.892 38.9227 104.593 38.368C104.295 37.8027 104.129 37.1733 104.097 36.48C104.087 36.352 104.081 36.1067 104.081 35.744C104.081 35.488 104.087 35.3067 104.097 35.2C104.193 34.112 104.561 33.2267 105.201 32.544C105.841 31.8613 106.721 31.52 107.841 31.52C108.577 31.52 109.212 31.664 109.745 31.952C110.289 32.2293 110.7 32.576 110.977 32.992C111.265 33.3973 111.42 33.7813 111.441 34.144C111.452 34.2613 111.409 34.3627 111.313 34.448C111.228 34.5333 111.127 34.576 111.009 34.576H110.529C110.401 34.576 110.3 34.544 110.225 34.48C110.151 34.416 110.076 34.304 110.001 34.144C109.628 33.312 108.908 32.896 107.841 32.896C107.255 32.896 106.743 33.0933 106.305 33.488C105.868 33.8827 105.617 34.48 105.553 35.28C105.543 35.3973 105.537 35.5893 105.537 35.856C105.537 36.1013 105.543 36.2827 105.553 36.4C105.628 37.2 105.879 37.7973 106.305 38.192C106.743 38.5867 107.255 38.784 107.841 38.784ZM119.452 31.68C119.57 31.68 119.671 31.7227 119.756 31.808C119.842 31.8933 119.884 31.9947 119.884 32.112V39.568C119.884 39.6853 119.842 39.7867 119.756 39.872C119.671 39.9573 119.57 40 119.452 40H118.86C118.743 40 118.642 39.9573 118.556 39.872C118.471 39.7867 118.428 39.6853 118.428 39.568V37.296H116.46L114.556 39.696C114.482 39.7813 114.407 39.856 114.332 39.92C114.258 39.9733 114.162 40 114.044 40H113.276C113.17 40 113.079 39.9627 113.004 39.888C112.93 39.8133 112.892 39.728 112.892 39.632C112.892 39.5467 112.914 39.472 112.956 39.408L114.812 37.088C113.639 36.704 113.052 35.84 113.052 34.496C113.052 33.568 113.335 32.8693 113.9 32.4C114.466 31.92 115.271 31.68 116.316 31.68H119.452ZM118.428 35.92V33.056H116.316C115.719 33.056 115.266 33.168 114.956 33.392C114.647 33.6053 114.492 33.9733 114.492 34.496C114.492 35.0187 114.642 35.3867 114.94 35.6C115.25 35.8133 115.708 35.92 116.316 35.92H118.428ZM133.176 31.68C133.294 31.68 133.395 31.7227 133.48 31.808C133.566 31.8933 133.608 31.9947 133.608 32.112V39.568C133.608 39.6853 133.566 39.7867 133.48 39.872C133.395 39.9573 133.294 40 133.176 40H132.584C132.467 40 132.366 39.9573 132.28 39.872C132.195 39.7867 132.152 39.6853 132.152 39.568V36.448H127.64V39.568C127.64 39.6853 127.598 39.7867 127.512 39.872C127.427 39.9573 127.326 40 127.208 40H126.616C126.499 40 126.398 39.9627 126.312 39.888C126.227 39.8027 126.184 39.696 126.184 39.568V32.112C126.184 31.9947 126.227 31.8933 126.312 31.808C126.398 31.7227 126.499 31.68 126.616 31.68H127.208C127.326 31.68 127.427 31.7227 127.512 31.808C127.598 31.8933 127.64 31.9947 127.64 32.112V35.072H132.152V32.112C132.152 31.9947 132.195 31.8933 132.28 31.808C132.366 31.7227 132.467 31.68 132.584 31.68H133.176ZM140.957 34.736V34.528C140.957 34.0053 140.781 33.6053 140.429 33.328C140.087 33.04 139.639 32.896 139.085 32.896C138.658 32.896 138.322 32.9707 138.077 33.12C137.842 33.2587 137.618 33.472 137.405 33.76C137.341 33.8453 137.271 33.904 137.197 33.936C137.122 33.968 137.021 33.984 136.893 33.984H136.413C136.295 33.984 136.189 33.9413 136.093 33.856C136.007 33.7707 135.97 33.6693 135.981 33.552C136.013 33.232 136.167 32.9173 136.445 32.608C136.733 32.288 137.111 32.0267 137.581 31.824C138.05 31.6213 138.551 31.52 139.085 31.52C140.077 31.52 140.877 31.7973 141.485 32.352C142.103 32.9067 142.413 33.6853 142.413 34.688V39.568C142.413 39.6853 142.37 39.7867 142.285 39.872C142.199 39.9573 142.098 40 141.981 40H141.389C141.271 40 141.17 39.9573 141.085 39.872C140.999 39.7867 140.957 39.6853 140.957 39.568V38.912C140.786 39.296 140.423 39.6 139.869 39.824C139.314 40.048 138.759 40.16 138.205 40.16C137.661 40.16 137.175 40.064 136.749 39.872C136.322 39.6693 135.991 39.3973 135.757 39.056C135.533 38.7147 135.421 38.3307 135.421 37.904C135.421 37.104 135.719 36.48 136.317 36.032C136.914 35.5733 137.709 35.264 138.701 35.104L140.957 34.736ZM140.957 36.016L139.069 36.32C138.375 36.4267 137.837 36.6027 137.453 36.848C137.069 37.0827 136.877 37.3813 136.877 37.744C136.877 38.0107 136.999 38.2507 137.245 38.464C137.49 38.6773 137.863 38.784 138.365 38.784C139.133 38.784 139.757 38.5653 140.237 38.128C140.717 37.6907 140.957 37.12 140.957 36.416V36.016ZM151.147 40C151.03 40 150.928 39.9573 150.843 39.872C150.758 39.7867 150.715 39.6853 150.715 39.568V34.208L146.059 39.824C145.974 39.9413 145.856 40 145.707 40H145.163C145.046 40 144.944 39.9573 144.859 39.872C144.784 39.7867 144.747 39.6853 144.747 39.568V32.112C144.747 31.9947 144.79 31.8933 144.875 31.808C144.96 31.7227 145.062 31.68 145.179 31.68H145.771C145.888 31.68 145.99 31.7227 146.075 31.808C146.16 31.8933 146.203 31.9947 146.203 32.112V37.52L150.859 31.856C150.912 31.792 150.96 31.7493 151.003 31.728C151.056 31.696 151.126 31.68 151.211 31.68H151.739C151.856 31.68 151.958 31.7227 152.043 31.808C152.128 31.8933 152.171 31.9947 152.171 32.112V39.568C152.171 39.6853 152.128 39.7867 152.043 39.872C151.958 39.9573 151.856 40 151.739 40H151.147ZM146.475 28.544C146.475 28.4587 146.502 28.3893 146.555 28.336C146.608 28.272 146.683 28.24 146.779 28.24H147.291C147.387 28.24 147.462 28.272 147.515 28.336C147.568 28.3893 147.595 28.4587 147.595 28.544C147.595 28.8213 147.67 29.0507 147.819 29.232C147.979 29.4133 148.192 29.504 148.459 29.504C148.726 29.504 148.934 29.4133 149.083 29.232C149.243 29.0507 149.323 28.8213 149.323 28.544C149.323 28.4587 149.35 28.3893 149.403 28.336C149.456 28.272 149.531 28.24 149.627 28.24H150.139C150.235 28.24 150.31 28.272 150.363 28.336C150.416 28.3893 150.443 28.4587 150.443 28.544C150.443 29.0773 150.272 29.5467 149.931 29.952C149.59 30.3573 149.099 30.56 148.459 30.56C147.819 30.56 147.328 30.3573 146.987 29.952C146.646 29.5467 146.475 29.0773 146.475 28.544ZM161.039 31.68C161.156 31.68 161.258 31.7227 161.343 31.808C161.428 31.8933 161.471 31.9947 161.471 32.112V32.624C161.471 32.7413 161.428 32.8427 161.343 32.928C161.258 33.0133 161.156 33.056 161.039 33.056H158.271V39.568C158.271 39.6853 158.228 39.7867 158.143 39.872C158.058 39.9573 157.956 40 157.839 40H157.247C157.13 40 157.028 39.9573 156.943 39.872C156.858 39.7867 156.815 39.6853 156.815 39.568V33.056H154.047C153.93 33.056 153.828 33.0133 153.743 32.928C153.658 32.8427 153.615 32.7413 153.615 32.624V32.112C153.615 31.9947 153.658 31.8933 153.743 31.808C153.828 31.7227 153.93 31.68 154.047 31.68H161.039ZM169.319 40C169.201 40 169.1 39.9573 169.015 39.872C168.929 39.7867 168.887 39.6853 168.887 39.568V34.208L164.231 39.824C164.145 39.9413 164.028 40 163.879 40H163.335C163.217 40 163.116 39.9573 163.031 39.872C162.956 39.7867 162.919 39.6853 162.919 39.568V32.112C162.919 31.9947 162.961 31.8933 163.047 31.808C163.132 31.7227 163.233 31.68 163.351 31.68H163.943C164.06 31.68 164.161 31.7227 164.247 31.808C164.332 31.8933 164.375 31.9947 164.375 32.112V37.52L169.031 31.856C169.084 31.792 169.132 31.7493 169.175 31.728C169.228 31.696 169.297 31.68 169.383 31.68H169.911C170.028 31.68 170.129 31.7227 170.215 31.808C170.3 31.8933 170.343 31.9947 170.343 32.112V39.568C170.343 39.6853 170.3 39.7867 170.215 39.872C170.129 39.9573 170.028 40 169.911 40H169.319ZM172.619 38.688C172.651 38.5173 172.72 38.3733 172.827 38.256C172.944 38.128 173.104 38.064 173.307 38.064H174.235C174.331 38.064 174.411 38.1013 174.475 38.176C174.55 38.24 174.587 38.32 174.587 38.416C174.587 38.4587 174.582 38.496 174.571 38.528L173.739 40.688C173.611 41.0293 173.382 41.2 173.051 41.2H172.651C172.555 41.2 172.47 41.1627 172.395 41.088C172.331 41.024 172.299 40.944 172.299 40.848V40.816L172.619 38.688ZM23.56 58.784C24.6267 58.784 25.3467 58.368 25.72 57.536C25.7947 57.376 25.8693 57.264 25.944 57.2C26.0187 57.136 26.12 57.104 26.248 57.104H26.728C26.8453 57.104 26.9467 57.1467 27.032 57.232C27.1173 57.3067 27.16 57.3973 27.16 57.504C27.16 57.8667 27.016 58.256 26.728 58.672C26.44 59.088 26.024 59.44 25.48 59.728C24.936 60.016 24.296 60.16 23.56 60.16C22.8027 60.16 22.1467 60 21.592 59.68C21.0373 59.36 20.6107 58.9227 20.312 58.368C20.0133 57.8027 19.848 57.1733 19.816 56.48C19.8053 56.352 19.8 56.1067 19.8 55.744C19.8 55.488 19.8053 55.3067 19.816 55.2C19.912 54.112 20.28 53.2267 20.92 52.544C21.56 51.8613 22.44 51.52 23.56 51.52C24.296 51.52 24.9307 51.664 25.464 51.952C26.008 52.2293 26.4187 52.576 26.696 52.992C26.984 53.3973 27.1387 53.7813 27.16 54.144C27.1707 54.2613 27.128 54.3627 27.032 54.448C26.9467 54.5333 26.8453 54.576 26.728 54.576H26.248C26.12 54.576 26.0187 54.544 25.944 54.48C25.8693 54.416 25.7947 54.304 25.72 54.144C25.3467 53.312 24.6267 52.896 23.56 52.896C22.9733 52.896 22.4613 53.0933 22.024 53.488C21.5867 53.8827 21.336 54.48 21.272 55.28C21.2613 55.3973 21.256 55.5893 21.256 55.856C21.256 56.1013 21.2613 56.2827 21.272 56.4C21.3467 57.2 21.5973 57.7973 22.024 58.192C22.4613 58.5867 22.9733 58.784 23.56 58.784ZM33.3903 51.952C33.5929 51.7707 33.8009 51.68 34.0143 51.68H34.7823C34.8889 51.68 34.9796 51.7173 35.0543 51.792C35.1289 51.8667 35.1663 51.9573 35.1663 52.064C35.1663 52.1813 35.1076 52.288 34.9903 52.384L31.1183 55.776L35.3743 59.312C35.4809 59.3973 35.5343 59.4987 35.5343 59.616C35.5343 59.7227 35.4969 59.8133 35.4223 59.888C35.3476 59.9627 35.2569 60 35.1503 60H34.3183C34.0943 60 33.8756 59.9093 33.6623 59.728L30.0623 56.736V59.568C30.0623 59.6853 30.0196 59.7867 29.9343 59.872C29.8489 59.9573 29.7476 60 29.6303 60H29.0383C28.9209 60 28.8196 59.9573 28.7343 59.872C28.6489 59.7867 28.6063 59.6853 28.6063 59.568V52.112C28.6063 51.9947 28.6489 51.8933 28.7343 51.808C28.8196 51.7227 28.9209 51.68 29.0383 51.68H29.6303C29.7476 51.68 29.8489 51.7227 29.9343 51.808C30.0196 51.8933 30.0623 51.9947 30.0623 52.112V54.88L33.3903 51.952ZM44.0094 55.088C44.0307 55.3227 44.0414 55.5787 44.0414 55.856C44.0414 56.112 44.0307 56.3573 44.0094 56.592C43.9134 57.68 43.5347 58.5493 42.8734 59.2C42.2227 59.84 41.3374 60.16 40.2174 60.16C39.0974 60.16 38.2067 59.84 37.5454 59.2C36.8947 58.5493 36.5214 57.68 36.4254 56.592C36.4147 56.4747 36.4094 56.2293 36.4094 55.856C36.4094 55.4613 36.4147 55.2053 36.4254 55.088C36.5107 54 36.884 53.136 37.5454 52.496C38.2067 51.8453 39.0974 51.52 40.2174 51.52C41.3374 51.52 42.228 51.8453 42.8894 52.496C43.5507 53.136 43.924 54 44.0094 55.088ZM42.5534 55.168C42.4894 54.4853 42.26 53.936 41.8654 53.52C41.4814 53.104 40.932 52.896 40.2174 52.896C39.5027 52.896 38.948 53.104 38.5534 53.52C38.1694 53.936 37.9454 54.4853 37.8814 55.168C37.8707 55.296 37.8654 55.5253 37.8654 55.856C37.8654 56.176 37.8707 56.3947 37.8814 56.512C37.9454 57.1947 38.1694 57.744 38.5534 58.16C38.948 58.576 39.5027 58.784 40.2174 58.784C40.932 58.784 41.4814 58.576 41.8654 58.16C42.26 57.744 42.4894 57.1947 42.5534 56.512C42.5747 56.2773 42.5854 56.0587 42.5854 55.856C42.5854 55.6533 42.5747 55.424 42.5534 55.168ZM52.7958 51.68C52.9131 51.68 53.0144 51.7227 53.0998 51.808C53.1851 51.8933 53.2278 51.9947 53.2278 52.112V59.568C53.2278 59.6853 53.1851 59.7867 53.0998 59.872C53.0144 59.9573 52.9131 60 52.7958 60H52.2038C52.0864 60 51.9851 59.9573 51.8998 59.872C51.8144 59.7867 51.7718 59.6853 51.7718 59.568V53.056H48.4278V57.232C48.4278 58.1707 48.2198 58.896 47.8038 59.408C47.3984 59.9093 46.7158 60.16 45.7558 60.16H45.5638C45.4464 60.16 45.3451 60.1173 45.2598 60.032C45.1744 59.9467 45.1318 59.8453 45.1318 59.728V59.216C45.1318 59.0987 45.1744 58.9973 45.2598 58.912C45.3451 58.8267 45.4464 58.784 45.5638 58.784H45.7558C46.2251 58.784 46.5451 58.656 46.7158 58.4C46.8864 58.1333 46.9718 57.7387 46.9718 57.216V52.112C46.9718 51.9947 47.0144 51.8933 47.0998 51.808C47.1851 51.7227 47.2864 51.68 47.4038 51.68H52.7958ZM55.6219 52.112C55.6219 51.9947 55.6645 51.8933 55.7499 51.808C55.8352 51.7227 55.9365 51.68 56.0539 51.68H56.6459C56.7632 51.68 56.8645 51.7227 56.9499 51.808C57.0352 51.8933 57.0779 51.9947 57.0779 52.112V53.728H58.8059C59.4779 53.728 60.0752 53.8613 60.5979 54.128C61.1312 54.384 61.5419 54.752 61.8299 55.232C62.1179 55.7013 62.2619 56.2453 62.2619 56.864C62.2619 57.4827 62.1179 58.032 61.8299 58.512C61.5419 58.9813 61.1312 59.3493 60.5979 59.616C60.0752 59.872 59.4779 60 58.8059 60H56.0539C55.9365 60 55.8352 59.9573 55.7499 59.872C55.6645 59.7867 55.6219 59.6853 55.6219 59.568V52.112ZM57.0779 55.104V58.624H58.5819C59.2752 58.624 59.8192 58.4853 60.2139 58.208C60.6192 57.9307 60.8219 57.4827 60.8219 56.864C60.8219 56.2453 60.6192 55.7973 60.2139 55.52C59.8192 55.2427 59.2752 55.104 58.5819 55.104H57.0779ZM68.3278 51.952C68.5304 51.7707 68.7384 51.68 68.9518 51.68H69.7198C69.8264 51.68 69.9171 51.7173 69.9918 51.792C70.0664 51.8667 70.1038 51.9573 70.1038 52.064C70.1038 52.1813 70.0451 52.288 69.9278 52.384L66.0558 55.776L70.3118 59.312C70.4184 59.3973 70.4718 59.4987 70.4718 59.616C70.4718 59.7227 70.4344 59.8133 70.3598 59.888C70.2851 59.9627 70.1944 60 70.0878 60H69.2558C69.0318 60 68.8131 59.9093 68.5998 59.728L64.9998 56.736V59.568C64.9998 59.6853 64.9571 59.7867 64.8718 59.872C64.7864 59.9573 64.6851 60 64.5678 60H63.9758C63.8584 60 63.7571 59.9573 63.6718 59.872C63.5864 59.7867 63.5438 59.6853 63.5438 59.568V52.112C63.5438 51.9947 63.5864 51.8933 63.6718 51.808C63.7571 51.7227 63.8584 51.68 63.9758 51.68H64.5678C64.6851 51.68 64.7864 51.7227 64.8718 51.808C64.9571 51.8933 64.9998 51.9947 64.9998 52.112V54.88L68.3278 51.952ZM79.1031 55.088C79.1245 55.3227 79.1351 55.5787 79.1351 55.856C79.1351 56.112 79.1245 56.3573 79.1031 56.592C79.0071 57.68 78.6285 58.5493 77.9671 59.2C77.3165 59.84 76.4311 60.16 75.3111 60.16C74.1911 60.16 73.3005 59.84 72.6391 59.2C71.9885 58.5493 71.6151 57.68 71.5191 56.592C71.5085 56.4747 71.5031 56.2293 71.5031 55.856C71.5031 55.4613 71.5085 55.2053 71.5191 55.088C71.6045 54 71.9778 53.136 72.6391 52.496C73.3005 51.8453 74.1911 51.52 75.3111 51.52C76.4311 51.52 77.3218 51.8453 77.9831 52.496C78.6445 53.136 79.0178 54 79.1031 55.088ZM77.6471 55.168C77.5831 54.4853 77.3538 53.936 76.9591 53.52C76.5751 53.104 76.0258 52.896 75.3111 52.896C74.5965 52.896 74.0418 53.104 73.6471 53.52C73.2631 53.936 73.0391 54.4853 72.9751 55.168C72.9645 55.296 72.9591 55.5253 72.9591 55.856C72.9591 56.176 72.9645 56.3947 72.9751 56.512C73.0391 57.1947 73.2631 57.744 73.6471 58.16C74.0418 58.576 74.5965 58.784 75.3111 58.784C76.0258 58.784 76.5751 58.576 76.9591 58.16C77.3538 57.744 77.5831 57.1947 77.6471 56.512C77.6685 56.2773 77.6791 56.0587 77.6791 55.856C77.6791 55.6533 77.6685 55.424 77.6471 55.168ZM92.0358 51.68C92.1531 51.68 92.2544 51.7227 92.3398 51.808C92.4251 51.8933 92.4678 51.9947 92.4678 52.112V59.568C92.4678 59.6853 92.4251 59.7867 92.3398 59.872C92.2544 59.9573 92.1531 60 92.0358 60H91.4438C91.3264 60 91.2251 59.9573 91.1398 59.872C91.0544 59.7867 91.0118 59.6853 91.0118 59.568V56.448H86.4998V59.568C86.4998 59.6853 86.4571 59.7867 86.3718 59.872C86.2864 59.9573 86.1851 60 86.0678 60H85.4758C85.3584 60 85.2571 59.9627 85.1718 59.888C85.0864 59.8027 85.0438 59.696 85.0438 59.568V52.112C85.0438 51.9947 85.0864 51.8933 85.1718 51.808C85.2571 51.7227 85.3584 51.68 85.4758 51.68H86.0678C86.1851 51.68 86.2864 51.7227 86.3718 51.808C86.4571 51.8933 86.4998 51.9947 86.4998 52.112V55.072H91.0118V52.112C91.0118 51.9947 91.0544 51.8933 91.1398 51.808C91.2251 51.7227 91.3264 51.68 91.4438 51.68H92.0358ZM94.1839 52.176C94.1732 52.144 94.1679 52.1067 94.1679 52.064C94.1679 51.9573 94.2052 51.8667 94.2799 51.792C94.3545 51.7173 94.4452 51.68 94.5519 51.68H95.2079C95.3999 51.68 95.5545 51.808 95.6719 52.064L98.4239 57.856L101.16 52.064C101.277 51.808 101.432 51.68 101.624 51.68H102.28C102.387 51.68 102.477 51.7173 102.552 51.792C102.627 51.8667 102.664 51.9573 102.664 52.064C102.664 52.1067 102.659 52.144 102.648 52.176L99.2719 59.36C99.1865 59.5307 99.0692 59.7867 98.9199 60.128C98.6319 60.7893 98.3759 61.312 98.1519 61.696C97.9385 62.08 97.6665 62.4 97.3359 62.656C97.0159 62.912 96.6265 63.04 96.1679 63.04H95.5119C95.3945 63.04 95.2932 62.9973 95.2079 62.912C95.1225 62.8267 95.0799 62.7253 95.0799 62.608V62.096C95.0799 61.9787 95.1225 61.8773 95.2079 61.792C95.2932 61.7067 95.3945 61.664 95.5119 61.664H95.9279C96.1625 61.664 96.3599 61.5947 96.5199 61.456C96.6905 61.328 96.8345 61.1573 96.9519 60.944C97.0692 60.7307 97.2239 60.416 97.4159 60L97.6399 59.504L94.1839 52.176ZM107.415 54.576V52.112C107.415 51.9947 107.457 51.8933 107.543 51.808C107.628 51.7227 107.729 51.68 107.847 51.68H108.439C108.556 51.68 108.657 51.7227 108.743 51.808C108.828 51.8933 108.871 51.9947 108.871 52.112V54.576L110.935 51.984C111.009 51.8987 111.084 51.8293 111.159 51.776C111.233 51.712 111.329 51.68 111.447 51.68H112.215C112.321 51.68 112.412 51.7173 112.487 51.792C112.561 51.8667 112.599 51.952 112.599 52.048C112.599 52.1333 112.577 52.208 112.535 52.272L109.767 55.744L112.695 59.408C112.737 59.472 112.759 59.5467 112.759 59.632C112.759 59.728 112.721 59.8133 112.647 59.888C112.572 59.9627 112.481 60 112.375 60H111.639C111.521 60 111.425 59.9733 111.351 59.92C111.276 59.856 111.201 59.7813 111.127 59.696L108.871 56.864V59.568C108.871 59.6853 108.828 59.7867 108.743 59.872C108.657 59.9573 108.556 60 108.439 60H107.847C107.729 60 107.628 59.9573 107.543 59.872C107.457 59.7867 107.415 59.6853 107.415 59.568V56.864L105.159 59.696C105.084 59.7813 105.009 59.856 104.935 59.92C104.86 59.9733 104.764 60 104.647 60H103.911C103.804 60 103.713 59.9627 103.639 59.888C103.564 59.8133 103.527 59.728 103.527 59.632C103.527 59.5467 103.548 59.472 103.59 59.408L106.519 55.744L103.751 52.272C103.708 52.208 103.687 52.1333 103.687 52.048C103.687 51.952 103.724 51.8667 103.799 51.792C103.873 51.7173 103.964 51.68 104.071 51.68H104.839C104.956 51.68 105.052 51.712 105.127 51.776C105.201 51.8293 105.276 51.8987 105.351 51.984L107.415 54.576ZM121.411 51.68C121.528 51.68 121.629 51.7227 121.715 51.808C121.8 51.8933 121.843 51.9947 121.843 52.112V59.568C121.843 59.6853 121.8 59.7867 121.715 59.872C121.629 59.9573 121.528 60 121.411 60H120.819C120.701 60 120.6 59.9573 120.515 59.872C120.429 59.7867 120.387 59.6853 120.387 59.568V56.448H115.875V59.568C115.875 59.6853 115.832 59.7867 115.747 59.872C115.661 59.9573 115.56 60 115.443 60H114.851C114.733 60 114.632 59.9627 114.547 59.888C114.461 59.8027 114.419 59.696 114.419 59.568V52.112C114.419 51.9947 114.461 51.8933 114.547 51.808C114.632 51.7227 114.733 51.68 114.851 51.68H115.443C115.56 51.68 115.661 51.7227 115.747 51.808C115.832 51.8933 115.875 51.9947 115.875 52.112V55.072H120.387V52.112C120.387 51.9947 120.429 51.8933 120.515 51.808C120.6 51.7227 120.701 51.68 120.819 51.68H121.411ZM131.322 55.088C131.343 55.3227 131.354 55.5787 131.354 55.856C131.354 56.112 131.343 56.3573 131.322 56.592C131.226 57.68 130.847 58.5493 130.186 59.2C129.535 59.84 128.65 60.16 127.53 60.16C126.41 60.16 125.519 59.84 124.858 59.2C124.207 58.5493 123.834 57.68 123.738 56.592C123.727 56.4747 123.722 56.2293 123.722 55.856C123.722 55.4613 123.727 55.2053 123.738 55.088C123.823 54 124.197 53.136 124.858 52.496C125.519 51.8453 126.41 51.52 127.53 51.52C128.65 51.52 129.541 51.8453 130.202 52.496C130.863 53.136 131.237 54 131.322 55.088ZM129.866 55.168C129.802 54.4853 129.573 53.936 129.178 53.52C128.794 53.104 128.245 52.896 127.53 52.896C126.815 52.896 126.261 53.104 125.866 53.52C125.482 53.936 125.258 54.4853 125.194 55.168C125.183 55.296 125.178 55.5253 125.178 55.856C125.178 56.176 125.183 56.3947 125.194 56.512C125.258 57.1947 125.482 57.744 125.866 58.16C126.261 58.576 126.815 58.784 127.53 58.784C128.245 58.784 128.794 58.576 129.178 58.16C129.573 57.744 129.802 57.1947 129.866 56.512C129.887 56.2773 129.898 56.0587 129.898 55.856C129.898 55.6533 129.887 55.424 129.866 55.168ZM134.668 58.064C134.786 58.064 134.887 58.1067 134.972 58.192C135.058 58.2773 135.1 58.3787 135.1 58.496V59.568C135.1 59.6853 135.058 59.7867 134.972 59.872C134.887 59.9573 134.786 60 134.668 60H133.596C133.479 60 133.378 59.9573 133.292 59.872C133.207 59.7867 133.164 59.6853 133.164 59.568V58.496C133.164 58.3787 133.207 58.2773 133.292 58.192C133.378 58.1067 133.479 58.064 133.596 58.064H134.668ZM28.616 68.8C28.7333 68.8 28.8347 68.8427 28.92 68.928C29.0053 69.0133 29.048 69.1147 29.048 69.232V79.568C29.048 79.6853 29.0053 79.7867 28.92 79.872C28.8347 79.9573 28.7333 80 28.616 80H27.96C27.8427 80 27.7413 79.9573 27.656 79.872C27.5707 79.7867 27.528 79.6853 27.528 79.568V70.24H21.896V79.568C21.896 79.6853 21.8533 79.7867 21.768 79.872C21.6827 79.9573 21.5813 80 21.464 80H20.808C20.6907 80 20.5893 79.9573 20.504 79.872C20.4187 79.7867 20.376 79.6853 20.376 79.568V69.232C20.376 69.1147 20.4187 69.0133 20.504 68.928C20.5893 68.8427 20.6907 68.8 20.808 68.8H28.616ZM33.0779 82.608C33.0779 82.7253 33.0352 82.8267 32.9499 82.912C32.8645 82.9973 32.7632 83.04 32.6459 83.04H32.0539C31.9365 83.04 31.8352 82.9973 31.7499 82.912C31.6645 82.8267 31.6219 82.7253 31.6219 82.608V72.112C31.6219 71.9947 31.6645 71.8933 31.7499 71.808C31.8352 71.7227 31.9365 71.68 32.0539 71.68H32.6459C32.7632 71.68 32.8645 71.7227 32.9499 71.808C33.0352 71.8933 33.0779 71.9947 33.0779 72.112V72.608C33.6219 71.8827 34.4485 71.52 35.5579 71.52C36.2192 71.52 36.8165 71.6747 37.3499 71.984C37.8939 72.2933 38.3259 72.736 38.6459 73.312C38.9765 73.888 39.1579 74.56 39.1899 75.328C39.2005 75.4347 39.2059 75.6053 39.2059 75.84C39.2059 76.0853 39.2005 76.2613 39.1899 76.368C39.1579 77.136 38.9765 77.808 38.6459 78.384C38.3259 78.9493 37.8992 79.3867 37.3659 79.696C36.8325 80.0053 36.2299 80.16 35.5579 80.16C34.9605 80.16 34.4539 80.0587 34.0379 79.856C33.6325 79.6427 33.3125 79.3813 33.0779 79.072V82.608ZM33.0779 76.416C33.1099 77.1627 33.3339 77.744 33.7499 78.16C34.1659 78.576 34.7152 78.784 35.3979 78.784C36.0912 78.784 36.6405 78.56 37.0459 78.112C37.4619 77.664 37.6912 77.056 37.7339 76.288C37.7445 76.1813 37.7499 76.032 37.7499 75.84C37.7499 75.648 37.7445 75.4987 37.7339 75.392C37.6912 74.624 37.4619 74.016 37.0459 73.568C36.6405 73.12 36.0912 72.896 35.3979 72.896C34.7365 72.896 34.1925 73.104 33.7659 73.52C33.3392 73.9253 33.1099 74.4693 33.0779 75.152L33.0619 75.776L33.0779 76.416ZM47.5844 80C47.467 80 47.3657 79.9573 47.2804 79.872C47.195 79.7867 47.1524 79.6853 47.1524 79.568V74.208L42.4964 79.824C42.411 79.9413 42.2937 80 42.1444 80H41.6004C41.483 80 41.3817 79.9573 41.2964 79.872C41.2217 79.7867 41.1844 79.6853 41.1844 79.568V72.112C41.1844 71.9947 41.227 71.8933 41.3124 71.808C41.3977 71.7227 41.499 71.68 41.6164 71.68H42.2084C42.3257 71.68 42.427 71.7227 42.5124 71.808C42.5977 71.8933 42.6404 71.9947 42.6404 72.112V77.52L47.2964 71.856C47.3497 71.792 47.3977 71.7493 47.4404 71.728C47.4937 71.696 47.563 71.68 47.6484 71.68H48.1764C48.2937 71.68 48.395 71.7227 48.4804 71.808C48.5657 71.8933 48.6084 71.9947 48.6084 72.112V79.568C48.6084 79.6853 48.5657 79.7867 48.4804 79.872C48.395 79.9573 48.2937 80 48.1764 80H47.5844ZM51.0125 72C51.0125 71.9147 51.0445 71.84 51.1085 71.776C51.1725 71.712 51.2472 71.68 51.3325 71.68H55.3005C56.2072 71.68 56.9165 71.8827 57.4285 72.288C57.9512 72.6933 58.2125 73.232 58.2125 73.904C58.2125 74.3413 58.1272 74.6933 57.9565 74.96C57.7858 75.216 57.5512 75.456 57.2525 75.68C57.6685 75.9147 57.9618 76.192 58.1325 76.512C58.3032 76.8213 58.3885 77.1947 58.3885 77.632C58.3885 78.3787 58.1272 78.96 57.6045 79.376C57.0818 79.792 56.3725 80 55.4765 80H51.3325C51.2472 80 51.1725 79.968 51.1085 79.904C51.0445 79.84 51.0125 79.7653 51.0125 79.68V72ZM52.4685 75.104H55.0925C55.6472 75.104 56.0632 75.0293 56.3405 74.88C56.6178 74.72 56.7565 74.448 56.7565 74.064C56.7565 73.68 56.6125 73.4187 56.3245 73.28C56.0365 73.1413 55.5992 73.072 55.0125 73.072H52.4685V75.104ZM52.4685 78.608H55.1725C56.3458 78.608 56.9325 78.2507 56.9325 77.536C56.9325 77.152 56.7885 76.8853 56.5005 76.736C56.2125 76.576 55.7858 76.496 55.2205 76.496H52.4685V78.608ZM63.6988 71.52C64.8401 71.52 65.7414 71.8827 66.4028 72.608C67.0641 73.3333 67.3948 74.32 67.3948 75.568V76C67.3948 76.1173 67.3521 76.2187 67.2668 76.304C67.1814 76.3893 67.0801 76.432 66.9628 76.432H61.4588V76.528C61.4801 77.232 61.6934 77.7867 62.0988 78.192C62.5148 78.5867 63.0481 78.784 63.6988 78.784C64.2321 78.784 64.6428 78.7147 64.9308 78.576C65.2294 78.4373 65.4961 78.24 65.7308 77.984C65.8161 77.8987 65.8908 77.84 65.9548 77.808C66.0294 77.776 66.1254 77.76 66.2428 77.76H66.7228C66.8508 77.76 66.9574 77.8027 67.0428 77.888C67.1281 77.9733 67.1654 78.0747 67.1548 78.192C67.1121 78.48 66.9521 78.7787 66.6748 79.088C66.4081 79.3867 66.0188 79.6427 65.5068 79.856C65.0054 80.0587 64.4028 80.16 63.6988 80.16C63.0161 80.16 62.4081 80.0053 61.8748 79.696C61.3414 79.376 60.9148 78.9387 60.5948 78.384C60.2854 77.8293 60.0988 77.2053 60.0348 76.512C60.0134 76.192 60.0028 75.9467 60.0028 75.776C60.0028 75.6053 60.0134 75.36 60.0348 75.04C60.0988 74.3787 60.2854 73.7813 60.5948 73.248C60.9148 72.7147 61.3361 72.2933 61.8588 71.984C62.3921 71.6747 63.0054 71.52 63.6988 71.52ZM65.9548 75.088V75.04C65.9548 74.3893 65.7468 73.872 65.3308 73.488C64.9254 73.0933 64.3814 72.896 63.6988 72.896C63.0801 72.896 62.5521 73.0933 62.1148 73.488C61.6881 73.8827 61.4694 74.4 61.4588 75.04V75.088H65.9548ZM72.141 78.784C73.4103 78.784 74.045 78.4053 74.045 77.648C74.045 77.264 73.8797 76.9813 73.549 76.8C73.229 76.608 72.8023 76.512 72.269 76.512H71.021C70.9037 76.512 70.8023 76.4693 70.717 76.384C70.6317 76.2987 70.589 76.1973 70.589 76.08V75.568C70.589 75.4507 70.6317 75.3493 70.717 75.264C70.8023 75.1787 70.9037 75.136 71.021 75.136H72.285C72.7543 75.136 73.1383 75.04 73.437 74.848C73.7463 74.656 73.901 74.3787 73.901 74.016C73.901 73.6427 73.7357 73.3653 73.405 73.184C73.085 72.992 72.6637 72.896 72.141 72.896C71.661 72.896 71.2877 72.9707 71.021 73.12C70.7543 73.2587 70.541 73.4933 70.381 73.824C70.2423 74.112 70.0663 74.256 69.853 74.256H69.373C69.2557 74.256 69.149 74.2133 69.053 74.128C68.9677 74.0427 68.9303 73.9413 68.941 73.824C68.9623 73.4187 69.0957 73.04 69.341 72.688C69.597 72.336 69.965 72.0533 70.445 71.84C70.925 71.6267 71.4903 71.52 72.141 71.52C73.0797 71.52 73.8477 71.7333 74.445 72.16C75.053 72.5867 75.357 73.2053 75.357 74.016C75.357 74.7307 75.1063 75.312 74.605 75.76C75.2023 76.1973 75.501 76.8267 75.501 77.648C75.501 78.5333 75.1917 79.1733 74.573 79.568C73.965 79.9627 73.1543 80.16 72.141 80.16C71.085 80.16 70.269 79.9573 69.693 79.552C69.117 79.136 68.813 78.624 68.781 78.016C68.7703 77.8987 68.8077 77.7973 68.893 77.712C68.989 77.6267 69.0957 77.584 69.213 77.584H69.693C69.8103 77.584 69.9063 77.616 69.981 77.68C70.0557 77.7333 70.1357 77.8453 70.221 78.016C70.381 78.3253 70.6157 78.5333 70.925 78.64C71.2343 78.736 71.6397 78.784 72.141 78.784ZM80.2321 69.968C80.2321 70.0853 80.1895 70.1867 80.1041 70.272C80.0188 70.3573 79.9175 70.4 79.8001 70.4H78.8881C78.7708 70.4 78.6695 70.3573 78.5841 70.272C78.4988 70.1867 78.4561 70.0853 78.4561 69.968V69.056C78.4561 68.9387 78.4988 68.8373 78.5841 68.752C78.6695 68.6667 78.7708 68.624 78.8881 68.624H79.8001C79.9175 68.624 80.0188 68.6667 80.1041 68.752C80.1895 68.8373 80.2321 68.9387 80.2321 69.056V69.968ZM83.1281 69.968C83.1281 70.0853 83.0855 70.1867 83.0001 70.272C82.9148 70.3573 82.8135 70.4 82.6961 70.4H81.7841C81.6668 70.4 81.5655 70.3573 81.4801 70.272C81.3948 70.1867 81.3521 70.0853 81.3521 69.968V69.056C81.3521 68.9387 81.3948 68.8373 81.4801 68.752C81.5655 68.6667 81.6668 68.624 81.7841 68.624H82.6961C82.8135 68.624 82.9148 68.6667 83.0001 68.752C83.0855 68.8373 83.1281 68.9387 83.1281 69.056V69.968ZM80.8081 71.52C81.9495 71.52 82.8508 71.8827 83.5121 72.608C84.1735 73.3333 84.5041 74.32 84.5041 75.568V76C84.5041 76.1173 84.4615 76.2187 84.3761 76.304C84.2908 76.3893 84.1895 76.432 84.0721 76.432H78.5681V76.528C78.5895 77.232 78.8028 77.7867 79.2081 78.192C79.6241 78.5867 80.1575 78.784 80.8081 78.784C81.3415 78.784 81.7521 78.7147 82.0401 78.576C82.3388 78.4373 82.6055 78.24 82.8401 77.984C82.9255 77.8987 83.0001 77.84 83.0641 77.808C83.1388 77.776 83.2348 77.76 83.3521 77.76H83.8321C83.9601 77.76 84.0668 77.8027 84.1521 77.888C84.2375 77.9733 84.2748 78.0747 84.2641 78.192C84.2215 78.48 84.0615 78.7787 83.7841 79.088C83.5175 79.3867 83.1281 79.6427 82.6161 79.856C82.1148 80.0587 81.5121 80.16 80.8081 80.16C80.1255 80.16 79.5175 80.0053 78.9841 79.696C78.4508 79.376 78.0241 78.9387 77.7041 78.384C77.3948 77.8293 77.2081 77.2053 77.1441 76.512C77.1228 76.192 77.1121 75.9467 77.1121 75.776C77.1121 75.6053 77.1228 75.36 77.1441 75.04C77.2081 74.3787 77.3948 73.7813 77.7041 73.248C78.0241 72.7147 78.4455 72.2933 78.9681 71.984C79.5015 71.6747 80.1148 71.52 80.8081 71.52ZM83.0641 75.088V75.04C83.0641 74.3893 82.8561 73.872 82.4401 73.488C82.0348 73.0933 81.4908 72.896 80.8081 72.896C80.1895 72.896 79.6615 73.0933 79.2241 73.488C78.7975 73.8827 78.5788 74.4 78.5681 75.04V75.088H83.0641ZM93.0744 72C93.117 71.9147 93.1864 71.84 93.2824 71.776C93.3784 71.712 93.5064 71.68 93.6664 71.68H94.1944C94.3117 71.68 94.413 71.7227 94.4984 71.808C94.5837 71.8933 94.6264 71.9947 94.6264 72.112V79.568C94.6264 79.6853 94.5837 79.7867 94.4984 79.872C94.413 79.9573 94.3117 80 94.1944 80H93.6024C93.485 80 93.3837 79.9573 93.2984 79.872C93.213 79.7867 93.1704 79.6853 93.1704 79.568V74.752L91.2824 78.24C91.1544 78.5067 90.9677 78.64 90.7224 78.64H90.3384C90.1037 78.64 89.917 78.5067 89.7784 78.24L87.8904 74.752V79.568C87.8904 79.6853 87.8477 79.7867 87.7624 79.872C87.677 79.9573 87.5757 80 87.4584 80H86.8664C86.749 80 86.6477 79.9573 86.5624 79.872C86.477 79.7867 86.4344 79.6853 86.4344 79.568V72.112C86.4344 71.9947 86.477 71.8933 86.5624 71.808C86.6477 71.7227 86.749 71.68 86.8664 71.68H87.3944C87.5544 71.68 87.6824 71.712 87.7784 71.776C87.8744 71.84 87.9437 71.9147 87.9864 72L90.5304 76.8L93.0744 72ZM104.294 78.784C105.361 78.784 106.081 78.368 106.454 77.536C106.529 77.376 106.604 77.264 106.678 77.2C106.753 77.136 106.854 77.104 106.982 77.104H107.462C107.58 77.104 107.681 77.1467 107.766 77.232C107.852 77.3067 107.894 77.3973 107.894 77.504C107.894 77.8667 107.75 78.256 107.462 78.672C107.174 79.088 106.758 79.44 106.214 79.728C105.67 80.016 105.03 80.16 104.294 80.16C103.537 80.16 102.881 80 102.326 79.68C101.772 79.36 101.345 78.9227 101.046 78.368C100.748 77.8027 100.582 77.1733 100.55 76.48C100.54 76.352 100.534 76.1067 100.534 75.744C100.534 75.488 100.54 75.3067 100.55 75.2C100.646 74.112 101.014 73.2267 101.654 72.544C102.294 71.8613 103.174 71.52 104.294 71.52C105.03 71.52 105.665 71.664 106.198 71.952C106.742 72.2293 107.153 72.576 107.43 72.992C107.718 73.3973 107.873 73.7813 107.894 74.144C107.905 74.2613 107.862 74.3627 107.766 74.448C107.681 74.5333 107.58 74.576 107.462 74.576H106.982C106.854 74.576 106.753 74.544 106.678 74.48C106.604 74.416 106.529 74.304 106.454 74.144C106.081 73.312 105.361 72.896 104.294 72.896C103.708 72.896 103.196 73.0933 102.758 73.488C102.321 73.8827 102.07 74.48 102.006 75.28C101.996 75.3973 101.99 75.5893 101.99 75.856C101.99 76.1013 101.996 76.2827 102.006 76.4C102.081 77.2 102.332 77.7973 102.758 78.192C103.196 78.5867 103.708 78.784 104.294 78.784ZM114.125 71.952C114.327 71.7707 114.535 71.68 114.749 71.68H115.517C115.623 71.68 115.714 71.7173 115.789 71.792C115.863 71.8667 115.901 71.9573 115.901 72.064C115.901 72.1813 115.842 72.288 115.725 72.384L111.853 75.776L116.109 79.312C116.215 79.3973 116.269 79.4987 116.269 79.616C116.269 79.7227 116.231 79.8133 116.157 79.888C116.082 79.9627 115.991 80 115.885 80H115.053C114.829 80 114.61 79.9093 114.397 79.728L110.797 76.736V79.568C110.797 79.6853 110.754 79.7867 110.669 79.872C110.583 79.9573 110.482 80 110.365 80H109.773C109.655 80 109.554 79.9573 109.469 79.872C109.383 79.7867 109.341 79.6853 109.341 79.568V72.112C109.341 71.9947 109.383 71.8933 109.469 71.808C109.554 71.7227 109.655 71.68 109.773 71.68H110.365C110.482 71.68 110.583 71.7227 110.669 71.808C110.754 71.8933 110.797 71.9947 110.797 72.112V74.88L114.125 71.952ZM124.744 75.088C124.765 75.3227 124.776 75.5787 124.776 75.856C124.776 76.112 124.765 76.3573 124.744 76.592C124.648 77.68 124.269 78.5493 123.608 79.2C122.957 79.84 122.072 80.16 120.952 80.16C119.832 80.16 118.941 79.84 118.28 79.2C117.629 78.5493 117.256 77.68 117.16 76.592C117.149 76.4747 117.144 76.2293 117.144 75.856C117.144 75.4613 117.149 75.2053 117.16 75.088C117.245 74 117.618 73.136 118.28 72.496C118.941 71.8453 119.832 71.52 120.952 71.52C122.072 71.52 122.962 71.8453 123.624 72.496C124.285 73.136 124.658 74 124.744 75.088ZM123.288 75.168C123.224 74.4853 122.994 73.936 122.6 73.52C122.216 73.104 121.666 72.896 120.952 72.896C120.237 72.896 119.682 73.104 119.288 73.52C118.904 73.936 118.68 74.4853 118.616 75.168C118.605 75.296 118.6 75.5253 118.6 75.856C118.6 76.176 118.605 76.3947 118.616 76.512C118.68 77.1947 118.904 77.744 119.288 78.16C119.682 78.576 120.237 78.784 120.952 78.784C121.666 78.784 122.216 78.576 122.6 78.16C122.994 77.744 123.224 77.1947 123.288 76.512C123.309 76.2773 123.32 76.0587 123.32 75.856C123.32 75.6533 123.309 75.424 123.288 75.168ZM133.53 71.68C133.647 71.68 133.749 71.7227 133.834 71.808C133.919 71.8933 133.962 71.9947 133.962 72.112V79.568C133.962 79.6853 133.919 79.7867 133.834 79.872C133.749 79.9573 133.647 80 133.53 80H132.938C132.821 80 132.719 79.9573 132.634 79.872C132.549 79.7867 132.506 79.6853 132.506 79.568V73.056H129.162V77.232C129.162 78.1707 128.954 78.896 128.538 79.408C128.133 79.9093 127.45 80.16 126.49 80.16H126.298C126.181 80.16 126.079 80.1173 125.994 80.032C125.909 79.9467 125.866 79.8453 125.866 79.728V79.216C125.866 79.0987 125.909 78.9973 125.994 78.912C126.079 78.8267 126.181 78.784 126.298 78.784H126.49C126.959 78.784 127.279 78.656 127.45 78.4C127.621 78.1333 127.706 77.7387 127.706 77.216V72.112C127.706 71.9947 127.749 71.8933 127.834 71.808C127.919 71.7227 128.021 71.68 128.138 71.68H133.53ZM136.356 72.112C136.356 71.9947 136.399 71.8933 136.484 71.808C136.57 71.7227 136.671 71.68 136.788 71.68H137.38C137.498 71.68 137.599 71.7227 137.684 71.808C137.77 71.8933 137.812 71.9947 137.812 72.112V73.728H139.54C140.212 73.728 140.81 73.8613 141.332 74.128C141.866 74.384 142.276 74.752 142.564 75.232C142.852 75.7013 142.996 76.2453 142.996 76.864C142.996 77.4827 142.852 78.032 142.564 78.512C142.276 78.9813 141.866 79.3493 141.332 79.616C140.81 79.872 140.212 80 139.54 80H136.788C136.671 80 136.57 79.9573 136.484 79.872C136.399 79.7867 136.356 79.6853 136.356 79.568V72.112ZM137.812 75.104V78.624H139.316C140.01 78.624 140.554 78.4853 140.948 78.208C141.354 77.9307 141.556 77.4827 141.556 76.864C141.556 76.2453 141.354 75.7973 140.948 75.52C140.554 75.2427 140.01 75.104 139.316 75.104H137.812ZM149.062 71.952C149.265 71.7707 149.473 71.68 149.686 71.68H150.454C150.561 71.68 150.651 71.7173 150.726 71.792C150.801 71.8667 150.838 71.9573 150.838 72.064C150.838 72.1813 150.779 72.288 150.662 72.384L146.79 75.776L151.046 79.312C151.153 79.3973 151.206 79.4987 151.206 79.616C151.206 79.7227 151.169 79.8133 151.094 79.888C151.019 79.9627 150.929 80 150.822 80H149.99C149.766 80 149.547 79.9093 149.334 79.728L145.734 76.736V79.568C145.734 79.6853 145.691 79.7867 145.606 79.872C145.521 79.9573 145.419 80 145.302 80H144.71C144.593 80 144.491 79.9573 144.406 79.872C144.321 79.7867 144.278 79.6853 144.278 79.568V72.112C144.278 71.9947 144.321 71.8933 144.406 71.808C144.491 71.7227 144.593 71.68 144.71 71.68H145.302C145.419 71.68 145.521 71.7227 145.606 71.808C145.691 71.8933 145.734 71.9947 145.734 72.112V74.88L149.062 71.952ZM159.838 75.088C159.859 75.3227 159.87 75.5787 159.87 75.856C159.87 76.112 159.859 76.3573 159.838 76.592C159.742 77.68 159.363 78.5493 158.702 79.2C158.051 79.84 157.166 80.16 156.046 80.16C154.926 80.16 154.035 79.84 153.374 79.2C152.723 78.5493 152.35 77.68 152.254 76.592C152.243 76.4747 152.238 76.2293 152.238 75.856C152.238 75.4613 152.243 75.2053 152.254 75.088C152.339 74 152.712 73.136 153.374 72.496C154.035 71.8453 154.926 71.52 156.046 71.52C157.166 71.52 158.056 71.8453 158.718 72.496C159.379 73.136 159.752 74 159.838 75.088ZM158.382 75.168C158.318 74.4853 158.088 73.936 157.694 73.52C157.31 73.104 156.76 72.896 156.046 72.896C155.331 72.896 154.776 73.104 154.382 73.52C153.998 73.936 153.774 74.4853 153.71 75.168C153.699 75.296 153.694 75.5253 153.694 75.856C153.694 76.176 153.699 76.3947 153.71 76.512C153.774 77.1947 153.998 77.744 154.382 78.16C154.776 78.576 155.331 78.784 156.046 78.784C156.76 78.784 157.31 78.576 157.694 78.16C158.088 77.744 158.318 77.1947 158.382 76.512C158.403 76.2773 158.414 76.0587 158.414 75.856C158.414 75.6533 158.403 75.424 158.382 75.168ZM27.192 91.68C27.3093 91.68 27.4107 91.7227 27.496 91.808C27.5813 91.8933 27.624 91.9947 27.624 92.112V99.568C27.624 99.6853 27.5813 99.7867 27.496 99.872C27.4107 99.9573 27.3093 100 27.192 100H26.6C26.4827 100 26.3813 99.9573 26.296 99.872C26.2107 99.7867 26.168 99.6853 26.168 99.568V93.056H21.656V99.568C21.656 99.6853 21.6133 99.7867 21.528 99.872C21.4427 99.9573 21.3413 100 21.224 100H20.632C20.5147 100 20.4133 99.9573 20.328 99.872C20.2427 99.7867 20.2 99.6853 20.2 99.568V92.112C20.2 91.9947 20.2427 91.8933 20.328 91.808C20.4133 91.7227 20.5147 91.68 20.632 91.68H27.192ZM37.0719 95.088C37.0932 95.3227 37.1039 95.5787 37.1039 95.856C37.1039 96.112 37.0932 96.3573 37.0719 96.592C36.9759 97.68 36.5972 98.5493 35.9359 99.2C35.2852 99.84 34.3999 100.16 33.2799 100.16C32.1599 100.16 31.2692 99.84 30.6079 99.2C29.9572 98.5493 29.5839 97.68 29.4879 96.592C29.4772 96.4747 29.4719 96.2293 29.4719 95.856C29.4719 95.4613 29.4772 95.2053 29.4879 95.088C29.5732 94 29.9465 93.136 30.6079 92.496C31.2692 91.8453 32.1599 91.52 33.2799 91.52C34.3999 91.52 35.2905 91.8453 35.9519 92.496C36.6132 93.136 36.9865 94 37.0719 95.088ZM35.6159 95.168C35.5519 94.4853 35.3225 93.936 34.9279 93.52C34.5439 93.104 33.9945 92.896 33.2799 92.896C32.5652 92.896 32.0105 93.104 31.6159 93.52C31.2319 93.936 31.0079 94.4853 30.9439 95.168C30.9332 95.296 30.9279 95.5253 30.9279 95.856C30.9279 96.176 30.9332 96.3947 30.9439 96.512C31.0079 97.1947 31.2319 97.744 31.6159 98.16C32.0105 98.576 32.5652 98.784 33.2799 98.784C33.9945 98.784 34.5439 98.576 34.9279 98.16C35.3225 97.744 35.5519 97.1947 35.6159 96.512C35.6372 96.2773 35.6479 96.0587 35.6479 95.856C35.6479 95.6533 35.6372 95.424 35.6159 95.168ZM45.8583 91.68C45.9756 91.68 46.0769 91.7227 46.1623 91.808C46.2476 91.8933 46.2903 91.9947 46.2903 92.112V99.568C46.2903 99.6853 46.2476 99.7867 46.1623 99.872C46.0769 99.9573 45.9756 100 45.8583 100H45.2663C45.1489 100 45.0476 99.9573 44.9623 99.872C44.8769 99.7867 44.8343 99.6853 44.8343 99.568V93.056H41.4903V97.232C41.4903 98.1707 41.2823 98.896 40.8663 99.408C40.4609 99.9093 39.7783 100.16 38.8183 100.16H38.6263C38.5089 100.16 38.4076 100.117 38.3223 100.032C38.2369 99.9467 38.1943 99.8453 38.1943 99.728V99.216C38.1943 99.0987 38.2369 98.9973 38.3223 98.912C38.4076 98.8267 38.5089 98.784 38.6263 98.784H38.8183C39.2876 98.784 39.6076 98.656 39.7783 98.4C39.9489 98.1333 40.0343 97.7387 40.0343 97.216V92.112C40.0343 91.9947 40.0769 91.8933 40.1623 91.808C40.2476 91.7227 40.3489 91.68 40.4663 91.68H45.8583ZM47.9964 92.176C47.9857 92.144 47.9804 92.1067 47.9804 92.064C47.9804 91.9573 48.0177 91.8667 48.0924 91.792C48.167 91.7173 48.2577 91.68 48.3644 91.68H49.0204C49.2124 91.68 49.367 91.808 49.4844 92.064L52.2364 97.856L54.9724 92.064C55.0897 91.808 55.2444 91.68 55.4364 91.68H56.0924C56.199 91.68 56.2897 91.7173 56.3644 91.792C56.439 91.8667 56.4764 91.9573 56.4764 92.064C56.4764 92.1067 56.471 92.144 56.4604 92.176L53.0844 99.36C52.999 99.5307 52.8817 99.7867 52.7324 100.128C52.4444 100.789 52.1884 101.312 51.9644 101.696C51.751 102.08 51.479 102.4 51.1484 102.656C50.8284 102.912 50.439 103.04 49.9804 103.04H49.3244C49.207 103.04 49.1057 102.997 49.0204 102.912C48.935 102.827 48.8924 102.725 48.8924 102.608V102.096C48.8924 101.979 48.935 101.877 49.0204 101.792C49.1057 101.707 49.207 101.664 49.3244 101.664H49.7404C49.975 101.664 50.1724 101.595 50.3324 101.456C50.503 101.328 50.647 101.157 50.7644 100.944C50.8817 100.731 51.0364 100.416 51.2284 100L51.4524 99.504L47.9964 92.176ZM58.923 93.456C58.923 94.992 59.6697 95.76 61.163 95.76H63.435V92.112C63.435 91.9947 63.4777 91.8933 63.563 91.808C63.6483 91.7227 63.7497 91.68 63.867 91.68H64.459C64.5763 91.68 64.6777 91.7227 64.763 91.808C64.8483 91.8933 64.891 91.9947 64.891 92.112V99.568C64.891 99.6853 64.8483 99.7867 64.763 99.872C64.6777 99.9573 64.5763 100 64.459 100H63.867C63.7497 100 63.6483 99.9573 63.563 99.872C63.4777 99.7867 63.435 99.6853 63.435 99.568V97.136H61.019C59.899 97.136 59.0243 96.8213 58.395 96.192C57.7763 95.552 57.467 94.6667 57.467 93.536V92.112C57.467 91.9947 57.5097 91.8933 57.595 91.808C57.6803 91.7227 57.7817 91.68 57.899 91.68H58.491C58.6083 91.68 58.7097 91.7227 58.795 91.808C58.8803 91.8933 58.923 91.9947 58.923 92.112V93.456ZM73.6938 100C73.5764 100 73.4751 99.9573 73.3898 99.872C73.3044 99.7867 73.2618 99.6853 73.2618 99.568V94.208L68.6058 99.824C68.5204 99.9413 68.4031 100 68.2538 100H67.7098C67.5924 100 67.4911 99.9573 67.4058 99.872C67.3311 99.7867 67.2938 99.6853 67.2938 99.568V92.112C67.2938 91.9947 67.3364 91.8933 67.4218 91.808C67.5071 91.7227 67.6084 91.68 67.7258 91.68H68.3178C68.4351 91.68 68.5364 91.7227 68.6218 91.808C68.7071 91.8933 68.7498 91.9947 68.7498 92.112V97.52L73.4058 91.856C73.4591 91.792 73.5071 91.7493 73.5498 91.728C73.6031 91.696 73.6724 91.68 73.7578 91.68H74.2858C74.4031 91.68 74.5044 91.7227 74.5898 91.808C74.6751 91.8933 74.7178 91.9947 74.7178 92.112V99.568C74.7178 99.6853 74.6751 99.7867 74.5898 99.872C74.5044 99.9573 74.4031 100 74.2858 100H73.6938ZM83.3984 91.68C83.5157 91.68 83.617 91.7227 83.7024 91.808C83.7877 91.8933 83.8304 91.9947 83.8304 92.112V92.624C83.8304 92.7413 83.7877 92.8427 83.7024 92.928C83.617 93.0133 83.5157 93.056 83.3984 93.056H80.6304V99.568C80.6304 99.6853 80.5877 99.7867 80.5024 99.872C80.417 99.9573 80.3157 100 80.1984 100H79.6064C79.489 100 79.3877 99.9573 79.3024 99.872C79.217 99.7867 79.1744 99.6853 79.1744 99.568V93.056H76.4064C76.289 93.056 76.1877 93.0133 76.1024 92.928C76.017 92.8427 75.9744 92.7413 75.9744 92.624V92.112C75.9744 91.9947 76.017 91.8933 76.1024 91.808C76.1877 91.7227 76.289 91.68 76.4064 91.68H83.3984ZM88.6381 98.784C89.7048 98.784 90.4248 98.368 90.7981 97.536C90.8728 97.376 90.9475 97.264 91.0221 97.2C91.0968 97.136 91.1981 97.104 91.3261 97.104H91.8061C91.9235 97.104 92.0248 97.1467 92.1101 97.232C92.1955 97.3067 92.2381 97.3973 92.2381 97.504C92.2381 97.8667 92.0941 98.256 91.8061 98.672C91.5181 99.088 91.1021 99.44 90.5581 99.728C90.0141 100.016 89.3741 100.16 88.6381 100.16C87.8808 100.16 87.2248 100 86.6701 99.68C86.1155 99.36 85.6888 98.9227 85.3901 98.368C85.0915 97.8027 84.9261 97.1733 84.8941 96.48C84.8835 96.352 84.8781 96.1067 84.8781 95.744C84.8781 95.488 84.8835 95.3067 84.8941 95.2C84.9901 94.112 85.3581 93.2267 85.9981 92.544C86.6381 91.8613 87.5181 91.52 88.6381 91.52C89.3741 91.52 90.0088 91.664 90.5421 91.952C91.0861 92.2293 91.4968 92.576 91.7741 92.992C92.0621 93.3973 92.2168 93.7813 92.2381 94.144C92.2488 94.2613 92.2061 94.3627 92.1101 94.448C92.0248 94.5333 91.9235 94.576 91.8061 94.576H91.3261C91.1981 94.576 91.0968 94.544 91.0221 94.48C90.9475 94.416 90.8728 94.304 90.7981 94.144C90.4248 93.312 89.7048 92.896 88.6381 92.896C88.0515 92.896 87.5395 93.0933 87.1021 93.488C86.6648 93.8827 86.4141 94.48 86.3501 95.28C86.3395 95.3973 86.3341 95.5893 86.3341 95.856C86.3341 96.1013 86.3395 96.2827 86.3501 96.4C86.4248 97.2 86.6755 97.7973 87.1021 98.192C87.5395 98.5867 88.0515 98.784 88.6381 98.784ZM100.249 91.68C100.366 91.68 100.468 91.7227 100.553 91.808C100.638 91.8933 100.681 91.9947 100.681 92.112V99.568C100.681 99.6853 100.638 99.7867 100.553 99.872C100.468 99.9573 100.366 100 100.249 100H99.6571C99.5398 100 99.4385 99.9573 99.3531 99.872C99.2678 99.7867 99.2251 99.6853 99.2251 99.568V97.296H97.2571L95.3531 99.696C95.2785 99.7813 95.2038 99.856 95.1291 99.92C95.0545 99.9733 94.9585 100 94.8411 100H94.0731C93.9665 100 93.8758 99.9627 93.8011 99.888C93.7265 99.8133 93.6891 99.728 93.6891 99.632C93.6891 99.5467 93.7105 99.472 93.7531 99.408L95.6091 97.088C94.4358 96.704 93.8491 95.84 93.8491 94.496C93.8491 93.568 94.1318 92.8693 94.6971 92.4C95.2625 91.92 96.0678 91.68 97.1131 91.68H100.249ZM99.2251 95.92V93.056H97.1131C96.5158 93.056 96.0625 93.168 95.7531 93.392C95.4438 93.6053 95.2891 93.9733 95.2891 94.496C95.2891 95.0187 95.4385 95.3867 95.7371 95.6C96.0465 95.8133 96.5051 95.92 97.1131 95.92H99.2251ZM113.973 91.68C114.091 91.68 114.192 91.7227 114.277 91.808C114.363 91.8933 114.405 91.9947 114.405 92.112V99.568C114.405 99.6853 114.363 99.7867 114.277 99.872C114.192 99.9573 114.091 100 113.973 100H113.381C113.264 100 113.163 99.9573 113.077 99.872C112.992 99.7867 112.949 99.6853 112.949 99.568V93.056H108.437V99.568C108.437 99.6853 108.395 99.7867 108.309 99.872C108.224 99.9573 108.123 100 108.005 100H107.413C107.296 100 107.195 99.9573 107.109 99.872C107.024 99.7867 106.981 99.6853 106.981 99.568V92.112C106.981 91.9947 107.024 91.8933 107.109 91.808C107.195 91.7227 107.296 91.68 107.413 91.68H113.973ZM124.009 95.088C124.031 95.3227 124.041 95.5787 124.041 95.856C124.041 96.112 124.031 96.3573 124.009 96.592C123.913 97.68 123.535 98.5493 122.873 99.2C122.223 99.84 121.337 100.16 120.217 100.16C119.097 100.16 118.207 99.84 117.545 99.2C116.895 98.5493 116.521 97.68 116.425 96.592C116.415 96.4747 116.409 96.2293 116.409 95.856C116.409 95.4613 116.415 95.2053 116.425 95.088C116.511 94 116.884 93.136 117.545 92.496C118.207 91.8453 119.097 91.52 120.217 91.52C121.337 91.52 122.228 91.8453 122.889 92.496C123.551 93.136 123.924 94 124.009 95.088ZM122.553 95.168C122.489 94.4853 122.26 93.936 121.865 93.52C121.481 93.104 120.932 92.896 120.217 92.896C119.503 92.896 118.948 93.104 118.553 93.52C118.169 93.936 117.945 94.4853 117.881 95.168C117.871 95.296 117.865 95.5253 117.865 95.856C117.865 96.176 117.871 96.3947 117.881 96.512C117.945 97.1947 118.169 97.744 118.553 98.16C118.948 98.576 119.503 98.784 120.217 98.784C120.932 98.784 121.481 98.576 121.865 98.16C122.26 97.744 122.489 97.1947 122.553 96.512C122.575 96.2773 122.585 96.0587 122.585 95.856C122.585 95.6533 122.575 95.424 122.553 95.168ZM26.664 111.68C26.7813 111.68 26.8827 111.723 26.968 111.808C27.0533 111.893 27.096 111.995 27.096 112.112V112.624C27.096 112.741 27.0533 112.843 26.968 112.928C26.8827 113.013 26.7813 113.056 26.664 113.056H23.896V119.568C23.896 119.685 23.8533 119.787 23.768 119.872C23.6827 119.957 23.5813 120 23.464 120H22.872C22.7547 120 22.6533 119.957 22.568 119.872C22.4827 119.787 22.44 119.685 22.44 119.568V113.056H19.672C19.5547 113.056 19.4533 113.013 19.368 112.928C19.2827 112.843 19.24 112.741 19.24 112.624V112.112C19.24 111.995 19.2827 111.893 19.368 111.808C19.4533 111.723 19.5547 111.68 19.672 111.68H26.664ZM29.9998 122.608C29.9998 122.725 29.9571 122.827 29.8718 122.912C29.7864 122.997 29.6851 123.04 29.5678 123.04H28.9758C28.8584 123.04 28.7571 122.997 28.6718 122.912C28.5864 122.827 28.5438 122.725 28.5438 122.608V112.112C28.5438 111.995 28.5864 111.893 28.6718 111.808C28.7571 111.723 28.8584 111.68 28.9758 111.68H29.5678C29.6851 111.68 29.7864 111.723 29.8718 111.808C29.9571 111.893 29.9998 111.995 29.9998 112.112V112.608C30.5438 111.883 31.3704 111.52 32.4798 111.52C33.1411 111.52 33.7384 111.675 34.2718 111.984C34.8158 112.293 35.2478 112.736 35.5677 113.312C35.8984 113.888 36.0798 114.56 36.1118 115.328C36.1224 115.435 36.1278 115.605 36.1278 115.84C36.1278 116.085 36.1224 116.261 36.1118 116.368C36.0798 117.136 35.8984 117.808 35.5677 118.384C35.2478 118.949 34.8211 119.387 34.2878 119.696C33.7544 120.005 33.1518 120.16 32.4798 120.16C31.8824 120.16 31.3758 120.059 30.9598 119.856C30.5544 119.643 30.2344 119.381 29.9998 119.072V122.608ZM29.9998 116.416C30.0318 117.163 30.2558 117.744 30.6718 118.16C31.0878 118.576 31.6371 118.784 32.3198 118.784C33.0131 118.784 33.5624 118.56 33.9678 118.112C34.3838 117.664 34.6131 117.056 34.6558 116.288C34.6664 116.181 34.6718 116.032 34.6718 115.84C34.6718 115.648 34.6664 115.499 34.6558 115.392C34.6131 114.624 34.3838 114.016 33.9678 113.568C33.5624 113.12 33.0131 112.896 32.3198 112.896C31.6584 112.896 31.1144 113.104 30.6878 113.52C30.2611 113.925 30.0318 114.469 29.9998 115.152L29.9838 115.776L29.9998 116.416ZM41.3863 111.52C42.5276 111.52 43.4289 111.883 44.0903 112.608C44.7516 113.333 45.0823 114.32 45.0823 115.568V116C45.0823 116.117 45.0396 116.219 44.9543 116.304C44.8689 116.389 44.7676 116.432 44.6503 116.432H39.1463V116.528C39.1676 117.232 39.3809 117.787 39.7863 118.192C40.2023 118.587 40.7356 118.784 41.3863 118.784C41.9196 118.784 42.3303 118.715 42.6183 118.576C42.9169 118.437 43.1836 118.24 43.4183 117.984C43.5036 117.899 43.5783 117.84 43.6423 117.808C43.7169 117.776 43.8129 117.76 43.9303 117.76H44.4103C44.5383 117.76 44.6449 117.803 44.7303 117.888C44.8156 117.973 44.8529 118.075 44.8423 118.192C44.7996 118.48 44.6396 118.779 44.3623 119.088C44.0956 119.387 43.7063 119.643 43.1943 119.856C42.6929 120.059 42.0903 120.16 41.3863 120.16C40.7036 120.16 40.0956 120.005 39.5623 119.696C39.0289 119.376 38.6023 118.939 38.2823 118.384C37.9729 117.829 37.7863 117.205 37.7223 116.512C37.7009 116.192 37.6903 115.947 37.6903 115.776C37.6903 115.605 37.7009 115.36 37.7223 115.04C37.7863 114.379 37.9729 113.781 38.2823 113.248C38.6023 112.715 39.0236 112.293 39.5463 111.984C40.0796 111.675 40.6929 111.52 41.3863 111.52ZM43.6423 115.088V115.04C43.6423 114.389 43.4343 113.872 43.0183 113.488C42.6129 113.093 42.0689 112.896 41.3863 112.896C40.7676 112.896 40.2396 113.093 39.8023 113.488C39.3756 113.883 39.1569 114.4 39.1463 115.04V115.088H43.6423ZM49.3805 112.576C49.6578 112.512 49.9512 112.48 50.2605 112.48C50.9752 112.48 51.6098 112.635 52.1645 112.944C52.7192 113.243 53.1512 113.685 53.4605 114.272C53.7698 114.848 53.9245 115.531 53.9245 116.32C53.9245 117.067 53.7645 117.733 53.4445 118.32C53.1352 118.896 52.7032 119.349 52.1485 119.68C51.5938 120 50.9645 120.16 50.2605 120.16C49.5565 120.16 48.9272 120 48.3725 119.68C47.8178 119.349 47.3805 118.896 47.0605 118.32C46.7512 117.733 46.5965 117.067 46.5965 116.32C46.5965 115.371 46.7245 114.544 46.9805 113.84C47.2472 113.125 47.5618 112.544 47.9245 112.096C48.2872 111.637 48.7352 111.152 49.2685 110.64C49.7058 110.213 50.0205 109.867 50.2125 109.6C50.4152 109.333 50.5165 109.051 50.5165 108.752C50.5165 108.635 50.5592 108.533 50.6445 108.448C50.7298 108.363 50.8312 108.32 50.9485 108.32H51.5405C51.6578 108.32 51.7592 108.363 51.8445 108.448C51.9298 108.533 51.9725 108.635 51.9725 108.752C51.9725 109.221 51.8445 109.648 51.5885 110.032C51.3432 110.405 50.9538 110.869 50.4205 111.424C50.0365 111.808 49.6898 112.192 49.3805 112.576ZM48.0525 116.32C48.0525 117.077 48.2392 117.68 48.6125 118.128C48.9858 118.565 49.5352 118.784 50.2605 118.784C50.9858 118.784 51.5352 118.565 51.9085 118.128C52.2818 117.68 52.4685 117.077 52.4685 116.32C52.4685 115.563 52.2818 114.965 51.9085 114.528C51.5352 114.08 50.9858 113.856 50.2605 113.856C49.5352 113.856 48.9858 114.08 48.6125 114.528C48.2392 114.965 48.0525 115.563 48.0525 116.32ZM63.0719 115.088C63.0932 115.323 63.1039 115.579 63.1039 115.856C63.1039 116.112 63.0932 116.357 63.0719 116.592C62.9759 117.68 62.5972 118.549 61.9359 119.2C61.2852 119.84 60.3999 120.16 59.2799 120.16C58.1599 120.16 57.2692 119.84 56.6079 119.2C55.9572 118.549 55.5839 117.68 55.4879 116.592C55.4772 116.475 55.4719 116.229 55.4719 115.856C55.4719 115.461 55.4772 115.205 55.4879 115.088C55.5732 114 55.9465 113.136 56.6079 112.496C57.2692 111.845 58.1599 111.52 59.2799 111.52C60.3999 111.52 61.2905 111.845 61.9519 112.496C62.6132 113.136 62.9865 114 63.0719 115.088ZM61.6159 115.168C61.5519 114.485 61.3225 113.936 60.9279 113.52C60.5439 113.104 59.9945 112.896 59.2799 112.896C58.5652 112.896 58.0105 113.104 57.6159 113.52C57.2319 113.936 57.0079 114.485 56.9439 115.168C56.9332 115.296 56.9279 115.525 56.9279 115.856C56.9279 116.176 56.9332 116.395 56.9439 116.512C57.0079 117.195 57.2319 117.744 57.6159 118.16C58.0105 118.576 58.5652 118.784 59.2799 118.784C59.9945 118.784 60.5439 118.576 60.9279 118.16C61.3225 117.744 61.5519 117.195 61.6159 116.512C61.6372 116.277 61.6479 116.059 61.6479 115.856C61.6479 115.653 61.6372 115.424 61.6159 115.168ZM65.1063 112C65.1063 111.915 65.1383 111.84 65.2023 111.776C65.2663 111.712 65.3409 111.68 65.4263 111.68H69.3943C70.3009 111.68 71.0103 111.883 71.5223 112.288C72.0449 112.693 72.3063 113.232 72.3063 113.904C72.3063 114.341 72.2209 114.693 72.0503 114.96C71.8796 115.216 71.6449 115.456 71.3463 115.68C71.7623 115.915 72.0556 116.192 72.2263 116.512C72.3969 116.821 72.4823 117.195 72.4823 117.632C72.4823 118.379 72.2209 118.96 71.6983 119.376C71.1756 119.792 70.4663 120 69.5703 120H65.4263C65.3409 120 65.2663 119.968 65.2023 119.904C65.1383 119.84 65.1063 119.765 65.1063 119.68V112ZM66.5623 115.104H69.1863C69.7409 115.104 70.1569 115.029 70.4343 114.88C70.7116 114.72 70.8503 114.448 70.8503 114.064C70.8503 113.68 70.7063 113.419 70.4183 113.28C70.1303 113.141 69.6929 113.072 69.1063 113.072H66.5623V115.104ZM66.5623 118.608H69.2663C70.4396 118.608 71.0263 118.251 71.0263 117.536C71.0263 117.152 70.8823 116.885 70.5943 116.736C70.3063 116.576 69.8796 116.496 69.3143 116.496H66.5623V118.608ZM79.4565 114.736V114.528C79.4565 114.005 79.2805 113.605 78.9285 113.328C78.5872 113.04 78.1392 112.896 77.5845 112.896C77.1578 112.896 76.8218 112.971 76.5765 113.12C76.3418 113.259 76.1178 113.472 75.9045 113.76C75.8405 113.845 75.7712 113.904 75.6965 113.936C75.6218 113.968 75.5205 113.984 75.3925 113.984H74.9125C74.7952 113.984 74.6885 113.941 74.5925 113.856C74.5072 113.771 74.4698 113.669 74.4805 113.552C74.5125 113.232 74.6672 112.917 74.9445 112.608C75.2325 112.288 75.6112 112.027 76.0805 111.824C76.5498 111.621 77.0512 111.52 77.5845 111.52C78.5765 111.52 79.3765 111.797 79.9845 112.352C80.6032 112.907 80.9125 113.685 80.9125 114.688V119.568C80.9125 119.685 80.8698 119.787 80.7845 119.872C80.6992 119.957 80.5978 120 80.4805 120H79.8885C79.7712 120 79.6698 119.957 79.5845 119.872C79.4992 119.787 79.4565 119.685 79.4565 119.568V118.912C79.2858 119.296 78.9232 119.6 78.3685 119.824C77.8138 120.048 77.2592 120.16 76.7045 120.16C76.1605 120.16 75.6752 120.064 75.2485 119.872C74.8218 119.669 74.4912 119.397 74.2565 119.056C74.0325 118.715 73.9205 118.331 73.9205 117.904C73.9205 117.104 74.2192 116.48 74.8165 116.032C75.4138 115.573 76.2085 115.264 77.2005 115.104L79.4565 114.736ZM79.4565 116.016L77.5685 116.32C76.8752 116.427 76.3365 116.603 75.9525 116.848C75.5685 117.083 75.3765 117.381 75.3765 117.744C75.3765 118.011 75.4992 118.251 75.7445 118.464C75.9898 118.677 76.3632 118.784 76.8645 118.784C77.6325 118.784 78.2565 118.565 78.7365 118.128C79.2165 117.691 79.4565 117.12 79.4565 116.416V116.016ZM90.2389 111.68C90.3562 111.68 90.4575 111.723 90.5429 111.808C90.6282 111.893 90.6709 111.995 90.6709 112.112V119.568C90.6709 119.685 90.6282 119.787 90.5429 119.872C90.4575 119.957 90.3562 120 90.2389 120H89.6469C89.5295 120 89.4282 119.957 89.3429 119.872C89.2575 119.787 89.2149 119.685 89.2149 119.568V116.448H84.7029V119.568C84.7029 119.685 84.6602 119.787 84.5749 119.872C84.4895 119.957 84.3882 120 84.2709 120H83.6789C83.5615 120 83.4602 119.963 83.3749 119.888C83.2895 119.803 83.2469 119.696 83.2469 119.568V112.112C83.2469 111.995 83.2895 111.893 83.3749 111.808C83.4602 111.723 83.5615 111.68 83.6789 111.68H84.2709C84.3882 111.68 84.4895 111.723 84.5749 111.808C84.6602 111.893 84.7029 111.995 84.7029 112.112V115.072H89.2149V112.112C89.2149 111.995 89.2575 111.893 89.3429 111.808C89.4282 111.723 89.5295 111.68 89.6469 111.68H90.2389ZM99.475 120C99.3577 120 99.2563 119.957 99.171 119.872C99.0857 119.787 99.043 119.685 99.043 119.568V114.208L94.387 119.824C94.3017 119.941 94.1843 120 94.035 120H93.491C93.3737 120 93.2723 119.957 93.187 119.872C93.1123 119.787 93.075 119.685 93.075 119.568V112.112C93.075 111.995 93.1177 111.893 93.203 111.808C93.2883 111.723 93.3897 111.68 93.507 111.68H94.099C94.2163 111.68 94.3177 111.723 94.403 111.808C94.4883 111.893 94.531 111.995 94.531 112.112V117.52L99.187 111.856C99.2403 111.792 99.2883 111.749 99.331 111.728C99.3843 111.696 99.4537 111.68 99.539 111.68H100.067C100.184 111.68 100.286 111.723 100.371 111.808C100.456 111.893 100.499 111.995 100.499 112.112V119.568C100.499 119.685 100.456 119.787 100.371 119.872C100.286 119.957 100.184 120 100.067 120H99.475ZM108.999 111.68C109.116 111.68 109.218 111.723 109.303 111.808C109.388 111.893 109.431 111.995 109.431 112.112V119.568C109.431 119.685 109.388 119.787 109.303 119.872C109.218 119.957 109.116 120 108.999 120H108.407C108.29 120 108.188 119.957 108.103 119.872C108.018 119.787 107.975 119.685 107.975 119.568V117.296H106.007L104.103 119.696C104.028 119.781 103.954 119.856 103.879 119.92C103.804 119.973 103.708 120 103.591 120H102.823C102.716 120 102.626 119.963 102.551 119.888C102.476 119.813 102.439 119.728 102.439 119.632C102.439 119.547 102.46 119.472 102.503 119.408L104.359 117.088C103.186 116.704 102.599 115.84 102.599 114.496C102.599 113.568 102.882 112.869 103.447 112.4C104.012 111.92 104.818 111.68 105.863 111.68H108.999ZM107.975 115.92V113.056H105.863C105.266 113.056 104.812 113.168 104.503 113.392C104.194 113.605 104.039 113.973 104.039 114.496C104.039 115.019 104.188 115.387 104.487 115.6C104.796 115.813 105.255 115.92 105.863 115.92H107.975ZM118.465 112C118.508 111.915 118.577 111.84 118.673 111.776C118.769 111.712 118.897 111.68 119.057 111.68H119.585C119.702 111.68 119.804 111.723 119.889 111.808C119.974 111.893 120.017 111.995 120.017 112.112V119.568C120.017 119.685 119.974 119.787 119.889 119.872C119.804 119.957 119.702 120 119.585 120H118.993C118.876 120 118.774 119.957 118.689 119.872C118.604 119.787 118.561 119.685 118.561 119.568V114.752L116.673 118.24C116.545 118.507 116.358 118.64 116.113 118.64H115.729C115.494 118.64 115.308 118.507 115.169 118.24L113.281 114.752V119.568C113.281 119.685 113.238 119.787 113.153 119.872C113.068 119.957 112.966 120 112.849 120H112.257C112.14 120 112.038 119.957 111.953 119.872C111.868 119.787 111.825 119.685 111.825 119.568V112.112C111.825 111.995 111.868 111.893 111.953 111.808C112.038 111.723 112.14 111.68 112.257 111.68H112.785C112.945 111.68 113.073 111.712 113.169 111.776C113.265 111.84 113.334 111.915 113.377 112L115.921 116.8L118.465 112ZM24.984 131.952C25.1867 131.771 25.3947 131.68 25.608 131.68H26.376C26.4827 131.68 26.5733 131.717 26.648 131.792C26.7227 131.867 26.76 131.957 26.76 132.064C26.76 132.181 26.7013 132.288 26.584 132.384L22.712 135.776L26.968 139.312C27.0747 139.397 27.128 139.499 27.128 139.616C27.128 139.723 27.0907 139.813 27.016 139.888C26.9413 139.963 26.8507 140 26.744 140H25.912C25.688 140 25.4693 139.909 25.256 139.728L21.656 136.736V139.568C21.656 139.685 21.6133 139.787 21.528 139.872C21.4427 139.957 21.3413 140 21.224 140H20.632C20.5147 140 20.4133 139.957 20.328 139.872C20.2427 139.787 20.2 139.685 20.2 139.568V132.112C20.2 131.995 20.2427 131.893 20.328 131.808C20.4133 131.723 20.5147 131.68 20.632 131.68H21.224C21.3413 131.68 21.4427 131.723 21.528 131.808C21.6133 131.893 21.656 131.995 21.656 132.112V134.88L24.984 131.952ZM39.4576 131.68C39.575 131.68 39.6763 131.723 39.7616 131.808C39.847 131.893 39.8896 131.995 39.8896 132.112V139.568C39.8896 139.685 39.847 139.787 39.7616 139.872C39.6763 139.957 39.575 140 39.4576 140H38.8656C38.7483 140 38.647 139.957 38.5616 139.872C38.4763 139.787 38.4336 139.685 38.4336 139.568V133.056H33.9216V139.568C33.9216 139.685 33.879 139.787 33.7936 139.872C33.7083 139.957 33.607 140 33.4896 140H32.8976C32.7803 140 32.679 139.957 32.5936 139.872C32.5083 139.787 32.4656 139.685 32.4656 139.568V132.112C32.4656 131.995 32.5083 131.893 32.5936 131.808C32.679 131.723 32.7803 131.68 32.8976 131.68H39.4576ZM43.7498 142.608C43.7498 142.725 43.7071 142.827 43.6218 142.912C43.5364 142.997 43.4351 143.04 43.3178 143.04H42.7258C42.6084 143.04 42.5071 142.997 42.4218 142.912C42.3364 142.827 42.2938 142.725 42.2938 142.608V132.112C42.2938 131.995 42.3364 131.893 42.4218 131.808C42.5071 131.723 42.6084 131.68 42.7258 131.68H43.3178C43.4351 131.68 43.5364 131.723 43.6218 131.808C43.7071 131.893 43.7498 131.995 43.7498 132.112V132.608C44.2938 131.883 45.1204 131.52 46.2298 131.52C46.8911 131.52 47.4884 131.675 48.0218 131.984C48.5658 132.293 48.9978 132.736 49.3177 133.312C49.6484 133.888 49.8298 134.56 49.8618 135.328C49.8724 135.435 49.8778 135.605 49.8778 135.84C49.8778 136.085 49.8724 136.261 49.8618 136.368C49.8298 137.136 49.6484 137.808 49.3177 138.384C48.9978 138.949 48.5711 139.387 48.0378 139.696C47.5044 140.005 46.9018 140.16 46.2298 140.16C45.6324 140.16 45.1258 140.059 44.7098 139.856C44.3044 139.643 43.9844 139.381 43.7498 139.072V142.608ZM43.7498 136.416C43.7818 137.163 44.0058 137.744 44.4218 138.16C44.8378 138.576 45.3871 138.784 46.0698 138.784C46.7631 138.784 47.3124 138.56 47.7178 138.112C48.1338 137.664 48.3631 137.056 48.4058 136.288C48.4164 136.181 48.4218 136.032 48.4218 135.84C48.4218 135.648 48.4164 135.499 48.4058 135.392C48.3631 134.624 48.1338 134.016 47.7178 133.568C47.3124 133.12 46.7631 132.896 46.0698 132.896C45.4084 132.896 44.8644 133.104 44.4378 133.52C44.0111 133.925 43.7818 134.469 43.7498 135.152L43.7338 135.776L43.7498 136.416ZM59.0563 135.088C59.0776 135.323 59.0883 135.579 59.0883 135.856C59.0883 136.112 59.0776 136.357 59.0563 136.592C58.9603 137.68 58.5816 138.549 57.9203 139.2C57.2696 139.84 56.3843 140.16 55.2643 140.16C54.1443 140.16 53.2536 139.84 52.5923 139.2C51.9416 138.549 51.5683 137.68 51.4723 136.592C51.4616 136.475 51.4563 136.229 51.4563 135.856C51.4563 135.461 51.4616 135.205 51.4723 135.088C51.5576 134 51.9309 133.136 52.5923 132.496C53.2536 131.845 54.1443 131.52 55.2643 131.52C56.3843 131.52 57.2749 131.845 57.9363 132.496C58.5976 133.136 58.9709 134 59.0563 135.088ZM57.6003 135.168C57.5363 134.485 57.3069 133.936 56.9123 133.52C56.5283 133.104 55.9789 132.896 55.2643 132.896C54.5496 132.896 53.9949 133.104 53.6003 133.52C53.2163 133.936 52.9923 134.485 52.9283 135.168C52.9176 135.296 52.9123 135.525 52.9123 135.856C52.9123 136.176 52.9176 136.395 52.9283 136.512C52.9923 137.195 53.2163 137.744 53.6003 138.16C53.9949 138.576 54.5496 138.784 55.2643 138.784C55.9789 138.784 56.5283 138.576 56.9123 138.16C57.3069 137.744 57.5363 137.195 57.6003 136.512C57.6216 136.277 57.6323 136.059 57.6323 135.856C57.6323 135.653 57.6216 135.424 57.6003 135.168ZM61.0906 132C61.0906 131.915 61.1226 131.84 61.1866 131.776C61.2506 131.712 61.3253 131.68 61.4106 131.68H65.3786C66.2853 131.68 66.9946 131.883 67.5066 132.288C68.0293 132.693 68.2906 133.232 68.2906 133.904C68.2906 134.341 68.2053 134.693 68.0346 134.96C67.864 135.216 67.6293 135.456 67.3306 135.68C67.7466 135.915 68.04 136.192 68.2106 136.512C68.3813 136.821 68.4666 137.195 68.4666 137.632C68.4666 138.379 68.2053 138.96 67.6826 139.376C67.16 139.792 66.4506 140 65.5546 140H61.4106C61.3253 140 61.2506 139.968 61.1866 139.904C61.1226 139.84 61.0906 139.765 61.0906 139.68V132ZM62.5466 135.104H65.1706C65.7253 135.104 66.1413 135.029 66.4186 134.88C66.696 134.72 66.8346 134.448 66.8346 134.064C66.8346 133.68 66.6906 133.419 66.4026 133.28C66.1146 133.141 65.6773 133.072 65.0906 133.072H62.5466V135.104ZM62.5466 138.608H65.2506C66.424 138.608 67.0106 138.251 67.0106 137.536C67.0106 137.152 66.8666 136.885 66.5786 136.736C66.2906 136.576 65.864 136.496 65.2986 136.496H62.5466V138.608ZM77.6969 135.088C77.7182 135.323 77.7289 135.579 77.7289 135.856C77.7289 136.112 77.7182 136.357 77.6969 136.592C77.6009 137.68 77.2222 138.549 76.5609 139.2C75.9102 139.84 75.0249 140.16 73.9049 140.16C72.7849 140.16 71.8942 139.84 71.2329 139.2C70.5822 138.549 70.2089 137.68 70.1129 136.592C70.1022 136.475 70.0969 136.229 70.0969 135.856C70.0969 135.461 70.1022 135.205 70.1129 135.088C70.1982 134 70.5715 133.136 71.2329 132.496C71.8942 131.845 72.7849 131.52 73.9049 131.52C75.0249 131.52 75.9155 131.845 76.5769 132.496C77.2382 133.136 77.6115 134 77.6969 135.088ZM76.2409 135.168C76.1769 134.485 75.9475 133.936 75.5529 133.52C75.1689 133.104 74.6195 132.896 73.9049 132.896C73.1902 132.896 72.6355 133.104 72.2409 133.52C71.8569 133.936 71.6329 134.485 71.5689 135.168C71.5582 135.296 71.5529 135.525 71.5529 135.856C71.5529 136.176 71.5582 136.395 71.5689 136.512C71.6329 137.195 71.8569 137.744 72.2409 138.16C72.6355 138.576 73.1902 138.784 73.9049 138.784C74.6195 138.784 75.1689 138.576 75.5529 138.16C75.9475 137.744 76.1769 137.195 76.2409 136.512C76.2622 136.277 76.2729 136.059 76.2729 135.856C76.2729 135.653 76.2622 135.424 76.2409 135.168ZM82.2504 138.784C83.5197 138.784 84.1544 138.405 84.1544 137.648C84.1544 137.264 83.989 136.981 83.6584 136.8C83.3384 136.608 82.9117 136.512 82.3784 136.512H81.1304C81.013 136.512 80.9117 136.469 80.8264 136.384C80.741 136.299 80.6984 136.197 80.6984 136.08V135.568C80.6984 135.451 80.741 135.349 80.8264 135.264C80.9117 135.179 81.013 135.136 81.1304 135.136H82.3944C82.8637 135.136 83.2477 135.04 83.5464 134.848C83.8557 134.656 84.0104 134.379 84.0104 134.016C84.0104 133.643 83.845 133.365 83.5144 133.184C83.1944 132.992 82.773 132.896 82.2504 132.896C81.7704 132.896 81.397 132.971 81.1304 133.12C80.8637 133.259 80.6504 133.493 80.4904 133.824C80.3517 134.112 80.1757 134.256 79.9624 134.256H79.4824C79.365 134.256 79.2584 134.213 79.1624 134.128C79.077 134.043 79.0397 133.941 79.0504 133.824C79.0717 133.419 79.205 133.04 79.4504 132.688C79.7064 132.336 80.0744 132.053 80.5544 131.84C81.0344 131.627 81.5997 131.52 82.2504 131.52C83.189 131.52 83.957 131.733 84.5544 132.16C85.1624 132.587 85.4664 133.205 85.4664 134.016C85.4664 134.731 85.2157 135.312 84.7144 135.76C85.3117 136.197 85.6104 136.827 85.6104 137.648C85.6104 138.533 85.301 139.173 84.6824 139.568C84.0744 139.963 83.2637 140.16 82.2504 140.16C81.1944 140.16 80.3784 139.957 79.8024 139.552C79.2264 139.136 78.9224 138.624 78.8904 138.016C78.8797 137.899 78.917 137.797 79.0024 137.712C79.0984 137.627 79.205 137.584 79.3224 137.584H79.8024C79.9197 137.584 80.0157 137.616 80.0904 137.68C80.165 137.733 80.245 137.845 80.3304 138.016C80.4904 138.325 80.725 138.533 81.0344 138.64C81.3437 138.736 81.749 138.784 82.2504 138.784ZM86.9495 132.176C86.9388 132.144 86.9335 132.107 86.9335 132.064C86.9335 131.957 86.9708 131.867 87.0455 131.792C87.1202 131.717 87.2108 131.68 87.3175 131.68H87.9735C88.1655 131.68 88.3202 131.808 88.4375 132.064L91.1895 137.856L93.9255 132.064C94.0428 131.808 94.1975 131.68 94.3895 131.68H95.0455C95.1522 131.68 95.2428 131.717 95.3175 131.792C95.3922 131.867 95.4295 131.957 95.4295 132.064C95.4295 132.107 95.4242 132.144 95.4135 132.176L92.0375 139.36C91.9522 139.531 91.8348 139.787 91.6855 140.128C91.3975 140.789 91.1415 141.312 90.9175 141.696C90.7042 142.08 90.4322 142.4 90.1015 142.656C89.7815 142.912 89.3922 143.04 88.9335 143.04H88.2775C88.1602 143.04 88.0588 142.997 87.9735 142.912C87.8882 142.827 87.8455 142.725 87.8455 142.608V142.096C87.8455 141.979 87.8882 141.877 87.9735 141.792C88.0588 141.707 88.1602 141.664 88.2775 141.664H88.6935C88.9282 141.664 89.1255 141.595 89.2855 141.456C89.4562 141.328 89.6002 141.157 89.7175 140.944C89.8348 140.731 89.9895 140.416 90.1815 140L90.4055 139.504L86.9495 132.176ZM103.302 132.576C103.58 132.512 103.873 132.48 104.182 132.48C104.897 132.48 105.532 132.635 106.086 132.944C106.641 133.243 107.073 133.685 107.382 134.272C107.692 134.848 107.846 135.531 107.846 136.32C107.846 137.067 107.686 137.733 107.366 138.32C107.057 138.896 106.625 139.349 106.07 139.68C105.516 140 104.886 140.16 104.182 140.16C103.478 140.16 102.849 140 102.294 139.68C101.74 139.349 101.302 138.896 100.982 138.32C100.673 137.733 100.518 137.067 100.518 136.32C100.518 135.371 100.646 134.544 100.902 133.84C101.169 133.125 101.484 132.544 101.846 132.096C102.209 131.637 102.657 131.152 103.19 130.64C103.628 130.213 103.942 129.867 104.134 129.6C104.337 129.333 104.438 129.051 104.438 128.752C104.438 128.635 104.481 128.533 104.566 128.448C104.652 128.363 104.753 128.32 104.87 128.32H105.462C105.58 128.32 105.681 128.363 105.766 128.448C105.852 128.533 105.894 128.635 105.894 128.752C105.894 129.221 105.766 129.648 105.51 130.032C105.265 130.405 104.876 130.869 104.342 131.424C103.958 131.808 103.612 132.192 103.302 132.576ZM101.974 136.32C101.974 137.077 102.161 137.68 102.534 138.128C102.908 138.565 103.457 138.784 104.182 138.784C104.908 138.784 105.457 138.565 105.83 138.128C106.204 137.68 106.39 137.077 106.39 136.32C106.39 135.563 106.204 134.965 105.83 134.528C105.457 134.08 104.908 133.856 104.182 133.856C103.457 133.856 102.908 134.08 102.534 134.528C102.161 134.965 101.974 135.563 101.974 136.32ZM114.738 134.736V134.528C114.738 134.005 114.562 133.605 114.21 133.328C113.868 133.04 113.42 132.896 112.866 132.896C112.439 132.896 112.103 132.971 111.858 133.12C111.623 133.259 111.399 133.472 111.186 133.76C111.122 133.845 111.052 133.904 110.978 133.936C110.903 133.968 110.802 133.984 110.674 133.984H110.194C110.076 133.984 109.97 133.941 109.874 133.856C109.788 133.771 109.751 133.669 109.762 133.552C109.794 133.232 109.948 132.917 110.226 132.608C110.514 132.288 110.892 132.027 111.362 131.824C111.831 131.621 112.332 131.52 112.866 131.52C113.858 131.52 114.658 131.797 115.266 132.352C115.884 132.907 116.194 133.685 116.194 134.688V139.568C116.194 139.685 116.151 139.787 116.066 139.872C115.98 139.957 115.879 140 115.762 140H115.17C115.052 140 114.951 139.957 114.866 139.872C114.78 139.787 114.738 139.685 114.738 139.568V138.912C114.567 139.296 114.204 139.6 113.65 139.824C113.095 140.048 112.54 140.16 111.986 140.16C111.442 140.16 110.956 140.064 110.53 139.872C110.103 139.669 109.772 139.397 109.538 139.056C109.314 138.715 109.202 138.331 109.202 137.904C109.202 137.104 109.5 136.48 110.098 136.032C110.695 135.573 111.49 135.264 112.482 135.104L114.738 134.736ZM114.738 136.016L112.85 136.32C112.156 136.427 111.618 136.603 111.234 136.848C110.85 137.083 110.658 137.381 110.658 137.744C110.658 138.011 110.78 138.251 111.026 138.464C111.271 138.677 111.644 138.784 112.146 138.784C112.914 138.784 113.538 138.565 114.018 138.128C114.498 137.691 114.738 137.12 114.738 136.416V136.016ZM124.5 131.68C124.617 131.68 124.718 131.723 124.804 131.808C124.889 131.893 124.932 131.995 124.932 132.112V132.624C124.932 132.741 124.889 132.843 124.804 132.928C124.718 133.013 124.617 133.056 124.5 133.056H119.844V139.568C119.844 139.685 119.801 139.787 119.716 139.872C119.63 139.957 119.529 140 119.412 140H118.82C118.702 140 118.601 139.957 118.516 139.872C118.43 139.787 118.388 139.685 118.388 139.568V132.112C118.388 131.995 118.43 131.893 118.516 131.808C118.601 131.723 118.702 131.68 118.82 131.68H124.5ZM131.269 134.736V134.528C131.269 134.005 131.093 133.605 130.741 133.328C130.4 133.04 129.952 132.896 129.397 132.896C128.97 132.896 128.634 132.971 128.389 133.12C128.154 133.259 127.93 133.472 127.717 133.76C127.653 133.845 127.584 133.904 127.509 133.936C127.434 133.968 127.333 133.984 127.205 133.984H126.725C126.608 133.984 126.501 133.941 126.405 133.856C126.32 133.771 126.282 133.669 126.293 133.552C126.325 133.232 126.48 132.917 126.757 132.608C127.045 132.288 127.424 132.027 127.893 131.824C128.362 131.621 128.864 131.52 129.397 131.52C130.389 131.52 131.189 131.797 131.797 132.352C132.416 132.907 132.725 133.685 132.725 134.688V139.568C132.725 139.685 132.682 139.787 132.597 139.872C132.512 139.957 132.41 140 132.293 140H131.701C131.584 140 131.482 139.957 131.397 139.872C131.312 139.787 131.269 139.685 131.269 139.568V138.912C131.098 139.296 130.736 139.6 130.181 139.824C129.626 140.048 129.072 140.16 128.517 140.16C127.973 140.16 127.488 140.064 127.061 139.872C126.634 139.669 126.304 139.397 126.069 139.056C125.845 138.715 125.733 138.331 125.733 137.904C125.733 137.104 126.032 136.48 126.629 136.032C127.226 135.573 128.021 135.264 129.013 135.104L131.269 134.736ZM131.269 136.016L129.381 136.32C128.688 136.427 128.149 136.603 127.765 136.848C127.381 137.083 127.189 137.381 127.189 137.744C127.189 138.011 127.312 138.251 127.557 138.464C127.802 138.677 128.176 138.784 128.677 138.784C129.445 138.784 130.069 138.565 130.549 138.128C131.029 137.691 131.269 137.12 131.269 136.416V136.016ZM138.118 134.576V132.112C138.118 131.995 138.16 131.893 138.246 131.808C138.331 131.723 138.432 131.68 138.55 131.68H139.142C139.259 131.68 139.36 131.723 139.446 131.808C139.531 131.893 139.574 131.995 139.574 132.112V134.576L141.638 131.984C141.712 131.899 141.787 131.829 141.862 131.776C141.936 131.712 142.032 131.68 142.15 131.68H142.918C143.024 131.68 143.115 131.717 143.19 131.792C143.264 131.867 143.302 131.952 143.302 132.048C143.302 132.133 143.28 132.208 143.238 132.272L140.47 135.744L143.398 139.408C143.44 139.472 143.462 139.547 143.462 139.632C143.462 139.728 143.424 139.813 143.35 139.888C143.275 139.963 143.184 140 143.078 140H142.342C142.224 140 142.128 139.973 142.054 139.92C141.979 139.856 141.904 139.781 141.83 139.696L139.574 136.864V139.568C139.574 139.685 139.531 139.787 139.446 139.872C139.36 139.957 139.259 140 139.142 140H138.55C138.432 140 138.331 139.957 138.246 139.872C138.16 139.787 138.118 139.685 138.118 139.568V136.864L135.862 139.696C135.787 139.781 135.712 139.856 135.638 139.92C135.563 139.973 135.467 140 135.35 140H134.614C134.507 140 134.416 139.963 134.342 139.888C134.267 139.813 134.23 139.728 134.23 139.632C134.23 139.547 134.251 139.472 134.294 139.408L137.222 135.744L134.454 132.272C134.411 132.208 134.39 132.133 134.39 132.048C134.39 131.952 134.427 131.867 134.502 131.792C134.576 131.717 134.667 131.68 134.774 131.68H135.542C135.659 131.68 135.755 131.712 135.83 131.776C135.904 131.829 135.979 131.899 136.054 131.984L138.118 134.576ZM150.066 134.736V134.528C150.066 134.005 149.89 133.605 149.538 133.328C149.197 133.04 148.749 132.896 148.194 132.896C147.767 132.896 147.431 132.971 147.186 133.12C146.951 133.259 146.727 133.472 146.514 133.76C146.45 133.845 146.381 133.904 146.306 133.936C146.231 133.968 146.13 133.984 146.002 133.984H145.522C145.405 133.984 145.298 133.941 145.202 133.856C145.117 133.771 145.079 133.669 145.09 133.552C145.122 133.232 145.277 132.917 145.554 132.608C145.842 132.288 146.221 132.027 146.69 131.824C147.159 131.621 147.661 131.52 148.194 131.52C149.186 131.52 149.986 131.797 150.594 132.352C151.213 132.907 151.522 133.685 151.522 134.688V139.568C151.522 139.685 151.479 139.787 151.394 139.872C151.309 139.957 151.207 140 151.09 140H150.498C150.381 140 150.279 139.957 150.194 139.872C150.109 139.787 150.066 139.685 150.066 139.568V138.912C149.895 139.296 149.533 139.6 148.978 139.824C148.423 140.048 147.869 140.16 147.314 140.16C146.77 140.16 146.285 140.064 145.858 139.872C145.431 139.669 145.101 139.397 144.866 139.056C144.642 138.715 144.53 138.331 144.53 137.904C144.53 137.104 144.829 136.48 145.426 136.032C146.023 135.573 146.818 135.264 147.81 135.104L150.066 134.736ZM150.066 136.016L148.178 136.32C147.485 136.427 146.946 136.603 146.562 136.848C146.178 137.083 145.986 137.381 145.986 137.744C145.986 138.011 146.109 138.251 146.354 138.464C146.599 138.677 146.973 138.784 147.474 138.784C148.242 138.784 148.866 138.565 149.346 138.128C149.826 137.691 150.066 137.12 150.066 136.416V136.016ZM155.168 138.064C155.286 138.064 155.387 138.107 155.472 138.192C155.558 138.277 155.6 138.379 155.6 138.496V139.568C155.6 139.685 155.558 139.787 155.472 139.872C155.387 139.957 155.286 140 155.168 140H154.096C153.979 140 153.878 139.957 153.792 139.872C153.707 139.787 153.664 139.685 153.664 139.568V138.496C153.664 138.379 153.707 138.277 153.792 138.192C153.878 138.107 153.979 138.064 154.096 138.064H155.168Z" fill="white"/>
<g clip-path="url(#clip0_11521_3496)">
<path d="M160 6H146L153 0L160 6Z" fill="black"/>
</g>
<defs>
<filter id="filter0_d_11521_3496" x="0" y="6" width="200" height="170" filterUnits="userSpaceOnUse" color-interpolation-filters="sRGB">
<feFlood flood-opacity="0" result="BackgroundImageFix"/>
<feColorMatrix in="SourceAlpha" type="matrix" values="0 0 0 0 0 0 0 0 0 0 0 0 0 0 0 0 0 0 127 0" result="hardAlpha"/>
<feOffset dy="10"/>
<feColorMatrix type="matrix" values="0 0 0 0 0 0 0 0 0 0 0 0 0 0 0 0 0 0 0.1 0"/>
<feBlend mode="normal" in2="BackgroundImageFix" result="effect1_dropShadow_11521_3496"/>
<feBlend mode="normal" in="SourceGraphic" in2="effect1_dropShadow_11521_3496" result="shape"/>
</filter>
<clipPath id="clip0_11521_3496">
<rect width="14" height="6" fill="white" transform="translate(146)"/>
</clipPath>
</defs>
</svg>
