<?xml version="1.0" encoding="UTF-8"?>
<!DOCTYPE svg PUBLIC "-//W3C//DTD SVG 1.1//EN" "http://www.w3.org/Graphics/SVG/1.1/DTD/svg11.dtd">
<svg xmlns="http://www.w3.org/2000/svg" version="1.1" width="200px" height="176px" style="shape-rendering:geometricPrecision; text-rendering:geometricPrecision; image-rendering:optimizeQuality; fill-rule:evenodd; clip-rule:evenodd" xmlns:xlink="http://www.w3.org/1999/xlink">
<g><path style="opacity:0.938" fill="#030303" d="M 151.5,-0.5 C 152.167,-0.5 152.833,-0.5 153.5,-0.5C 155.604,1.0987 157.604,2.93204 159.5,5C 172.829,5.4999 186.163,5.66656 199.5,5.5C 199.5,62.1667 199.5,118.833 199.5,175.5C 132.833,175.5 66.1667,175.5 -0.5,175.5C -0.5,118.833 -0.5,62.1667 -0.5,5.5C 48.1678,5.66666 96.8345,5.49999 145.5,5C 147.396,2.93204 149.396,1.0987 151.5,-0.5 Z"/></g>
<g><path style="opacity:1" fill="#d6d6d6" d="M 19.5,28.5 C 22.5,28.5 25.5,28.5 28.5,28.5C 28.8226,32.226 28.4892,35.8927 27.5,39.5C 26.513,36.2317 26.1796,32.8984 26.5,29.5C 24.8333,29.5 23.1667,29.5 21.5,29.5C 21.8204,32.8984 21.487,36.2317 20.5,39.5C 19.5108,35.8927 19.1774,32.226 19.5,28.5 Z"/></g>
<g><path style="opacity:1" fill="#8e8e8e" d="M 145.5,27.5 C 147.372,28.3589 149.038,28.6922 150.5,28.5C 148.203,31.2896 146.536,30.9563 145.5,27.5 Z"/></g>
<g><path style="opacity:1" fill="#fefffe" d="M 48.5,32.5 C 52.9906,31.2587 54.324,31.2587 52.5,32.5C 52.1667,41.8333 51.8333,41.8333 51.5,32.5C 50.5,32.5 49.5,32.5 48.5,32.5 Z"/></g>
<g><path style="opacity:1" fill="#e1e1e1" d="M 68.5,38.5 C 67.71,39.6085 67.21,40.9419 67,42.5C 66.5014,38.8484 66.3347,35.1817 66.5,31.5C 72.6739,30.1729 74.8406,32.5062 73,38.5C 71.3845,39.8009 69.8845,39.8009 68.5,38.5 Z"/></g>
<g><path style="opacity:1" fill="#d0d0d0" d="M 86.5,30.5 C 89.8333,30.5 91.5,32.1667 91.5,35.5C 89.396,35.2011 87.396,35.5344 85.5,36.5C 86.7476,38.69 88.4143,39.0234 90.5,37.5C 91.6956,37.8457 91.6956,38.3457 90.5,39C 86.7983,40.3927 84.7983,39.226 84.5,35.5C 84.4365,33.4861 85.1032,31.8194 86.5,30.5 Z"/></g>
<g><path style="opacity:1" fill="#e3e3e3" d="M 113.5,31.5 C 115.5,31.5 117.5,31.5 119.5,31.5C 119.813,34.2469 119.48,36.9135 118.5,39.5C 117.749,38.624 117.249,37.624 117,36.5C 116,37.5 115,38.5 114,39.5C 114.281,36.9429 114.114,34.2763 113.5,31.5 Z"/></g>
<g><path style="opacity:1" fill="#eeeeee" d="M 147.5,36.5 C 147.092,37.6431 146.425,38.6431 145.5,39.5C 144.348,36.8938 144.182,34.2272 145,31.5C 145.05,33.744 145.883,35.4107 147.5,36.5 Z"/></g>
<g><path style="opacity:1" fill="#eaeaea" d="M 147.5,36.5 C 148.048,34.6064 149.048,32.9397 150.5,31.5C 151.652,34.1062 151.818,36.7728 151,39.5C 150.667,37.8333 150.333,36.1667 150,34.5C 149.292,35.3805 148.458,36.0472 147.5,36.5 Z"/></g>
<g><path style="opacity:1" fill="#fefffe" d="M 153.5,32.5 C 157.991,31.2587 159.324,31.2587 157.5,32.5C 157.167,41.8333 156.833,41.8333 156.5,32.5C 155.5,32.5 154.5,32.5 153.5,32.5 Z"/></g>
<g><path style="opacity:1" fill="#e9e9e9" d="M 166.5,34.5 C 165.952,36.3936 164.952,38.0603 163.5,39.5C 162.348,36.8938 162.182,34.2272 163,31.5C 163.333,33.1667 163.667,34.8333 164,36.5C 164.708,35.6195 165.542,34.9528 166.5,34.5 Z"/></g>
<g><path style="opacity:1" fill="#eeeeee" d="M 166.5,34.5 C 166.415,33.0047 167.081,32.0047 168.5,31.5C 169.652,34.1062 169.818,36.7728 169,39.5C 168.667,37.5 168.333,35.5 168,33.5C 167.617,34.056 167.117,34.3893 166.5,34.5 Z"/></g>
<g><path style="opacity:1" fill="#e0e0e0" d="M 57.5,31.5 C 59.5,31.5 61.5,31.5 63.5,31.5C 63.5,34.1667 63.5,36.8333 63.5,39.5C 61.2075,39.7564 59.0408,39.4231 57,38.5C 56.2506,37.365 56.4173,36.365 57.5,35.5C 59.2251,34.9851 60.8917,34.3184 62.5,33.5C 60.9936,32.2528 59.4936,32.2528 58,33.5C 57.5357,32.9056 57.369,32.2389 57.5,31.5 Z"/></g>
<g><path style="opacity:1" fill="#161616" d="M 68.5,38.5 C 66.5564,34.8844 67.5564,32.8844 71.5,32.5C 71.5,34.5 71.5,36.5 71.5,38.5C 70.5,38.5 69.5,38.5 68.5,38.5 Z"/></g>
<g><path style="opacity:1" fill="#0e0e0e" d="M 86.5,32.5 C 87.675,32.281 88.675,32.6143 89.5,33.5C 88.277,34.6139 86.9437,34.7805 85.5,34C 86.056,33.6174 86.3893,33.1174 86.5,32.5 Z"/></g>
<g><path style="opacity:1" fill="#bbbbbb" d="M 93.5,31.5 C 95.2572,32.292 96.5905,33.6253 97.5,35.5C 98.5,33.8333 99.8333,32.5 101.5,31.5C 102.833,34.1667 102.833,36.8333 101.5,39.5C 100.719,38.2713 100.219,36.938 100,35.5C 99.1667,36.5 98.3333,37.5 97.5,38.5C 96.8076,37.9747 96.3076,37.3081 96,36.5C 95.7508,37.624 95.2508,38.624 94.5,39.5C 93.52,36.9135 93.1866,34.2469 93.5,31.5 Z"/></g>
<g><path style="opacity:1" fill="#c6c6c6" d="M 106.5,30.5 C 109.767,30.4239 111.101,31.7573 110.5,34.5C 106.611,31.5413 105.111,32.5413 106,37.5C 107.68,38.6034 109.18,38.2701 110.5,36.5C 111.711,37.2739 111.711,38.1072 110.5,39C 105.502,40.3297 103.336,38.4964 104,33.5C 104.698,32.3094 105.531,31.3094 106.5,30.5 Z"/></g>
<g><path style="opacity:1" fill="#bbbbbb" d="M 32.5,30.5 C 38.1914,30.5544 39.8581,33.2211 37.5,38.5C 30.4129,39.5732 28.7462,36.9066 32.5,30.5 Z"/></g>
<g><path style="opacity:1" fill="#050505" d="M 33.5,32.5 C 35.4841,32.484 36.4841,33.484 36.5,35.5C 35.1667,39.5 33.8333,39.5 32.5,35.5C 32.685,34.4163 33.0183,33.4163 33.5,32.5 Z"/></g>
<g><path style="opacity:1" fill="#323232" d="M 114.5,32.5 C 115.833,32.5 117.167,32.5 118.5,32.5C 118.5,33.5 118.5,34.5 118.5,35.5C 116.027,35.9118 114.694,34.9118 114.5,32.5 Z"/></g>
<g><path style="opacity:1" fill="#c6c6c6" d="M 125.5,31.5 C 127.048,31.8212 127.715,32.8212 127.5,34.5C 128.833,34.5 130.167,34.5 131.5,34.5C 131.281,33.325 131.614,32.325 132.5,31.5C 133.833,34.1667 133.833,36.8333 132.5,39.5C 131.614,38.675 131.281,37.675 131.5,36.5C 130.167,36.5 128.833,36.5 127.5,36.5C 127.719,37.675 127.386,38.675 126.5,39.5C 125.52,36.9135 125.187,34.2469 125.5,31.5 Z"/></g>
<g><path style="opacity:1" fill="#1d1d1d" d="M 59.5,35.5 C 61.3547,35.272 62.1881,35.9387 62,37.5C 59.1924,38.8596 58.3591,38.1929 59.5,35.5 Z"/></g>
<g><path style="opacity:1" fill="#c8c8c8" d="M 77.5,30.5 C 79.3904,30.2965 80.8904,30.9632 82,32.5C 82.4966,34.8098 82.6633,37.1432 82.5,39.5C 80.1667,39.5 77.8333,39.5 75.5,39.5C 74.9585,35.7053 76.6252,33.7053 80.5,33.5C 78.8918,32.7579 77.2251,32.5913 75.5,33C 76.3805,32.2917 77.0472,31.4584 77.5,30.5 Z"/></g>
<g><path style="opacity:1" fill="#1a1a1a" d="M 77.5,35.5 C 79.3547,35.272 80.1881,35.9387 80,37.5C 77.3655,38.6922 76.5322,38.0256 77.5,35.5 Z"/></g>
<g><path style="opacity:1" fill="#c3c3c3" d="M 41.5,30.5 C 43.7224,30.178 45.5557,30.8446 47,32.5C 47.6877,33.3317 47.521,33.9984 46.5,34.5C 44.1419,31.7336 42.4752,32.067 41.5,35.5C 42.3967,39.1041 44.0633,39.4375 46.5,36.5C 47.7112,37.2739 47.7112,38.1072 46.5,39C 39.4159,39.475 37.7492,36.6417 41.5,30.5 Z"/></g>
<g><path style="opacity:1" fill="#c8c8c8" d="M 137.5,30.5 C 139.39,30.2965 140.89,30.9632 142,32.5C 142.497,34.8098 142.663,37.1432 142.5,39.5C 139.881,39.7683 137.381,39.435 135,38.5C 134.493,37.0039 134.993,35.8373 136.5,35C 137.938,34.7811 139.271,34.2811 140.5,33.5C 139.224,32.3554 137.891,32.3554 136.5,33.5C 136.167,33.1667 135.833,32.8333 135.5,32.5C 136.243,31.8182 136.909,31.1515 137.5,30.5 Z"/></g>
<g><path style="opacity:1" fill="#1c1c1c" d="M 137.5,35.5 C 139.355,35.272 140.188,35.9387 140,37.5C 137.192,38.8596 136.359,38.1929 137.5,35.5 Z"/></g>
<g><path style="opacity:1" fill="#ababab" d="M 171.5,37.5 C 173.465,37.9483 173.798,38.9483 172.5,40.5C 171.614,39.675 171.281,38.675 171.5,37.5 Z"/></g>
<g><path style="opacity:1" fill="#d7d7d7" d="M 47.5,51.5 C 49.5,51.5 51.5,51.5 53.5,51.5C 53.8134,54.2469 53.48,56.9135 52.5,59.5C 51.5258,57.2573 51.1924,54.924 51.5,52.5C 50.5,52.5 49.5,52.5 48.5,52.5C 48.6621,54.5273 48.4955,56.5273 48,58.5C 47.1072,59.7112 46.2739,59.7112 45.5,58.5C 47.1713,56.4902 47.838,54.1569 47.5,51.5 Z"/></g>
<g><path style="opacity:1" fill="#bfbfbf" d="M 73.5,50.5 C 79.1914,50.5544 80.8581,53.2211 78.5,58.5C 71.4089,59.5311 69.7423,56.8644 73.5,50.5 Z"/></g>
<g><path style="opacity:1" fill="#fbfbfb" d="M 91.5,59.5 C 91.5,58.1667 91.5,56.8333 91.5,55.5C 89.8333,55.5 88.1667,55.5 86.5,55.5C 86.5,56.8333 86.5,58.1667 86.5,59.5C 85.1381,55.0334 85.1381,53.3668 86.5,54.5C 88.1667,54.5 89.8333,54.5 91.5,54.5C 92.8619,53.3668 92.8619,55.0334 91.5,59.5 Z"/></g>
<g><path style="opacity:1" fill="#e8e8e8" d="M 122.5,51.5 C 123.473,53.9479 123.806,56.6146 123.5,59.5C 122.596,58.791 122.263,57.791 122.5,56.5C 121.081,55.5489 119.415,55.2155 117.5,55.5C 117.5,56.8333 117.5,58.1667 117.5,59.5C 116.2,56.9759 116.2,54.3092 117.5,51.5C 118.386,52.325 118.719,53.325 118.5,54.5C 119.833,54.5 121.167,54.5 122.5,54.5C 122.5,53.5 122.5,52.5 122.5,51.5 Z"/></g>
<g><path style="opacity:1" fill="#565656" d="M 122.5,51.5 C 122.56,50.9569 122.893,50.6236 123.5,50.5C 124.803,53.6447 124.803,56.6447 123.5,59.5C 123.806,56.6146 123.473,53.9479 122.5,51.5 Z"/></g>
<g><path style="opacity:1" fill="#0b0b0b" d="M 74.5,52.5 C 75.5,52.5 76.5,52.5 77.5,52.5C 77.9492,54.9775 77.2825,56.9775 75.5,58.5C 73.261,56.8669 72.9277,54.8669 74.5,52.5 Z"/></g>
<g><path style="opacity:1" fill="#d2d2d2" d="M 126.5,51.5 C 133.158,50.3445 135.158,52.8445 132.5,59C 126.281,59.9444 124.281,57.4444 126.5,51.5 Z"/></g>
<g><path style="opacity:1" fill="#0a0a0a" d="M 128.5,52.5 C 129.5,52.5 130.5,52.5 131.5,52.5C 131.949,54.9775 131.283,56.9775 129.5,58.5C 127.261,56.8669 126.928,54.8669 128.5,52.5 Z"/></g>
<g><path style="opacity:1" fill="#dedede" d="M 21.5,50.5 C 24.5242,50.3642 26.0242,51.6975 26,54.5C 21.9419,51.4112 20.2753,52.4112 21,57.5C 22.9376,58.8602 24.6043,58.5268 26,56.5C 26.6172,57.4491 26.4506,58.2825 25.5,59C 19.9202,60.261 18.0868,58.0943 20,52.5C 20.7172,51.9558 21.2172,51.2891 21.5,50.5 Z"/></g>
<g><path style="opacity:1" fill="#bbbbbb" d="M 38.5,50.5 C 44.1914,50.5544 45.8581,53.2211 43.5,58.5C 36.4129,59.5732 34.7462,56.9066 38.5,50.5 Z"/></g>
<g><path style="opacity:1" fill="#050505" d="M 39.5,52.5 C 41.4841,52.484 42.4841,53.484 42.5,55.5C 41.1667,59.5 39.8333,59.5 38.5,55.5C 38.685,54.4163 39.0183,53.4163 39.5,52.5 Z"/></g>
<g><path style="opacity:1" fill="#dfdfdf" d="M 103.5,52.5 C 103.56,51.9569 103.893,51.6236 104.5,51.5C 105.719,52.2634 106.719,53.2634 107.5,54.5C 108.251,53.624 108.751,52.624 109,51.5C 109.761,55.2507 110.928,55.4174 112.5,52C 113.167,51.3333 113.833,51.3333 114.5,52C 111.956,54.2221 111.956,56.3888 114.5,58.5C 114.167,58.8333 113.833,59.1667 113.5,59.5C 112.5,58.1667 111.5,56.8333 110.5,55.5C 109.719,56.7287 109.219,58.062 109,59.5C 107.779,55.8729 106.112,55.8729 104,59.5C 103.667,57.9532 104.167,56.6199 105.5,55.5C 105.058,54.2613 104.391,53.2613 103.5,52.5 Z"/></g>
<g><path style="opacity:1" fill="#c5c5c5" d="M 28.5,51.5 C 29.9311,51.8807 30.7645,52.8807 31,54.5C 33.8955,50.5106 34.7289,50.6772 33.5,55C 36.2669,60.1163 35.6003,60.6163 31.5,56.5C 30.8333,57.5 30.1667,58.5 29.5,59.5C 28.52,56.9135 28.1866,54.2469 28.5,51.5 Z"/></g>
<g><path style="opacity:1" fill="#c1c1c1" d="M 63.5,51.5 C 64.9311,51.8807 65.7645,52.8807 66,54.5C 68.8955,50.5106 69.7289,50.6772 68.5,55C 71.2669,60.1163 70.6003,60.6163 66.5,56.5C 65.8333,57.5 65.1667,58.5 64.5,59.5C 63.52,56.9135 63.1866,54.2469 63.5,51.5 Z"/></g>
<g><path style="opacity:1" fill="#616161" d="M 91.5,59.5 C 90.596,58.791 90.2627,57.791 90.5,56.5C 89.5,56.5 88.5,56.5 87.5,56.5C 87.7373,57.791 87.404,58.791 86.5,59.5C 86.5,58.1667 86.5,56.8333 86.5,55.5C 88.1667,55.5 89.8333,55.5 91.5,55.5C 91.5,56.8333 91.5,58.1667 91.5,59.5 Z"/></g>
<g><path style="opacity:1" fill="#d3d3d3" d="M 55.5,51.5 C 60.1459,52.1652 62.1459,54.8319 61.5,59.5C 59.5,59.5 57.5,59.5 55.5,59.5C 55.5,56.8333 55.5,54.1667 55.5,51.5 Z"/></g>
<g><path style="opacity:1" fill="#131313" d="M 57.5,55.5 C 60.9571,55.6672 61.2904,56.6672 58.5,58.5C 57.6143,57.675 57.281,56.675 57.5,55.5 Z"/></g>
<g><path style="opacity:1" fill="#7c7c7c" d="M 122.5,56.5 C 121.167,56.5 119.833,56.5 118.5,56.5C 118.737,57.791 118.404,58.791 117.5,59.5C 117.5,58.1667 117.5,56.8333 117.5,55.5C 119.415,55.2155 121.081,55.5489 122.5,56.5 Z"/></g>
<g><path style="opacity:1" fill="#d0d0d0" d="M 94.5,51.5 C 96.6138,52.3602 97.7805,54.0268 98,56.5C 99.2515,54.9991 100.252,53.3325 101,51.5C 101.217,56.0635 99.5503,59.7302 96,62.5C 95.5,62.3333 95,62.1667 94.5,62C 95.91,61.6322 96.91,60.7989 97.5,59.5C 96.4866,56.8122 95.4866,54.1456 94.5,51.5 Z"/></g>
<g><path style="opacity:1" fill="#c9c9c9" d="M 135.5,57.5 C 137.337,57.6395 137.67,58.3061 136.5,59.5C 135.702,59.0431 135.369,58.3764 135.5,57.5 Z"/></g>
<g><path style="opacity:1" fill="#d6d6d6" d="M 19.5,68.5 C 22.5,68.5 25.5,68.5 28.5,68.5C 28.8226,72.226 28.4892,75.8927 27.5,79.5C 26.513,76.2317 26.1796,72.8984 26.5,69.5C 24.8333,69.5 23.1667,69.5 21.5,69.5C 21.8204,72.8984 21.487,76.2317 20.5,79.5C 19.5108,75.8927 19.1774,72.226 19.5,68.5 Z"/></g>
<g><path style="opacity:1" fill="#8b8b8b" d="M 80.5,67.5 C 82.337,67.6395 82.6704,68.3061 81.5,69.5C 80.7025,69.0431 80.3691,68.3764 80.5,67.5 Z"/></g>
<g><path style="opacity:1" fill="#e4e4e4" d="M 31.5,71.5 C 38.1584,70.3445 40.1584,72.8445 37.5,79C 35.8659,79.4935 34.1992,79.6602 32.5,79.5C 31.2759,79.1211 30.9426,76.4544 31.5,71.5 Z"/></g>
<g><path style="opacity:1" fill="#dedede" d="M 50.5,71.5 C 52.5273,71.3379 54.5273,71.5045 56.5,72C 56.9574,72.414 57.2907,72.914 57.5,73.5C 57.4307,75.2781 57.0974,77.1114 56.5,79C 54.5273,79.4955 52.5273,79.6621 50.5,79.5C 50.5,76.8333 50.5,74.1667 50.5,71.5 Z"/></g>
<g><path style="opacity:1" fill="#d0d0d0" d="M 78.5,70.5 C 81.8333,70.5 83.5,72.1667 83.5,75.5C 81.396,75.2011 79.396,75.5344 77.5,76.5C 78.7476,78.69 80.4143,79.0234 82.5,77.5C 83.6956,77.8457 83.6956,78.3457 82.5,79C 78.7983,80.3927 76.7983,79.226 76.5,75.5C 76.4365,73.4861 77.1032,71.8194 78.5,70.5 Z"/></g>
<g><path style="opacity:1" fill="#dadada" d="M 136.5,71.5 C 137.83,72.8321 139.497,73.6655 141.5,74C 143.334,78.6748 141.667,80.5081 136.5,79.5C 136.5,76.8333 136.5,74.1667 136.5,71.5 Z"/></g>
<g><path style="opacity:1" fill="#151515" d="M 33.5,72.5 C 34.5,72.5 35.5,72.5 36.5,72.5C 36.5,74.5 36.5,76.5 36.5,78.5C 32.5564,78.1156 31.5564,76.1156 33.5,72.5 Z"/></g>
<g><path style="opacity:1" fill="#0b0b0b" d="M 52.5,72.5 C 53.675,72.281 54.675,72.6143 55.5,73.5C 55.3764,74.1067 55.0431,74.44 54.5,74.5C 53.1667,74.5 52.5,73.8333 52.5,72.5 Z"/></g>
<g><path style="opacity:1" fill="#0e0e0e" d="M 78.5,72.5 C 79.675,72.281 80.675,72.6143 81.5,73.5C 80.277,74.6139 78.9437,74.7805 77.5,74C 78.056,73.6174 78.3893,73.1174 78.5,72.5 Z"/></g>
<g><path style="opacity:1" fill="#bbbbbb" d="M 85.5,71.5 C 87.2572,72.292 88.5905,73.6253 89.5,75.5C 90.5,73.8333 91.8333,72.5 93.5,71.5C 94.8333,74.1667 94.8333,76.8333 93.5,79.5C 92.7189,78.2713 92.2189,76.938 92,75.5C 91.1667,76.5 90.3333,77.5 89.5,78.5C 88.8076,77.9747 88.3076,77.3081 88,76.5C 87.7508,77.624 87.2508,78.624 86.5,79.5C 85.52,76.9135 85.1866,74.2469 85.5,71.5 Z"/></g>
<g><path style="opacity:1" fill="#e2e2e2" d="M 119.5,70.5 C 124.383,71.4655 125.717,74.2988 123.5,79C 117.92,80.261 116.087,78.0943 118,72.5C 118.717,71.9558 119.217,71.2891 119.5,70.5 Z"/></g>
<g><path style="opacity:1" fill="#202020" d="M 119.5,72.5 C 123.35,72.7007 124.35,74.5341 122.5,78C 118.537,78.1177 117.537,76.2843 119.5,72.5 Z"/></g>
<g><path style="opacity:1" fill="#cfcfcf" d="M 154.5,70.5 C 159.383,71.4655 160.717,74.2988 158.5,79C 152.92,80.261 151.087,78.0943 153,72.5C 153.717,71.9558 154.217,71.2891 154.5,70.5 Z"/></g>
<g><path style="opacity:1" fill="#141414" d="M 154.5,72.5 C 158.35,72.7007 159.35,74.5341 157.5,78C 156.552,78.4828 155.552,78.6495 154.5,78.5C 154.5,76.5 154.5,74.5 154.5,72.5 Z"/></g>
<g><path style="opacity:1" fill="#bababa" d="M 40.5,71.5 C 42.045,72.2297 42.8784,73.563 43,75.5C 48.0241,70.3672 49.5241,71.7005 47.5,79.5C 46.7022,77.9223 46.2022,76.2556 46,74.5C 41.4912,81.3044 39.6579,80.3044 40.5,71.5 Z"/></g>
<g><path style="opacity:1" fill="#6e6e6e" d="M 52.5,72.5 C 52.5,73.8333 53.1667,74.5 54.5,74.5C 56.1859,77.5367 55.1859,78.87 51.5,78.5C 51.2053,76.2646 51.5386,74.2646 52.5,72.5 Z"/></g>
<g><path style="opacity:1" fill="#d5d5d5" d="M 109.5,71.5 C 110.158,72.3984 110.824,73.3984 111.5,74.5C 112.591,72.9852 113.924,72.1519 115.5,72C 113.185,74.4755 113.518,76.8089 116.5,79C 114.583,78.9725 112.916,78.1392 111.5,76.5C 110.749,77.376 110.249,78.376 110,79.5C 109.503,76.854 109.336,74.1873 109.5,71.5 Z"/></g>
<g><path style="opacity:1" fill="#d4d4d4" d="M 144.5,71.5 C 145.158,72.3984 145.824,73.3984 146.5,74.5C 147.591,72.9852 148.924,72.1519 150.5,72C 148.185,74.4755 148.518,76.8089 151.5,79C 149.583,78.9725 147.916,78.1392 146.5,76.5C 145.749,77.376 145.249,78.376 145,79.5C 144.503,76.854 144.336,74.1873 144.5,71.5 Z"/></g>
<g><path style="opacity:1" fill="#c0c0c0" d="M 101.5,70.5 C 103.722,70.178 105.556,70.8446 107,72.5C 107.688,73.3317 107.521,73.9984 106.5,74.5C 104.142,71.7336 102.475,72.067 101.5,75.5C 102.397,79.1041 104.063,79.4375 106.5,76.5C 107.711,77.2739 107.711,78.1072 106.5,79C 99.4159,79.475 97.7492,76.6417 101.5,70.5 Z"/></g>
<g><path style="opacity:1" fill="#1b1b1b" d="M 137.5,75.5 C 138.5,75.5 139.5,75.5 140.5,75.5C 140.5,76.5 140.5,77.5 140.5,78.5C 139.5,78.5 138.5,78.5 137.5,78.5C 137.5,77.5 137.5,76.5 137.5,75.5 Z"/></g>
<g><path style="opacity:1" fill="#c7c7c7" d="M 61.5,70.5 C 64.8333,70.5 66.5,72.1667 66.5,75.5C 64.396,75.2011 62.396,75.5344 60.5,76.5C 61.7476,78.69 63.4143,79.0234 65.5,77.5C 66.6956,77.8457 66.6956,78.3457 65.5,79C 58.0004,79.1959 56.667,76.3626 61.5,70.5 Z"/></g>
<g><path style="opacity:1" fill="#0b0b0b" d="M 61.5,72.5 C 62.675,72.281 63.675,72.6143 64.5,73.5C 63.277,74.6139 61.9437,74.7805 60.5,74C 61.056,73.6174 61.3893,73.1174 61.5,72.5 Z"/></g>
<g><path style="opacity:1" fill="#c9c9c9" d="M 69.5,70.5 C 71.7144,70.2907 73.381,71.124 74.5,73C 74.3393,74.9564 74.0059,76.9564 73.5,79C 71.0437,79.9461 69.0437,79.4461 67.5,77.5C 67.8333,77.1667 68.1667,76.8333 68.5,76.5C 70.0935,78.6603 71.7601,78.827 73.5,77C 72.6721,76.0853 71.6721,75.4186 70.5,75C 71.3081,74.6924 71.9747,74.1924 72.5,73.5C 70.8918,72.7579 69.2251,72.5913 67.5,73C 68.3805,72.2917 69.0472,71.4584 69.5,70.5 Z"/></g>
<g><path style="opacity:1" fill="#d0d0d0" d="M 127.5,71.5 C 129.5,71.5 131.5,71.5 133.5,71.5C 133.664,74.1873 133.497,76.854 133,79.5C 132.503,77.1902 132.337,74.8568 132.5,72.5C 131.5,72.5 130.5,72.5 129.5,72.5C 129.838,75.1569 129.171,77.4902 127.5,79.5C 127.218,77.0134 127.218,74.3467 127.5,71.5 Z"/></g>
<g><path style="opacity:1" fill="#ebebeb" d="M 19.5,91.5 C 21.8333,91.5 24.1667,91.5 26.5,91.5C 26.6641,94.1873 26.4974,96.854 26,99.5C 25.5034,97.1902 25.3367,94.8568 25.5,92.5C 24.1667,92.5 22.8333,92.5 21.5,92.5C 21.8076,94.924 21.4742,97.2573 20.5,99.5C 19.52,96.9135 19.1866,94.2469 19.5,91.5 Z"/></g>
<g><path style="opacity:1" fill="#bfbfbf" d="M 30.5,90.5 C 36.1914,90.5544 37.8581,93.2211 35.5,98.5C 28.4089,99.5311 26.7423,96.8644 30.5,90.5 Z"/></g>
<g><path style="opacity:1" fill="#bcbcbc" d="M 39.5,90.5 C 41.5,90.5 43.5,90.5 45.5,90.5C 45.8174,93.5719 45.4841,96.5719 44.5,99.5C 43.5258,97.2573 43.1924,94.924 43.5,92.5C 42.5,92.5 41.5,92.5 40.5,92.5C 40.6621,94.5273 40.4955,96.5273 40,98.5C 37.5052,99.7624 37.1718,99.4291 39,97.5C 39.4966,95.1902 39.6633,92.8568 39.5,90.5 Z"/></g>
<g><path style="opacity:1" fill="#efefef" d="M 55.5,91.5 C 57.1765,92.1834 57.8432,93.5168 57.5,95.5C 58.8333,95.5 60.1667,95.5 61.5,95.5C 62.7726,94.5824 62.7726,94.9157 61.5,96.5C 57.062,97.5749 55.062,95.9083 55.5,91.5 Z"/></g>
<g><path style="opacity:1" fill="#fdfdfd" d="M 66.5,96.5 C 66.5,97.1667 66.8333,97.5 67.5,97.5C 67.2172,98.2891 66.7172,98.9558 66,99.5C 65.3333,96.8333 65.3333,94.1667 66,91.5C 66.4935,93.1341 66.6602,94.8008 66.5,96.5 Z"/></g>
<g><path style="opacity:1" fill="#fefffe" d="M 74.5,92.5 C 78.9906,91.2587 80.324,91.2587 78.5,92.5C 78.1667,101.833 77.8333,101.833 77.5,92.5C 76.5,92.5 75.5,92.5 74.5,92.5 Z"/></g>
<g><path style="opacity:1" fill="#c9c9c9" d="M 83.5,91.5 C 85.604,91.2011 87.604,91.5344 89.5,92.5C 88.2839,93.0959 86.9506,93.2626 85.5,93C 84.0099,95.2003 84.3432,97.0336 86.5,98.5C 88.7381,95.5673 89.7381,95.9007 89.5,99.5C 83.2586,99.9314 81.2586,97.2647 83.5,91.5 Z"/></g>
<g><path style="opacity:1" fill="#cccccc" d="M 92.5,91.5 C 94.5,91.5 96.5,91.5 98.5,91.5C 98.8134,94.2469 98.48,96.9135 97.5,99.5C 96.3573,95.8752 95.0239,95.7085 93.5,99C 92.8333,99.6667 92.1667,99.6667 91.5,99C 92.435,96.6194 92.7683,94.1194 92.5,91.5 Z"/></g>
<g><path style="opacity:1" fill="#e8e8e8" d="M 104.5,91.5 C 106.833,91.5 109.167,91.5 111.5,91.5C 111.664,94.1873 111.497,96.854 111,99.5C 110.503,97.1902 110.337,94.8568 110.5,92.5C 109.167,92.5 107.833,92.5 106.5,92.5C 106.808,94.924 106.474,97.2573 105.5,99.5C 104.52,96.9135 104.187,94.2469 104.5,91.5 Z"/></g>
<g><path style="opacity:1" fill="#0b0b0b" d="M 31.5,92.5 C 32.5,92.5 33.5,92.5 34.5,92.5C 34.9492,94.9775 34.2825,96.9775 32.5,98.5C 30.261,96.8669 29.9277,94.8669 31.5,92.5 Z"/></g>
<g><path style="opacity:1" fill="#171717" d="M 93.5,92.5 C 94.5,92.5 95.5,92.5 96.5,92.5C 96.5,93.5 96.5,94.5 96.5,95.5C 95.5,95.5 94.5,95.5 93.5,95.5C 93.5,94.5 93.5,93.5 93.5,92.5 Z"/></g>
<g><path style="opacity:1" fill="#c7c7c7" d="M 115.5,90.5 C 120.172,90.4882 122.006,92.8215 121,97.5C 118.602,100.054 116.269,100.054 114,97.5C 113.167,94.829 113.667,92.4957 115.5,90.5 Z"/></g>
<g><path style="opacity:1" fill="#111111" d="M 115.5,92.5 C 119.35,92.7007 120.35,94.5341 118.5,98C 117.552,98.4828 116.552,98.6495 115.5,98.5C 115.5,96.5 115.5,94.5 115.5,92.5 Z"/></g>
<g><path style="opacity:1" fill="#b5b5b5" d="M 67.5,97.5 C 66.8333,97.5 66.5,97.1667 66.5,96.5C 68.3879,95.0603 70.0546,93.3936 71.5,91.5C 72.8333,94.1667 72.8333,96.8333 71.5,99.5C 70.7189,98.2713 70.2189,96.938 70,95.5C 69.2917,96.3805 68.4584,97.0472 67.5,97.5 Z"/></g>
<g><path style="opacity:1" fill="#cfcfcf" d="M 47.5,91.5 C 49.1361,92.7489 50.3028,94.4156 51,96.5C 51.6667,95.1667 52.3333,93.8333 53,92.5C 53.6543,91.3044 54.1543,91.3044 54.5,92.5C 53.3143,96.2565 51.481,99.5898 49,102.5C 48.5,102.333 48,102.167 47.5,102C 48.8045,101.196 49.4712,100.029 49.5,98.5C 48.5331,96.2383 47.8664,93.905 47.5,91.5 Z"/></g>
<g><path style="opacity:1" fill="#c6c6c6" d="M 39.5,110.5 C 42.8333,110.5 44.5,112.167 44.5,115.5C 42.396,115.201 40.396,115.534 38.5,116.5C 39.7476,118.69 41.4143,119.023 43.5,117.5C 44.6956,117.846 44.6956,118.346 43.5,119C 39.7983,120.393 37.7983,119.226 37.5,115.5C 37.4365,113.486 38.1032,111.819 39.5,110.5 Z"/></g>
<g><path style="opacity:1" fill="#c2c2c2" d="M 50.5,107.5 C 51.3764,107.369 52.0431,107.702 52.5,108.5C 47.4816,110.289 47.4816,111.456 52.5,112C 55.0846,118.256 53.2512,120.423 47,118.5C 45.6758,113.788 46.8424,110.122 50.5,107.5 Z"/></g>
<g><path style="opacity:1" fill="#c7c7c7" d="M 82.5,111.5 C 84.0481,111.821 84.7148,112.821 84.5,114.5C 85.8333,114.5 87.1667,114.5 88.5,114.5C 88.281,113.325 88.6143,112.325 89.5,111.5C 90.8333,114.167 90.8333,116.833 89.5,119.5C 88.5713,118.311 88.238,116.978 88.5,115.5C 87.1667,115.5 85.8333,115.5 84.5,115.5C 84.762,116.978 84.4287,118.311 83.5,119.5C 82.52,116.914 82.1866,114.247 82.5,111.5 Z"/></g>
<g><path style="opacity:1" fill="#e0e0e0" d="M 102.5,111.5 C 104.5,111.5 106.5,111.5 108.5,111.5C 108.813,114.247 108.48,116.914 107.5,119.5C 106.749,118.624 106.249,117.624 106,116.5C 102.477,120.447 101.643,120.447 103.5,116.5C 102.691,114.929 102.357,113.262 102.5,111.5 Z"/></g>
<g><path style="opacity:1" fill="#d3d3d3" d="M 18.5,112.5 C 22.9666,111.138 24.6332,111.138 23.5,112.5C 22.8333,121.833 22.1667,121.833 21.5,112.5C 20.5,112.5 19.5,112.5 18.5,112.5 Z"/></g>
<g><path style="opacity:1" fill="#0b0b0b" d="M 39.5,112.5 C 40.675,112.281 41.675,112.614 42.5,113.5C 41.277,114.614 39.9437,114.781 38.5,114C 39.056,113.617 39.3893,113.117 39.5,112.5 Z"/></g>
<g><path style="opacity:1" fill="#181818" d="M 49.5,112.5 C 51.2798,113.99 51.9465,115.99 51.5,118.5C 47.1507,117.775 46.484,115.775 49.5,112.5 Z"/></g>
<g><path style="opacity:1" fill="#e2e2e2" d="M 57.5,110.5 C 62.3833,111.466 63.7166,114.299 61.5,119C 55.9202,120.261 54.0868,118.094 56,112.5C 56.7172,111.956 57.2172,111.289 57.5,110.5 Z"/></g>
<g><path style="opacity:1" fill="#212121" d="M 57.5,112.5 C 61.35,112.701 62.35,114.534 60.5,118C 56.5369,118.118 55.5369,116.284 57.5,112.5 Z"/></g>
<g><path style="opacity:1" fill="#d3d3d3" d="M 75.5,110.5 C 77.3904,110.297 78.8904,110.963 80,112.5C 80.4966,114.81 80.6633,117.143 80.5,119.5C 78.1667,119.5 75.8333,119.5 73.5,119.5C 72.9585,115.705 74.6252,113.705 78.5,113.5C 76.8918,112.758 75.2251,112.591 73.5,113C 74.3805,112.292 75.0472,111.458 75.5,110.5 Z"/></g>
<g><path style="opacity:1" fill="#cacaca" d="M 92.5,111.5 C 94.045,112.23 94.8784,113.563 95,115.5C 99.0421,110.829 100.375,112.162 99,119.5C 98.6667,117.833 98.3333,116.167 98,114.5C 96.3149,116.017 94.8149,117.684 93.5,119.5C 92.52,116.914 92.1866,114.247 92.5,111.5 Z"/></g>
<g><path style="opacity:1" fill="#313131" d="M 103.5,112.5 C 104.833,112.5 106.167,112.5 107.5,112.5C 107.5,113.5 107.5,114.5 107.5,115.5C 105.027,115.912 103.694,114.912 103.5,112.5 Z"/></g>
<g><path style="opacity:1" fill="#c8c8c8" d="M 110.5,111.5 C 112.624,112.031 114.124,113.365 115,115.5C 115.941,113.939 117.108,112.605 118.5,111.5C 119.833,114.167 119.833,116.833 118.5,119.5C 117.719,118.271 117.219,116.938 117,115.5C 115.667,119.5 114.333,119.5 113,115.5C 112.781,116.938 112.281,118.271 111.5,119.5C 110.52,116.914 110.187,114.247 110.5,111.5 Z"/></g>
<g><path style="opacity:1" fill="#c8c8c8" d="M 64.5,111.5 C 66.8333,111.5 69.1667,111.5 71.5,111.5C 73.2382,117.927 70.9049,120.594 64.5,119.5C 64.5,116.833 64.5,114.167 64.5,111.5 Z"/></g>
<g><path style="opacity:1" fill="#000000" d="M 66.5,112.5 C 67.675,112.281 68.675,112.614 69.5,113.5C 67.9483,114.798 66.9483,114.465 66.5,112.5 Z"/></g>
<g><path style="opacity:1" fill="#171717" d="M 75.5,115.5 C 77.3547,115.272 78.1881,115.939 78,117.5C 75.3655,118.692 74.5322,118.026 75.5,115.5 Z"/></g>
<g><path style="opacity:1" fill="#292929" d="M 66.5,115.5 C 71.8333,116.5 71.8333,117.5 66.5,118.5C 66.5,117.5 66.5,116.5 66.5,115.5 Z"/></g>
<g><path style="opacity:1" fill="#c8c8c8" d="M 30.5,110.5 C 35.3373,111.238 36.6707,113.904 34.5,118.5C 32.9547,119.452 31.288,119.785 29.5,119.5C 29.719,120.675 29.3857,121.675 28.5,122.5C 27.5108,118.893 27.1774,115.226 27.5,111.5C 28.791,111.737 29.791,111.404 30.5,110.5 Z"/></g>
<g><path style="opacity:1" fill="#0c0c0c" d="M 30.5,112.5 C 31.5,112.5 32.5,112.5 33.5,112.5C 33.9492,114.977 33.2825,116.977 31.5,118.5C 29.261,116.867 28.9277,114.867 30.5,112.5 Z"/></g>
<g><path style="opacity:1" fill="#c8c8c8" d="M 19.5,131.5 C 20.9311,131.881 21.7645,132.881 22,134.5C 24.8955,130.511 25.7289,130.677 24.5,135C 27.0548,139.946 26.3882,140.446 22.5,136.5C 21.8333,137.5 21.1667,138.5 20.5,139.5C 19.52,136.914 19.1866,134.247 19.5,131.5 Z"/></g>
<g><path style="opacity:1" fill="#adadad" d="M 32.5,130.5 C 34.8333,130.5 37.1667,130.5 39.5,130.5C 39.8174,133.572 39.4841,136.572 38.5,139.5C 37.5258,137.257 37.1924,134.924 37.5,132.5C 36.1667,132.5 34.8333,132.5 33.5,132.5C 33.8076,134.924 33.4742,137.257 32.5,139.5C 31.2588,136.463 31.2588,133.463 32.5,130.5 Z"/></g>
<g><path style="opacity:1" fill="#cbcbcb" d="M 51.5,131.5 C 57.8895,130.218 59.8895,132.551 57.5,138.5C 51.2968,139.958 49.2968,137.625 51.5,131.5 Z"/></g>
<g><path style="opacity:1" fill="#dedede" d="M 60.5,131.5 C 62.5273,131.338 64.5273,131.505 66.5,132C 66.9574,132.414 67.2907,132.914 67.5,133.5C 67.4307,135.278 67.0974,137.111 66.5,139C 64.5273,139.495 62.5273,139.662 60.5,139.5C 60.5,136.833 60.5,134.167 60.5,131.5 Z"/></g>
<g><path style="opacity:1" fill="#c1c1c1" d="M 71.5,130.5 C 76.3833,131.466 77.7166,134.299 75.5,139C 70.5023,140.33 68.3357,138.496 69,133.5C 69.6979,132.309 70.5313,131.309 71.5,130.5 Z"/></g>
<g><path style="opacity:1" fill="#c5c5c5" d="M 103.5,127.5 C 104.376,127.369 105.043,127.702 105.5,128.5C 100.482,130.289 100.482,131.456 105.5,132C 108.085,138.256 106.251,140.423 100,138.5C 98.6758,133.788 99.8424,130.122 103.5,127.5 Z"/></g>
<g><path style="opacity:1" fill="#d4d4d4" d="M 117.5,131.5 C 119.527,131.338 121.527,131.505 123.5,132C 122.207,132.49 120.873,132.657 119.5,132.5C 119.808,134.924 119.474,137.257 118.5,139.5C 117.52,136.914 117.187,134.247 117.5,131.5 Z"/></g>
<g><path style="opacity:1" fill="#090909" d="M 53.5,132.5 C 54.5,132.5 55.5,132.5 56.5,132.5C 56.9492,134.977 56.2825,136.977 54.5,138.5C 52.261,136.867 51.9277,134.867 53.5,132.5 Z"/></g>
<g><path style="opacity:1" fill="#0b0b0b" d="M 62.5,132.5 C 63.675,132.281 64.675,132.614 65.5,133.5C 65.3764,134.107 65.0431,134.44 64.5,134.5C 63.1667,134.5 62.5,133.833 62.5,132.5 Z"/></g>
<g><path style="opacity:1" fill="#0d0d0d" d="M 71.5,132.5 C 72.5,132.5 73.5,132.5 74.5,132.5C 74.9492,134.977 74.2825,136.977 72.5,138.5C 70.261,136.867 69.9277,134.867 71.5,132.5 Z"/></g>
<g><path style="opacity:1" fill="#e0e0e0" d="M 128.5,138.5 C 127.116,139.801 125.616,139.801 124,138.5C 123.251,137.365 123.417,136.365 124.5,135.5C 126.225,134.985 127.892,134.318 129.5,133.5C 127.784,133.003 126.117,132.669 124.5,132.5C 126.396,131.534 128.396,131.201 130.5,131.5C 130.664,134.187 130.497,136.854 130,139.5C 129.617,138.944 129.117,138.611 128.5,138.5 Z"/></g>
<g><path style="opacity:1" fill="#191919" d="M 102.5,132.5 C 104.28,133.99 104.946,135.99 104.5,138.5C 100.151,137.775 99.484,135.775 102.5,132.5 Z"/></g>
<g><path style="opacity:1" fill="#d6d6d6" d="M 147.5,130.5 C 149.39,130.297 150.89,130.963 152,132.5C 152.497,134.81 152.663,137.143 152.5,139.5C 150.208,139.756 148.041,139.423 146,138.5C 145.333,137.5 145.333,136.5 146,135.5C 151.826,133.44 151.659,132.607 145.5,133C 146.381,132.292 147.047,131.458 147.5,130.5 Z"/></g>
<g><path style="opacity:1" fill="#c9c9c9" d="M 44.5,130.5 C 48.9706,131.44 50.3039,134.106 48.5,138.5C 46.9547,139.452 45.288,139.785 43.5,139.5C 43.719,140.675 43.3857,141.675 42.5,142.5C 41.5108,138.893 41.1774,135.226 41.5,131.5C 42.791,131.737 43.791,131.404 44.5,130.5 Z"/></g>
<g><path style="opacity:1" fill="#0b0b0b" d="M 44.5,132.5 C 46.4841,132.484 47.4841,133.484 47.5,135.5C 46.1667,139.5 44.8333,139.5 43.5,135.5C 43.685,134.416 44.0183,133.416 44.5,132.5 Z"/></g>
<g><path style="opacity:1" fill="#6e6e6e" d="M 62.5,132.5 C 62.5,133.833 63.1667,134.5 64.5,134.5C 66.1859,137.537 65.1859,138.87 61.5,138.5C 61.2053,136.265 61.5386,134.265 62.5,132.5 Z"/></g>
<g><path style="opacity:1" fill="#cfcfcf" d="M 78.5,131.5 C 80.5,131.5 82.5,131.5 84.5,131.5C 84.5,134.167 84.5,136.833 84.5,139.5C 82.396,139.799 80.396,139.466 78.5,138.5C 80.2555,138.64 81.9222,138.14 83.5,137C 82.6721,136.085 81.6721,135.419 80.5,135C 81.3081,134.692 81.9747,134.192 82.5,133.5C 81.3493,132.269 80.1827,132.269 79,133.5C 78.5357,132.906 78.369,132.239 78.5,131.5 Z"/></g>
<g><path style="opacity:1" fill="#c7c7c7" d="M 133.5,131.5 C 134.794,132.29 135.961,133.29 137,134.5C 138,130.5 139,130.5 140,134.5C 142.896,130.511 143.729,130.677 142.5,135C 145.267,140.116 144.6,140.616 140.5,136.5C 138.717,140.403 137.55,140.07 137,135.5C 133.126,140.971 132.292,140.804 134.5,135C 134.011,133.862 133.678,132.695 133.5,131.5 Z"/></g>
<g><path style="opacity:1" fill="#c8c8c8" d="M 110.5,130.5 C 112.39,130.297 113.89,130.963 115,132.5C 115.497,134.81 115.663,137.143 115.5,139.5C 113.167,139.5 110.833,139.5 108.5,139.5C 107.959,135.705 109.625,133.705 113.5,133.5C 111.892,132.758 110.225,132.591 108.5,133C 109.381,132.292 110.047,131.458 110.5,130.5 Z"/></g>
<g><path style="opacity:1" fill="#161616" d="M 110.5,135.5 C 112.355,135.272 113.188,135.939 113,137.5C 110.366,138.692 109.532,138.026 110.5,135.5 Z"/></g>
<g><path style="opacity:1" fill="#cacaca" d="M 86.5,131.5 C 88.1361,132.749 89.3028,134.416 90,136.5C 90.6667,135.167 91.3333,133.833 92,132.5C 92.6543,131.304 93.1543,131.304 93.5,132.5C 92.3333,135.5 91.1667,138.5 90,141.5C 88.9505,142.517 87.7839,142.684 86.5,142C 87.5784,141.326 88.2451,140.326 88.5,139C 87.6781,136.528 87.0114,134.028 86.5,131.5 Z"/></g>
<g><path style="opacity:1" fill="#1c1c1c" d="M 128.5,138.5 C 126.645,138.728 125.812,138.061 126,136.5C 128.808,135.14 129.641,135.807 128.5,138.5 Z"/></g>
<g><path style="opacity:1" fill="#0b0b0b" d="M 148.5,135.5 C 151.012,136.216 151.012,137.216 148.5,138.5C 147.438,137.575 147.438,136.575 148.5,135.5 Z"/></g>
<g><path style="opacity:1" fill="#dcdcdc" d="M 154.5,137.5 C 156.337,137.639 156.67,138.306 155.5,139.5C 154.702,139.043 154.369,138.376 154.5,137.5 Z"/></g>
</svg>
