<svg width="200" height="176" viewBox="0 0 200 176" fill="none" xmlns="http://www.w3.org/2000/svg">
<g filter="url(#filter0_d_11521_3496)">
<rect y="6" width="200" height="160" fill="black"/>
</g>
<path d="M20.76 40C20.6427 40 20.552 39.968 20.488 39.904C20.424 39.8293 20.392 39.7387 20.392 39.632V29.184C20.392 29.0667 20.424 28.976 20.488 28.912C20.552 28.8373 20.6427 28.8 20.76 28.8H28.648C28.7653 28.8 28.856 28.8373 28.92 28.912C28.9947 28.976 29.032 29.0667 29.032 29.184V39.632C29.032 39.7387 28.9947 39.8293 28.92 39.904C28.856 39.968 28.7653 40 28.648 40H27.832C27.7253 40 27.6347 39.968 27.56 39.904C27.496 39.8293 27.464 39.7387 27.464 39.632V30.24H21.96V39.632C21.96 39.7387 21.9227 39.8293 21.848 39.904C21.784 39.968 21.6933 40 21.576 40H20.76ZM34.9983 40.16C34.1876 40.16 33.5103 40.0053 32.9663 39.696C32.4223 39.3867 32.0063 38.96 31.7183 38.416C31.4303 37.8613 31.2703 37.232 31.2383 36.528C31.2276 36.3467 31.2223 36.1173 31.2223 35.84C31.2223 35.552 31.2276 35.3227 31.2383 35.152C31.2703 34.4373 31.4303 33.808 31.7183 33.264C32.0169 32.72 32.4383 32.2933 32.9823 31.984C33.5263 31.6747 34.1983 31.52 34.9983 31.52C35.7983 31.52 36.4703 31.6747 37.0143 31.984C37.5583 32.2933 37.9743 32.72 38.2623 33.264C38.5609 33.808 38.7263 34.4373 38.7583 35.152C38.7689 35.3227 38.7743 35.552 38.7743 35.84C38.7743 36.1173 38.7689 36.3467 38.7583 36.528C38.7263 37.232 38.5663 37.8613 38.2783 38.416C37.9903 38.96 37.5743 39.3867 37.0303 39.696C36.4863 40.0053 35.8089 40.16 34.9983 40.16ZM34.9983 38.928C35.6596 38.928 36.1876 38.72 36.5823 38.304C36.9769 37.8773 37.1903 37.2587 37.2223 36.448C37.2329 36.288 37.2383 36.0853 37.2383 35.84C37.2383 35.5947 37.2329 35.392 37.2223 35.232C37.1903 34.4213 36.9769 33.808 36.5823 33.392C36.1876 32.9653 35.6596 32.752 34.9983 32.752C34.3369 32.752 33.8036 32.9653 33.3983 33.392C33.0036 33.808 32.7956 34.4213 32.7743 35.232C32.7636 35.392 32.7582 35.5947 32.7582 35.84C32.7582 36.0853 32.7636 36.288 32.7743 36.448C32.7956 37.2587 33.0036 37.8773 33.3983 38.304C33.8036 38.72 34.3369 38.928 34.9983 38.928ZM44.1378 40.16C43.3804 40.16 42.7244 40.016 42.1698 39.728C41.6258 39.4293 41.2044 39.008 40.9058 38.464C40.6071 37.9093 40.4471 37.248 40.4258 36.48C40.4151 36.32 40.4098 36.1067 40.4098 35.84C40.4098 35.5733 40.4151 35.36 40.4258 35.2C40.4471 34.432 40.6071 33.776 40.9058 33.232C41.2044 32.6773 41.6258 32.256 42.1698 31.968C42.7244 31.6693 43.3804 31.52 44.1378 31.52C44.7564 31.52 45.2844 31.6053 45.7218 31.776C46.1698 31.9467 46.5378 32.1653 46.8258 32.432C47.1138 32.6987 47.3271 32.9867 47.4658 33.296C47.6151 33.6053 47.6951 33.8987 47.7058 34.176C47.7164 34.2827 47.6844 34.368 47.6098 34.432C47.5351 34.496 47.4444 34.528 47.3378 34.528H46.5698C46.4631 34.528 46.3831 34.5067 46.3298 34.464C46.2764 34.4107 46.2231 34.3253 46.1698 34.208C45.9778 33.6853 45.7164 33.3173 45.3858 33.104C45.0551 32.8907 44.6444 32.784 44.1538 32.784C43.5138 32.784 42.9911 32.9813 42.5858 33.376C42.1911 33.7707 41.9778 34.4053 41.9457 35.28C41.9351 35.664 41.9351 36.0373 41.9457 36.4C41.9778 37.2853 42.1911 37.9253 42.5858 38.32C42.9911 38.704 43.5138 38.896 44.1538 38.896C44.6444 38.896 45.0551 38.7893 45.3858 38.576C45.7164 38.3627 45.9778 37.9947 46.1698 37.472C46.2231 37.3547 46.2764 37.2747 46.3298 37.232C46.3831 37.1787 46.4631 37.152 46.5698 37.152H47.3378C47.4444 37.152 47.5351 37.184 47.6098 37.248C47.6844 37.312 47.7164 37.3973 47.7058 37.504C47.6951 37.728 47.6471 37.9573 47.5618 38.192C47.4764 38.4267 47.3378 38.6667 47.1458 38.912C46.9644 39.1467 46.7351 39.36 46.4578 39.552C46.1804 39.7333 45.8444 39.8827 45.4498 40C45.0658 40.1067 44.6284 40.16 44.1378 40.16ZM52.1499 40C52.0432 40 51.9525 39.968 51.8779 39.904C51.8139 39.8293 51.7819 39.7387 51.7819 39.632V32.96H48.9979C48.8912 32.96 48.8005 32.928 48.7259 32.864C48.6619 32.7893 48.6299 32.6987 48.6299 32.592V32.048C48.6299 31.9413 48.6619 31.856 48.7259 31.792C48.8005 31.7173 48.8912 31.68 48.9979 31.68H56.0379C56.1445 31.68 56.2299 31.7173 56.2939 31.792C56.3685 31.856 56.4059 31.9413 56.4059 32.048V32.592C56.4059 32.6987 56.3685 32.7893 56.2939 32.864C56.2299 32.928 56.1445 32.96 56.0379 32.96H53.2539V39.632C53.2539 39.7387 53.2219 39.8293 53.1579 39.904C53.0939 39.968 53.0032 40 52.8859 40H52.1499ZM60.1134 40.16C59.58 40.16 59.0947 40.0533 58.6574 39.84C58.22 39.6267 57.868 39.3387 57.6014 38.976C57.3347 38.6133 57.2014 38.2027 57.2014 37.744C57.2014 37.008 57.5 36.4213 58.0974 35.984C58.6947 35.5467 59.4734 35.2587 60.4334 35.12L62.8174 34.784V34.32C62.8174 33.808 62.668 33.408 62.3694 33.12C62.0814 32.832 61.6067 32.688 60.9454 32.688C60.4654 32.688 60.076 32.784 59.7774 32.976C59.4894 33.168 59.2867 33.4133 59.1694 33.712C59.1054 33.872 58.9934 33.952 58.8334 33.952H58.1134C57.996 33.952 57.9054 33.92 57.8414 33.856C57.788 33.7813 57.7614 33.696 57.7614 33.6C57.7614 33.44 57.82 33.2427 57.9374 33.008C58.0654 32.7733 58.2574 32.544 58.5134 32.32C58.7694 32.096 59.0947 31.9093 59.4894 31.76C59.8947 31.6 60.3854 31.52 60.9614 31.52C61.6014 31.52 62.14 31.6053 62.5774 31.776C63.0147 31.936 63.356 32.1547 63.6014 32.432C63.8574 32.7093 64.0387 33.024 64.1454 33.376C64.2627 33.728 64.3214 34.0853 64.3214 34.448V39.632C64.3214 39.7387 64.284 39.8293 64.2094 39.904C64.1454 39.968 64.06 40 63.9534 40H63.2174C63.1 40 63.0094 39.968 62.9454 39.904C62.8814 39.8293 62.8494 39.7387 62.8494 39.632V38.944C62.7107 39.136 62.524 39.328 62.2894 39.52C62.0547 39.7013 61.7614 39.856 61.4094 39.984C61.0574 40.1013 60.6254 40.16 60.1134 40.16ZM60.4494 38.96C60.8867 38.96 61.2867 38.8693 61.6494 38.688C62.012 38.496 62.2947 38.2027 62.4974 37.808C62.7107 37.4133 62.8174 36.9173 62.8174 36.32V35.872L60.9614 36.144C60.204 36.2507 59.6334 36.432 59.2494 36.688C58.8654 36.9333 58.6734 37.248 58.6734 37.632C58.6734 37.9307 58.7587 38.1813 58.9294 38.384C59.1107 38.576 59.3347 38.72 59.6014 38.816C59.8787 38.912 60.1614 38.96 60.4494 38.96ZM67.0055 43.04C66.8988 43.04 66.8082 43.0027 66.7335 42.928C66.6695 42.864 66.6375 42.7787 66.6375 42.672V32.048C66.6375 31.9413 66.6695 31.856 66.7335 31.792C66.8082 31.7173 66.8988 31.68 67.0055 31.68H67.7415C67.8482 31.68 67.9335 31.7173 67.9975 31.792C68.0722 31.856 68.1095 31.9413 68.1095 32.048V32.752C68.3655 32.4 68.7068 32.1067 69.1335 31.872C69.5602 31.6373 70.0935 31.52 70.7335 31.52C71.3308 31.52 71.8375 31.6213 72.2535 31.824C72.6802 32.0267 73.0268 32.304 73.2935 32.656C73.5708 33.008 73.7788 33.408 73.9175 33.856C74.0562 34.304 74.1308 34.784 74.1415 35.296C74.1522 35.4667 74.1575 35.648 74.1575 35.84C74.1575 36.032 74.1522 36.2133 74.1415 36.384C74.1308 36.8853 74.0562 37.3653 73.9175 37.824C73.7788 38.272 73.5708 38.672 73.2935 39.024C73.0268 39.3653 72.6802 39.6427 72.2535 39.856C71.8375 40.0587 71.3308 40.16 70.7335 40.16C70.1148 40.16 69.5922 40.048 69.1655 39.824C68.7495 39.5893 68.4082 39.3013 68.1415 38.96V42.672C68.1415 42.7787 68.1095 42.864 68.0455 42.928C67.9815 43.0027 67.8908 43.04 67.7735 43.04H67.0055ZM70.3975 38.864C70.9522 38.864 71.3842 38.7467 71.6935 38.512C72.0135 38.2667 72.2428 37.952 72.3815 37.568C72.5202 37.1733 72.6002 36.752 72.6215 36.304C72.6322 35.9947 72.6322 35.6853 72.6215 35.376C72.6002 34.928 72.5202 34.512 72.3815 34.128C72.2428 33.7333 72.0135 33.4187 71.6935 33.184C71.3842 32.9387 70.9522 32.816 70.3975 32.816C69.8748 32.816 69.4482 32.9387 69.1175 33.184C68.7975 33.4293 68.5575 33.744 68.3975 34.128C68.2482 34.5013 68.1628 34.8853 68.1415 35.28C68.1308 35.4507 68.1255 35.6533 68.1255 35.888C68.1255 36.1227 68.1308 36.3307 68.1415 36.512C68.1522 36.8853 68.2375 37.2533 68.3975 37.616C68.5682 37.9787 68.8188 38.2773 69.1495 38.512C69.4802 38.7467 69.8962 38.864 70.3975 38.864ZM78.4728 40.16C77.9394 40.16 77.4541 40.0533 77.0168 39.84C76.5794 39.6267 76.2274 39.3387 75.9608 38.976C75.6941 38.6133 75.5608 38.2027 75.5608 37.744C75.5608 37.008 75.8594 36.4213 76.4568 35.984C77.0541 35.5467 77.8328 35.2587 78.7928 35.12L81.1768 34.784V34.32C81.1768 33.808 81.0274 33.408 80.7288 33.12C80.4408 32.832 79.9661 32.688 79.3048 32.688C78.8248 32.688 78.4354 32.784 78.1368 32.976C77.8488 33.168 77.6461 33.4133 77.5288 33.712C77.4648 33.872 77.3528 33.952 77.1928 33.952H76.4728C76.3554 33.952 76.2648 33.92 76.2008 33.856C76.1474 33.7813 76.1208 33.696 76.1208 33.6C76.1208 33.44 76.1794 33.2427 76.2968 33.008C76.4248 32.7733 76.6168 32.544 76.8728 32.32C77.1288 32.096 77.4541 31.9093 77.8488 31.76C78.2541 31.6 78.7448 31.52 79.3208 31.52C79.9608 31.52 80.4994 31.6053 80.9368 31.776C81.3741 31.936 81.7154 32.1547 81.9608 32.432C82.2168 32.7093 82.3981 33.024 82.5048 33.376C82.6221 33.728 82.6808 34.0853 82.6808 34.448V39.632C82.6808 39.7387 82.6434 39.8293 82.5688 39.904C82.5048 39.968 82.4194 40 82.3128 40H81.5768C81.4594 40 81.3688 39.968 81.3048 39.904C81.2408 39.8293 81.2088 39.7387 81.2088 39.632V38.944C81.0701 39.136 80.8834 39.328 80.6488 39.52C80.4141 39.7013 80.1208 39.856 79.7688 39.984C79.4168 40.1013 78.9848 40.16 78.4728 40.16ZM78.8088 38.96C79.2461 38.96 79.6461 38.8693 80.0088 38.688C80.3714 38.496 80.6541 38.2027 80.8568 37.808C81.0701 37.4133 81.1768 36.9173 81.1768 36.32V35.872L79.3208 36.144C78.5634 36.2507 77.9928 36.432 77.6088 36.688C77.2248 36.9333 77.0328 37.248 77.0328 37.632C77.0328 37.9307 77.1181 38.1813 77.2888 38.384C77.4701 38.576 77.6941 38.72 77.9608 38.816C78.2381 38.912 78.5208 38.96 78.8088 38.96ZM88.2929 40.16C87.1942 40.16 86.3195 39.824 85.6689 39.152C85.0182 38.4693 84.6609 37.5413 84.5969 36.368C84.5862 36.2293 84.5809 36.0533 84.5809 35.84C84.5809 35.616 84.5862 35.4347 84.5969 35.296C84.6395 34.5387 84.8155 33.8773 85.1249 33.312C85.4342 32.736 85.8555 32.2933 86.3889 31.984C86.9329 31.6747 87.5675 31.52 88.2929 31.52C89.1035 31.52 89.7809 31.6907 90.3249 32.032C90.8795 32.3733 91.3009 32.8587 91.5889 33.488C91.8769 34.1173 92.0209 34.8533 92.0209 35.696V35.968C92.0209 36.0853 91.9835 36.176 91.9089 36.24C91.8449 36.304 91.7595 36.336 91.6529 36.336H86.1169C86.1169 36.3467 86.1169 36.368 86.1169 36.4C86.1169 36.432 86.1169 36.4587 86.1169 36.48C86.1382 36.9173 86.2342 37.328 86.4049 37.712C86.5755 38.0853 86.8209 38.3893 87.1409 38.624C87.4609 38.8587 87.8449 38.976 88.2929 38.976C88.6769 38.976 88.9969 38.9173 89.2529 38.8C89.5089 38.6827 89.7169 38.5547 89.8769 38.416C90.0369 38.2667 90.1435 38.1547 90.1969 38.08C90.2929 37.9413 90.3675 37.8613 90.4209 37.84C90.4742 37.808 90.5595 37.792 90.6769 37.792H91.4449C91.5515 37.792 91.6369 37.824 91.7009 37.888C91.7755 37.9413 91.8075 38.0213 91.7969 38.128C91.7862 38.288 91.7009 38.4853 91.5409 38.72C91.3809 38.944 91.1515 39.168 90.8529 39.392C90.5542 39.616 90.1915 39.8027 89.7649 39.952C89.3382 40.0907 88.8475 40.16 88.2929 40.16ZM86.1169 35.232H90.5009V35.184C90.5009 34.704 90.4102 34.2773 90.2289 33.904C90.0582 33.5307 89.8075 33.2373 89.4769 33.024C89.1462 32.8 88.7515 32.688 88.2929 32.688C87.8342 32.688 87.4395 32.8 87.1089 33.024C86.7889 33.2373 86.5435 33.5307 86.3729 33.904C86.2022 34.2773 86.1169 34.704 86.1169 35.184V35.232ZM94.286 40C94.1793 40 94.094 39.968 94.03 39.904C93.966 39.84 93.934 39.7547 93.934 39.648V31.984C93.934 31.8987 93.966 31.8293 94.03 31.776C94.1047 31.712 94.1793 31.68 94.254 31.68H95.07C95.2407 31.68 95.374 31.7653 95.47 31.936L98.19 37.024L100.926 31.936C101.022 31.7653 101.155 31.68 101.326 31.68H102.126C102.211 31.68 102.286 31.712 102.35 31.776C102.414 31.8293 102.446 31.8987 102.446 31.984V39.648C102.446 39.7547 102.414 39.84 102.35 39.904C102.286 39.968 102.206 40 102.11 40H101.326C101.219 40 101.134 39.968 101.07 39.904C101.006 39.84 100.974 39.7547 100.974 39.648V33.264L101.534 33.328L98.926 38.256C98.8727 38.3627 98.8087 38.4587 98.734 38.544C98.6593 38.6293 98.5473 38.672 98.398 38.672H97.982C97.8433 38.672 97.7367 38.6293 97.662 38.544C97.5873 38.4587 97.518 38.3627 97.454 38.256L94.926 33.568L95.422 33.52V39.648C95.422 39.7547 95.39 39.84 95.326 39.904C95.262 39.968 95.1767 40 95.07 40H94.286ZM108.2 40.16C107.443 40.16 106.787 40.016 106.232 39.728C105.688 39.4293 105.267 39.008 104.968 38.464C104.67 37.9093 104.51 37.248 104.488 36.48C104.478 36.32 104.472 36.1067 104.472 35.84C104.472 35.5733 104.478 35.36 104.488 35.2C104.51 34.432 104.67 33.776 104.968 33.232C105.267 32.6773 105.688 32.256 106.232 31.968C106.787 31.6693 107.443 31.52 108.2 31.52C108.819 31.52 109.347 31.6053 109.784 31.776C110.232 31.9467 110.6 32.1653 110.888 32.432C111.176 32.6987 111.39 32.9867 111.528 33.296C111.678 33.6053 111.758 33.8987 111.768 34.176C111.779 34.2827 111.747 34.368 111.672 34.432C111.598 34.496 111.507 34.528 111.4 34.528H110.632C110.526 34.528 110.446 34.5067 110.392 34.464C110.339 34.4107 110.286 34.3253 110.232 34.208C110.04 33.6853 109.779 33.3173 109.448 33.104C109.118 32.8907 108.707 32.784 108.216 32.784C107.576 32.784 107.054 32.9813 106.648 33.376C106.254 33.7707 106.04 34.4053 106.008 35.28C105.998 35.664 105.998 36.0373 106.008 36.4C106.04 37.2853 106.254 37.9253 106.648 38.32C107.054 38.704 107.576 38.896 108.216 38.896C108.707 38.896 109.118 38.7893 109.448 38.576C109.779 38.3627 110.04 37.9947 110.232 37.472C110.286 37.3547 110.339 37.2747 110.392 37.232C110.446 37.1787 110.526 37.152 110.632 37.152H111.4C111.507 37.152 111.598 37.184 111.672 37.248C111.747 37.312 111.779 37.3973 111.768 37.504C111.758 37.728 111.71 37.9573 111.624 38.192C111.539 38.4267 111.4 38.6667 111.208 38.912C111.027 39.1467 110.798 39.36 110.52 39.552C110.243 39.7333 109.907 39.8827 109.512 40C109.128 40.1067 108.691 40.16 108.2 40.16ZM118.852 40C118.735 40 118.644 39.968 118.58 39.904C118.516 39.8293 118.484 39.7387 118.484 39.632V37.024H116.644V36.944C115.642 36.944 114.895 36.6987 114.404 36.208C113.924 35.7067 113.684 35.072 113.684 34.304C113.684 33.408 113.946 32.7467 114.468 32.32C115.002 31.8933 115.802 31.68 116.868 31.68H119.62C119.727 31.68 119.812 31.7173 119.876 31.792C119.951 31.856 119.988 31.9413 119.988 32.048V39.632C119.988 39.7387 119.951 39.8293 119.876 39.904C119.812 39.968 119.727 40 119.62 40H118.852ZM113.78 40C113.684 40 113.604 39.968 113.54 39.904C113.476 39.84 113.444 39.7653 113.444 39.68C113.444 39.6373 113.45 39.5947 113.46 39.552C113.482 39.4987 113.514 39.4453 113.556 39.392L115.46 36.576L116.996 36.688L114.964 39.76C114.922 39.8133 114.863 39.8667 114.788 39.92C114.714 39.9733 114.634 40 114.548 40H113.78ZM116.692 35.824H118.5V32.88H116.82C116.223 32.88 115.78 32.9867 115.492 33.2C115.215 33.4027 115.076 33.7707 115.076 34.304C115.076 34.7413 115.204 35.104 115.46 35.392C115.727 35.68 116.138 35.824 116.692 35.824ZM126.661 40C126.555 40 126.464 39.968 126.389 39.904C126.325 39.8293 126.293 39.7387 126.293 39.632V32.048C126.293 31.9413 126.325 31.856 126.389 31.792C126.464 31.7173 126.555 31.68 126.661 31.68H127.429C127.536 31.68 127.621 31.7173 127.685 31.792C127.749 31.856 127.781 31.9413 127.781 32.048V35.12H132.149V32.048C132.149 31.9413 132.181 31.856 132.245 31.792C132.32 31.7173 132.411 31.68 132.517 31.68H133.269C133.376 31.68 133.461 31.7173 133.525 31.792C133.6 31.856 133.637 31.9413 133.637 32.048V39.632C133.637 39.7387 133.6 39.8293 133.525 39.904C133.461 39.968 133.376 40 133.269 40H132.517C132.411 40 132.32 39.968 132.245 39.904C132.181 39.8293 132.149 39.7387 132.149 39.632V36.4H127.781V39.632C127.781 39.7387 127.749 39.8293 127.685 39.904C127.621 39.968 127.536 40 127.429 40H126.661ZM138.363 40.16C137.83 40.16 137.345 40.0533 136.907 39.84C136.47 39.6267 136.118 39.3387 135.851 38.976C135.585 38.6133 135.451 38.2027 135.451 37.744C135.451 37.008 135.75 36.4213 136.347 35.984C136.945 35.5467 137.723 35.2587 138.683 35.12L141.067 34.784V34.32C141.067 33.808 140.918 33.408 140.619 33.12C140.331 32.832 139.857 32.688 139.195 32.688C138.715 32.688 138.326 32.784 138.027 32.976C137.739 33.168 137.537 33.4133 137.419 33.712C137.355 33.872 137.243 33.952 137.083 33.952H136.363C136.246 33.952 136.155 33.92 136.091 33.856C136.038 33.7813 136.011 33.696 136.011 33.6C136.011 33.44 136.07 33.2427 136.187 33.008C136.315 32.7733 136.507 32.544 136.763 32.32C137.019 32.096 137.345 31.9093 137.739 31.76C138.145 31.6 138.635 31.52 139.211 31.52C139.851 31.52 140.39 31.6053 140.827 31.776C141.265 31.936 141.606 32.1547 141.851 32.432C142.107 32.7093 142.289 33.024 142.395 33.376C142.513 33.728 142.571 34.0853 142.571 34.448V39.632C142.571 39.7387 142.534 39.8293 142.459 39.904C142.395 39.968 142.31 40 142.203 40H141.467C141.35 40 141.259 39.968 141.195 39.904C141.131 39.8293 141.099 39.7387 141.099 39.632V38.944C140.961 39.136 140.774 39.328 140.539 39.52C140.305 39.7013 140.011 39.856 139.659 39.984C139.307 40.1013 138.875 40.16 138.363 40.16ZM138.699 38.96C139.137 38.96 139.537 38.8693 139.899 38.688C140.262 38.496 140.545 38.2027 140.747 37.808C140.961 37.4133 141.067 36.9173 141.067 36.32V35.872L139.211 36.144C138.454 36.2507 137.883 36.432 137.499 36.688C137.115 36.9333 136.923 37.248 136.923 37.632C136.923 37.9307 137.009 38.1813 137.179 38.384C137.361 38.576 137.585 38.72 137.851 38.816C138.129 38.912 138.411 38.96 138.699 38.96ZM145.224 40C145.128 40 145.042 39.968 144.968 39.904C144.904 39.8293 144.872 39.7493 144.872 39.664V32.048C144.872 31.9413 144.904 31.856 144.968 31.792C145.042 31.7173 145.133 31.68 145.24 31.68H146.008C146.114 31.68 146.2 31.7173 146.264 31.792C146.328 31.856 146.36 31.9413 146.36 32.048V38.832L145.944 38.4L150.792 31.92C150.845 31.856 150.904 31.8027 150.968 31.76C151.032 31.7067 151.112 31.68 151.208 31.68H151.944C152.029 31.68 152.104 31.712 152.168 31.776C152.242 31.84 152.28 31.9147 152.28 32V39.632C152.28 39.7387 152.242 39.8293 152.168 39.904C152.104 39.968 152.018 40 151.911 40H151.16C151.042 40 150.952 39.968 150.888 39.904C150.824 39.8293 150.792 39.7387 150.792 39.632V33.248L151.24 33.232L146.36 39.76C146.317 39.8133 146.264 39.8667 146.2 39.92C146.136 39.9733 146.05 40 145.944 40H145.224ZM148.616 30.576C147.997 30.576 147.512 30.48 147.16 30.288C146.808 30.096 146.562 29.8507 146.424 29.552C146.285 29.2427 146.216 28.9227 146.216 28.592C146.216 28.5067 146.237 28.4373 146.28 28.384C146.333 28.32 146.413 28.288 146.52 28.288H147.064C147.16 28.288 147.234 28.32 147.288 28.384C147.341 28.4373 147.368 28.5067 147.368 28.592C147.368 28.8373 147.448 29.0667 147.608 29.28C147.778 29.4827 148.114 29.584 148.616 29.584C149.128 29.584 149.464 29.4827 149.624 29.28C149.784 29.0667 149.864 28.8373 149.864 28.592C149.864 28.5067 149.89 28.4373 149.944 28.384C149.997 28.32 150.072 28.288 150.168 28.288H150.728C150.824 28.288 150.898 28.32 150.952 28.384C151.005 28.4373 151.032 28.5067 151.032 28.592C151.032 28.9227 150.957 29.2427 150.808 29.552C150.669 29.8507 150.424 30.096 150.072 30.288C149.72 30.48 149.234 30.576 148.616 30.576ZM157.166 40C157.059 40 156.968 39.968 156.894 39.904C156.83 39.8293 156.798 39.7387 156.798 39.632V32.96H154.014C153.907 32.96 153.816 32.928 153.742 32.864C153.678 32.7893 153.646 32.6987 153.646 32.592V32.048C153.646 31.9413 153.678 31.856 153.742 31.792C153.816 31.7173 153.907 31.68 154.014 31.68H161.054C161.16 31.68 161.246 31.7173 161.31 31.792C161.384 31.856 161.422 31.9413 161.422 32.048V32.592C161.422 32.6987 161.384 32.7893 161.31 32.864C161.246 32.928 161.16 32.96 161.054 32.96H158.27V39.632C158.27 39.7387 158.238 39.8293 158.174 39.904C158.11 39.968 158.019 40 157.902 40H157.166ZM163.161 40C163.065 40 162.98 39.968 162.905 39.904C162.841 39.8293 162.809 39.7493 162.809 39.664V32.048C162.809 31.9413 162.841 31.856 162.905 31.792C162.98 31.7173 163.07 31.68 163.177 31.68H163.945C164.052 31.68 164.137 31.7173 164.201 31.792C164.265 31.856 164.297 31.9413 164.297 32.048V38.832L163.881 38.4L168.729 31.92C168.782 31.856 168.841 31.8027 168.905 31.76C168.969 31.7067 169.049 31.68 169.145 31.68H169.881C169.966 31.68 170.041 31.712 170.105 31.776C170.18 31.84 170.217 31.9147 170.217 32V39.632C170.217 39.7387 170.18 39.8293 170.105 39.904C170.041 39.968 169.956 40 169.849 40H169.097C168.98 40 168.889 39.968 168.825 39.904C168.761 39.8293 168.729 39.7387 168.729 39.632V33.248L169.177 33.232L164.297 39.76C164.254 39.8133 164.201 39.8667 164.137 39.92C164.073 39.9733 163.988 40 163.881 40H163.161ZM172.447 41.2C172.362 41.2 172.292 41.168 172.239 41.104C172.196 41.04 172.18 40.96 172.191 40.864L172.559 38.576C172.58 38.448 172.623 38.3413 172.687 38.256C172.762 38.16 172.868 38.112 173.007 38.112H174.079C174.154 38.112 174.212 38.1387 174.255 38.192C174.308 38.2453 174.335 38.3093 174.335 38.384C174.335 38.4693 174.314 38.5547 174.271 38.64L173.439 40.832C173.396 40.9387 173.338 41.024 173.263 41.088C173.199 41.1627 173.103 41.2 172.975 41.2H172.447ZM23.544 60.16C22.7867 60.16 22.1307 60.016 21.576 59.728C21.032 59.4293 20.6107 59.008 20.312 58.464C20.0133 57.9093 19.8533 57.248 19.832 56.48C19.8213 56.32 19.816 56.1067 19.816 55.84C19.816 55.5733 19.8213 55.36 19.832 55.2C19.8533 54.432 20.0133 53.776 20.312 53.232C20.6107 52.6773 21.032 52.256 21.576 51.968C22.1307 51.6693 22.7867 51.52 23.544 51.52C24.1627 51.52 24.6907 51.6053 25.128 51.776C25.576 51.9467 25.944 52.1653 26.232 52.432C26.52 52.6987 26.7333 52.9867 26.872 53.296C27.0213 53.6053 27.1013 53.8987 27.112 54.176C27.1227 54.2827 27.0907 54.368 27.016 54.432C26.9413 54.496 26.8507 54.528 26.744 54.528H25.976C25.8693 54.528 25.7893 54.5067 25.736 54.464C25.6827 54.4107 25.6293 54.3253 25.576 54.208C25.384 53.6853 25.1227 53.3173 24.792 53.104C24.4613 52.8907 24.0507 52.784 23.56 52.784C22.92 52.784 22.3973 52.9813 21.992 53.376C21.5973 53.7707 21.384 54.4053 21.352 55.28C21.3413 55.664 21.3413 56.0373 21.352 56.4C21.384 57.2853 21.5973 57.9253 21.992 58.32C22.3973 58.704 22.92 58.896 23.56 58.896C24.0507 58.896 24.4613 58.7893 24.792 58.576C25.1227 58.3627 25.384 57.9947 25.576 57.472C25.6293 57.3547 25.6827 57.2747 25.736 57.232C25.7893 57.1787 25.8693 57.152 25.976 57.152H26.744C26.8507 57.152 26.9413 57.184 27.016 57.248C27.0907 57.312 27.1227 57.3973 27.112 57.504C27.1013 57.728 27.0533 57.9573 26.968 58.192C26.8827 58.4267 26.744 58.6667 26.552 58.912C26.3707 59.1467 26.1413 59.36 25.864 59.552C25.5867 59.7333 25.2507 59.8827 24.856 60C24.472 60.1067 24.0347 60.16 23.544 60.16ZM29.3801 60C29.2735 60 29.1828 59.968 29.1081 59.904C29.0441 59.8293 29.0121 59.7387 29.0121 59.632V52.048C29.0121 51.9413 29.0441 51.856 29.1081 51.792C29.1828 51.7173 29.2735 51.68 29.3801 51.68H30.1321C30.2388 51.68 30.3241 51.7173 30.3881 51.792C30.4628 51.856 30.5001 51.9413 30.5001 52.048V55.12H31.9561L34.1161 51.92C34.1695 51.8453 34.2281 51.7867 34.2921 51.744C34.3561 51.7013 34.4415 51.68 34.5481 51.68H35.3801C35.4761 51.68 35.5561 51.7013 35.6201 51.744C35.6841 51.7867 35.7161 51.8507 35.7161 51.936C35.7161 51.9573 35.7055 51.9893 35.6841 52.032C35.6735 52.064 35.6575 52.096 35.6361 52.128L33.2361 55.664L35.9561 59.536C36.0095 59.6 36.0361 59.6693 36.0361 59.744C36.0361 59.8293 36.0041 59.8933 35.9401 59.936C35.8868 59.9787 35.8121 60 35.7161 60H34.7401C34.6441 60 34.5641 59.9787 34.5001 59.936C34.4361 59.8933 34.3775 59.8347 34.3241 59.76L31.9721 56.416H30.5001V59.632C30.5001 59.7387 30.4628 59.8293 30.3881 59.904C30.3241 59.968 30.2388 60 30.1321 60H29.3801ZM40.9983 60.16C40.1876 60.16 39.5103 60.0053 38.9663 59.696C38.4223 59.3867 38.0063 58.96 37.7183 58.416C37.4303 57.8613 37.2703 57.232 37.2383 56.528C37.2276 56.3467 37.2223 56.1173 37.2223 55.84C37.2223 55.552 37.2276 55.3227 37.2383 55.152C37.2703 54.4373 37.4303 53.808 37.7183 53.264C38.0169 52.72 38.4383 52.2933 38.9823 51.984C39.5263 51.6747 40.1983 51.52 40.9983 51.52C41.7983 51.52 42.4703 51.6747 43.0143 51.984C43.5583 52.2933 43.9743 52.72 44.2623 53.264C44.5609 53.808 44.7263 54.4373 44.7583 55.152C44.7689 55.3227 44.7743 55.552 44.7743 55.84C44.7743 56.1173 44.7689 56.3467 44.7583 56.528C44.7263 57.232 44.5663 57.8613 44.2783 58.416C43.9903 58.96 43.5743 59.3867 43.0303 59.696C42.4863 60.0053 41.8089 60.16 40.9983 60.16ZM40.9983 58.928C41.6596 58.928 42.1876 58.72 42.5823 58.304C42.9769 57.8773 43.1903 57.2587 43.2223 56.448C43.2329 56.288 43.2383 56.0853 43.2383 55.84C43.2383 55.5947 43.2329 55.392 43.2223 55.232C43.1903 54.4213 42.9769 53.808 42.5823 53.392C42.1876 52.9653 41.6596 52.752 40.9983 52.752C40.3369 52.752 39.8036 52.9653 39.3983 53.392C39.0036 53.808 38.7956 54.4213 38.7743 55.232C38.7636 55.392 38.7582 55.5947 38.7582 55.84C38.7582 56.0853 38.7636 56.288 38.7743 56.448C38.7956 57.2587 39.0036 57.8773 39.3983 58.304C39.8036 58.72 40.3369 58.928 40.9983 58.928ZM46.3778 60C46.2711 60 46.1804 59.9627 46.1058 59.888C46.0311 59.8133 45.9938 59.7227 45.9938 59.616V59.024C45.9938 58.8 46.1058 58.6827 46.3298 58.672C46.6604 58.6613 46.9378 58.5067 47.1618 58.208C47.3858 57.8987 47.5564 57.4133 47.6738 56.752C47.7911 56.08 47.8498 55.1947 47.8498 54.096V52.048C47.8498 51.9413 47.8818 51.856 47.9457 51.792C48.0204 51.7173 48.1111 51.68 48.2178 51.68H53.3058C53.4124 51.68 53.4978 51.7173 53.5618 51.792C53.6364 51.856 53.6737 51.9413 53.6737 52.048V59.632C53.6737 59.7387 53.6364 59.8293 53.5618 59.904C53.4978 59.968 53.4124 60 53.3058 60H52.5378C52.4311 60 52.3458 59.968 52.2818 59.904C52.2178 59.8293 52.1858 59.7387 52.1858 59.632V52.96H49.3058V54.272C49.3058 55.296 49.2471 56.176 49.1298 56.912C49.0124 57.6373 48.8311 58.2293 48.5858 58.688C48.3511 59.136 48.0471 59.4667 47.6738 59.68C47.3111 59.8933 46.8791 60 46.3778 60ZM56.427 60C56.3203 60 56.2297 59.968 56.155 59.904C56.091 59.8293 56.059 59.7387 56.059 59.632V52.048C56.059 51.9413 56.091 51.856 56.155 51.792C56.2297 51.7173 56.3203 51.68 56.427 51.68H57.195C57.3017 51.68 57.387 51.7173 57.451 51.792C57.5257 51.856 57.563 51.9413 57.563 52.048V54.4H59.355C60.443 54.4 61.2377 54.656 61.739 55.168C62.2403 55.68 62.491 56.3733 62.491 57.248C62.491 58.1867 62.2137 58.88 61.659 59.328C61.1043 59.776 60.2723 60 59.163 60H56.427ZM57.547 58.8H59.227C59.867 58.8 60.3363 58.688 60.635 58.464C60.9337 58.2293 61.083 57.824 61.083 57.248C61.083 56.6933 60.939 56.2827 60.651 56.016C60.363 55.7387 59.8883 55.6 59.227 55.6H57.547V58.8ZM64.4426 60C64.336 60 64.2453 59.968 64.1706 59.904C64.1066 59.8293 64.0746 59.7387 64.0746 59.632V52.048C64.0746 51.9413 64.1066 51.856 64.1706 51.792C64.2453 51.7173 64.336 51.68 64.4426 51.68H65.1946C65.3013 51.68 65.3866 51.7173 65.4506 51.792C65.5253 51.856 65.5626 51.9413 65.5626 52.048V55.12H67.0186L69.1786 51.92C69.232 51.8453 69.2906 51.7867 69.3546 51.744C69.4186 51.7013 69.504 51.68 69.6106 51.68H70.4426C70.5386 51.68 70.6186 51.7013 70.6826 51.744C70.7466 51.7867 70.7786 51.8507 70.7786 51.936C70.7786 51.9573 70.768 51.9893 70.7466 52.032C70.736 52.064 70.72 52.096 70.6986 52.128L68.2986 55.664L71.0186 59.536C71.072 59.6 71.0986 59.6693 71.0986 59.744C71.0986 59.8293 71.0666 59.8933 71.0026 59.936C70.9493 59.9787 70.8746 60 70.7786 60H69.8026C69.7066 60 69.6266 59.9787 69.5626 59.936C69.4986 59.8933 69.44 59.8347 69.3866 59.76L67.0346 56.416H65.5626V59.632C65.5626 59.7387 65.5253 59.8293 65.4506 59.904C65.3866 59.968 65.3013 60 65.1946 60H64.4426ZM76.0608 60.16C75.2501 60.16 74.5728 60.0053 74.0288 59.696C73.4848 59.3867 73.0688 58.96 72.7808 58.416C72.4928 57.8613 72.3328 57.232 72.3008 56.528C72.2901 56.3467 72.2848 56.1173 72.2848 55.84C72.2848 55.552 72.2901 55.3227 72.3008 55.152C72.3328 54.4373 72.4928 53.808 72.7808 53.264C73.0794 52.72 73.5008 52.2933 74.0448 51.984C74.5888 51.6747 75.2608 51.52 76.0608 51.52C76.8608 51.52 77.5328 51.6747 78.0768 51.984C78.6208 52.2933 79.0368 52.72 79.3248 53.264C79.6234 53.808 79.7888 54.4373 79.8208 55.152C79.8314 55.3227 79.8368 55.552 79.8368 55.84C79.8368 56.1173 79.8314 56.3467 79.8208 56.528C79.7888 57.232 79.6288 57.8613 79.3408 58.416C79.0528 58.96 78.6368 59.3867 78.0928 59.696C77.5488 60.0053 76.8714 60.16 76.0608 60.16ZM76.0608 58.928C76.7221 58.928 77.2501 58.72 77.6448 58.304C78.0394 57.8773 78.2528 57.2587 78.2848 56.448C78.2954 56.288 78.3008 56.0853 78.3008 55.84C78.3008 55.5947 78.2954 55.392 78.2848 55.232C78.2528 54.4213 78.0394 53.808 77.6448 53.392C77.2501 52.9653 76.7221 52.752 76.0608 52.752C75.3994 52.752 74.8661 52.9653 74.4608 53.392C74.0661 53.808 73.8581 54.4213 73.8368 55.232C73.8261 55.392 73.8207 55.5947 73.8207 55.84C73.8207 56.0853 73.8261 56.288 73.8368 56.448C73.8581 57.2587 74.0661 57.8773 74.4608 58.304C74.8661 58.72 75.3994 58.928 76.0608 58.928ZM86.1301 60C86.0235 60 85.9328 59.968 85.8581 59.904C85.7941 59.8293 85.7621 59.7387 85.7621 59.632V52.048C85.7621 51.9413 85.7941 51.856 85.8581 51.792C85.9328 51.7173 86.0235 51.68 86.1301 51.68H86.8981C87.0048 51.68 87.0901 51.7173 87.1541 51.792C87.2181 51.856 87.2501 51.9413 87.2501 52.048V55.12H91.6181V52.048C91.6181 51.9413 91.6501 51.856 91.7141 51.792C91.7888 51.7173 91.8795 51.68 91.9861 51.68H92.7381C92.8448 51.68 92.9301 51.7173 92.9941 51.792C93.0688 51.856 93.1061 51.9413 93.1061 52.048V59.632C93.1061 59.7387 93.0688 59.8293 92.9941 59.904C92.9301 59.968 92.8448 60 92.7381 60H91.9861C91.8795 60 91.7888 59.968 91.7141 59.904C91.6501 59.8293 91.6181 59.7387 91.6181 59.632V56.4H87.2501V59.632C87.2501 59.7387 87.2181 59.8293 87.1541 59.904C87.0901 59.968 87.0048 60 86.8981 60H86.1301ZM95.8961 63.04C95.7788 63.04 95.6881 63.0027 95.6241 62.928C95.5601 62.864 95.5281 62.7787 95.5281 62.672V62.128C95.5281 62.0213 95.5601 61.9307 95.6241 61.856C95.6881 61.792 95.7788 61.76 95.8961 61.76H96.3121C96.5575 61.76 96.7548 61.712 96.9041 61.616C97.0535 61.52 97.1868 61.3547 97.3041 61.12C97.4321 60.896 97.5815 60.5867 97.7521 60.192L101.224 51.952C101.256 51.8667 101.299 51.8027 101.352 51.76C101.416 51.7067 101.507 51.68 101.624 51.68H102.328C102.424 51.68 102.504 51.712 102.568 51.776C102.632 51.84 102.664 51.9147 102.664 52C102.664 52.0427 102.659 52.0853 102.648 52.128C102.637 52.16 102.616 52.2133 102.584 52.288L99.5441 59.488C99.3841 59.872 99.2081 60.272 99.0161 60.688C98.8348 61.104 98.6268 61.488 98.3921 61.84C98.1681 62.2027 97.9015 62.4907 97.5921 62.704C97.2828 62.928 96.9201 63.04 96.5041 63.04H95.8961ZM98.1201 59.76L94.8881 52.288C94.8348 52.16 94.8081 52.0693 94.8081 52.016C94.8188 51.92 94.8561 51.84 94.9201 51.776C94.9841 51.712 95.0588 51.68 95.1441 51.68H95.8961C96.0135 51.68 96.0988 51.7067 96.1521 51.76C96.2161 51.8133 96.2641 51.8773 96.2961 51.952L98.9521 58.304L98.1201 59.76ZM103.782 60C103.686 60 103.606 59.9787 103.542 59.936C103.488 59.8933 103.462 59.8293 103.462 59.744C103.462 59.6907 103.488 59.6213 103.542 59.536L106.278 55.648L103.862 52.128C103.84 52.096 103.824 52.064 103.814 52.032C103.803 51.9893 103.798 51.9573 103.798 51.936C103.798 51.8507 103.824 51.7867 103.878 51.744C103.942 51.7013 104.022 51.68 104.118 51.68H104.95C105.056 51.68 105.142 51.7013 105.206 51.744C105.27 51.7867 105.328 51.8453 105.382 51.92L107.542 55.12H108.758V52.048C108.758 51.9413 108.79 51.856 108.854 51.792C108.928 51.7173 109.019 51.68 109.126 51.68H109.862C109.979 51.68 110.07 51.7173 110.134 51.792C110.198 51.856 110.23 51.9413 110.23 52.048V55.12H111.398L113.59 51.92C113.632 51.8453 113.686 51.7867 113.75 51.744C113.824 51.7013 113.91 51.68 114.006 51.68H114.854C114.95 51.68 115.024 51.7013 115.078 51.744C115.142 51.7867 115.174 51.8507 115.174 51.936C115.174 51.9573 115.163 51.9893 115.142 52.032C115.131 52.064 115.115 52.096 115.094 52.128L112.694 55.648L115.43 59.536C115.472 59.6 115.494 59.6693 115.494 59.744C115.494 59.8293 115.467 59.8933 115.414 59.936C115.36 59.9787 115.28 60 115.174 60H114.214C114.107 60 114.016 59.9787 113.942 59.936C113.878 59.8933 113.824 59.8347 113.782 59.76L111.446 56.4H110.23V59.632C110.23 59.7387 110.198 59.8293 110.134 59.904C110.07 59.968 109.979 60 109.862 60H109.126C109.019 60 108.928 59.968 108.854 59.904C108.79 59.8293 108.758 59.7387 108.758 59.632V56.4H107.542L105.174 59.76C105.142 59.8347 105.088 59.8933 105.014 59.936C104.95 59.9787 104.864 60 104.758 60H103.782ZM117.411 60C117.305 60 117.214 59.968 117.139 59.904C117.075 59.8293 117.043 59.7387 117.043 59.632V52.048C117.043 51.9413 117.075 51.856 117.139 51.792C117.214 51.7173 117.305 51.68 117.411 51.68H118.179C118.286 51.68 118.371 51.7173 118.435 51.792C118.499 51.856 118.531 51.9413 118.531 52.048V55.12H122.899V52.048C122.899 51.9413 122.931 51.856 122.995 51.792C123.07 51.7173 123.161 51.68 123.267 51.68H124.019C124.126 51.68 124.211 51.7173 124.275 51.792C124.35 51.856 124.387 51.9413 124.387 52.048V59.632C124.387 59.7387 124.35 59.8293 124.275 59.904C124.211 59.968 124.126 60 124.019 60H123.267C123.161 60 123.07 59.968 122.995 59.904C122.931 59.8293 122.899 59.7387 122.899 59.632V56.4H118.531V59.632C118.531 59.7387 118.499 59.8293 118.435 59.904C118.371 59.968 118.286 60 118.179 60H117.411ZM130.201 60.16C129.391 60.16 128.713 60.0053 128.169 59.696C127.625 59.3867 127.209 58.96 126.921 58.416C126.633 57.8613 126.473 57.232 126.441 56.528C126.431 56.3467 126.425 56.1173 126.425 55.84C126.425 55.552 126.431 55.3227 126.441 55.152C126.473 54.4373 126.633 53.808 126.921 53.264C127.22 52.72 127.641 52.2933 128.185 51.984C128.729 51.6747 129.401 51.52 130.201 51.52C131.001 51.52 131.673 51.6747 132.217 51.984C132.761 52.2933 133.177 52.72 133.465 53.264C133.764 53.808 133.929 54.4373 133.961 55.152C133.972 55.3227 133.977 55.552 133.977 55.84C133.977 56.1173 133.972 56.3467 133.961 56.528C133.929 57.232 133.769 57.8613 133.481 58.416C133.193 58.96 132.777 59.3867 132.233 59.696C131.689 60.0053 131.012 60.16 130.201 60.16ZM130.201 58.928C130.863 58.928 131.391 58.72 131.785 58.304C132.18 57.8773 132.393 57.2587 132.425 56.448C132.436 56.288 132.441 56.0853 132.441 55.84C132.441 55.5947 132.436 55.392 132.425 55.232C132.393 54.4213 132.18 53.808 131.785 53.392C131.391 52.9653 130.863 52.752 130.201 52.752C129.54 52.752 129.007 52.9653 128.601 53.392C128.207 53.808 127.999 54.4213 127.977 55.232C127.967 55.392 127.961 55.5947 127.961 55.84C127.961 56.0853 127.967 56.288 127.977 56.448C127.999 57.2587 128.207 57.8773 128.601 58.304C129.007 58.72 129.54 58.928 130.201 58.928ZM136.237 60C136.13 60 136.04 59.968 135.965 59.904C135.901 59.8293 135.869 59.7387 135.869 59.632V58.48C135.869 58.3733 135.901 58.288 135.965 58.224C136.04 58.1493 136.13 58.112 136.237 58.112H137.389C137.496 58.112 137.581 58.1493 137.645 58.224C137.72 58.288 137.757 58.3733 137.757 58.48V59.632C137.757 59.7387 137.72 59.8293 137.645 59.904C137.581 59.968 137.496 60 137.389 60H136.237ZM20.76 80C20.6427 80 20.552 79.968 20.488 79.904C20.424 79.8293 20.392 79.7387 20.392 79.632V69.184C20.392 69.0667 20.424 68.976 20.488 68.912C20.552 68.8373 20.6427 68.8 20.76 68.8H28.648C28.7653 68.8 28.856 68.8373 28.92 68.912C28.9947 68.976 29.032 69.0667 29.032 69.184V79.632C29.032 79.7387 28.9947 79.8293 28.92 79.904C28.856 79.968 28.7653 80 28.648 80H27.832C27.7253 80 27.6347 79.968 27.56 79.904C27.496 79.8293 27.464 79.7387 27.464 79.632V70.24H21.96V79.632C21.96 79.7387 21.9227 79.8293 21.848 79.904C21.784 79.968 21.6933 80 21.576 80H20.76ZM31.9743 83.04C31.8676 83.04 31.7769 83.0027 31.7023 82.928C31.6383 82.864 31.6063 82.7787 31.6063 82.672V72.048C31.6063 71.9413 31.6383 71.856 31.7023 71.792C31.7769 71.7173 31.8676 71.68 31.9743 71.68H32.7103C32.8169 71.68 32.9023 71.7173 32.9663 71.792C33.0409 71.856 33.0783 71.9413 33.0783 72.048V72.752C33.3343 72.4 33.6756 72.1067 34.1023 71.872C34.5289 71.6373 35.0623 71.52 35.7023 71.52C36.2996 71.52 36.8063 71.6213 37.2223 71.824C37.6489 72.0267 37.9956 72.304 38.2623 72.656C38.5396 73.008 38.7476 73.408 38.8863 73.856C39.0249 74.304 39.0996 74.784 39.1103 75.296C39.1209 75.4667 39.1263 75.648 39.1263 75.84C39.1263 76.032 39.1209 76.2133 39.1103 76.384C39.0996 76.8853 39.0249 77.3653 38.8863 77.824C38.7476 78.272 38.5396 78.672 38.2623 79.024C37.9956 79.3653 37.6489 79.6427 37.2223 79.856C36.8063 80.0587 36.2996 80.16 35.7023 80.16C35.0836 80.16 34.5609 80.048 34.1343 79.824C33.7183 79.5893 33.3769 79.3013 33.1103 78.96V82.672C33.1103 82.7787 33.0783 82.864 33.0143 82.928C32.9503 83.0027 32.8596 83.04 32.7423 83.04H31.9743ZM35.3663 78.864C35.9209 78.864 36.3529 78.7467 36.6623 78.512C36.9823 78.2667 37.2116 77.952 37.3503 77.568C37.4889 77.1733 37.5689 76.752 37.5903 76.304C37.6009 75.9947 37.6009 75.6853 37.5903 75.376C37.5689 74.928 37.4889 74.512 37.3503 74.128C37.2116 73.7333 36.9823 73.4187 36.6623 73.184C36.3529 72.9387 35.9209 72.816 35.3663 72.816C34.8436 72.816 34.4169 72.9387 34.0863 73.184C33.7663 73.4293 33.5263 73.744 33.3663 74.128C33.2169 74.5013 33.1316 74.8853 33.1103 75.28C33.0996 75.4507 33.0943 75.6533 33.0943 75.888C33.0943 76.1227 33.0996 76.3307 33.1103 76.512C33.1209 76.8853 33.2063 77.2533 33.3663 77.616C33.5369 77.9787 33.7876 78.2773 34.1183 78.512C34.4489 78.7467 34.8649 78.864 35.3663 78.864ZM41.4735 80C41.3775 80 41.2922 79.968 41.2175 79.904C41.1535 79.8293 41.1215 79.7493 41.1215 79.664V72.048C41.1215 71.9413 41.1535 71.856 41.2175 71.792C41.2922 71.7173 41.3828 71.68 41.4895 71.68H42.2575C42.3642 71.68 42.4495 71.7173 42.5135 71.792C42.5775 71.856 42.6095 71.9413 42.6095 72.048V78.832L42.1935 78.4L47.0415 71.92C47.0948 71.856 47.1535 71.8027 47.2175 71.76C47.2815 71.7067 47.3615 71.68 47.4575 71.68H48.1935C48.2788 71.68 48.3535 71.712 48.4175 71.776C48.4922 71.84 48.5295 71.9147 48.5295 72V79.632C48.5295 79.7387 48.4922 79.8293 48.4175 79.904C48.3535 79.968 48.2682 80 48.1615 80H47.4095C47.2922 80 47.2015 79.968 47.1375 79.904C47.0735 79.8293 47.0415 79.7387 47.0415 79.632V73.248L47.4895 73.232L42.6095 79.76C42.5668 79.8133 42.5135 79.8667 42.4495 79.92C42.3855 79.9733 42.3002 80 42.1935 80H41.4735ZM51.2395 80C51.1328 80 51.0422 79.968 50.9675 79.904C50.9035 79.8293 50.8715 79.7387 50.8715 79.632V72.048C50.8715 71.9413 50.9035 71.856 50.9675 71.792C51.0422 71.7173 51.1328 71.68 51.2395 71.68H54.5675C55.5702 71.68 56.3222 71.8827 56.8235 72.288C57.3355 72.6933 57.5915 73.2373 57.5915 73.92C57.5915 74.4 57.5008 74.7627 57.3195 75.008C57.1382 75.2533 56.8822 75.4613 56.5515 75.632C56.9568 75.8027 57.2608 76.08 57.4635 76.464C57.6768 76.8373 57.7835 77.2267 57.7835 77.632C57.7835 78.4 57.5115 78.9867 56.9675 79.392C56.4235 79.7973 55.6662 80 54.6955 80H51.2395ZM52.3435 78.832H54.5675C55.0795 78.832 55.4902 78.736 55.7995 78.544C56.1195 78.3413 56.2795 78.0373 56.2795 77.632C56.2795 77.2053 56.1355 76.896 55.8475 76.704C55.5595 76.5013 55.1328 76.4 54.5675 76.4H52.3435V78.832ZM52.3435 75.216H54.4715C54.9835 75.216 55.3888 75.104 55.6875 74.88C55.9968 74.656 56.1515 74.3413 56.1515 73.936C56.1515 73.52 55.9968 73.2373 55.6875 73.088C55.3888 72.928 54.9835 72.848 54.4715 72.848H52.3435V75.216ZM63.1523 80.16C62.0536 80.16 61.1789 79.824 60.5283 79.152C59.8776 78.4693 59.5203 77.5413 59.4563 76.368C59.4456 76.2293 59.4403 76.0533 59.4403 75.84C59.4403 75.616 59.4456 75.4347 59.4563 75.296C59.4989 74.5387 59.6749 73.8773 59.9843 73.312C60.2936 72.736 60.7149 72.2933 61.2483 71.984C61.7923 71.6747 62.4269 71.52 63.1523 71.52C63.9629 71.52 64.6403 71.6907 65.1843 72.032C65.7389 72.3733 66.1603 72.8587 66.4483 73.488C66.7363 74.1173 66.8802 74.8533 66.8802 75.696V75.968C66.8802 76.0853 66.8429 76.176 66.7683 76.24C66.7043 76.304 66.6189 76.336 66.5123 76.336H60.9763C60.9763 76.3467 60.9763 76.368 60.9763 76.4C60.9763 76.432 60.9763 76.4587 60.9763 76.48C60.9976 76.9173 61.0936 77.328 61.2643 77.712C61.4349 78.0853 61.6803 78.3893 62.0003 78.624C62.3203 78.8587 62.7043 78.976 63.1523 78.976C63.5363 78.976 63.8563 78.9173 64.1123 78.8C64.3683 78.6827 64.5763 78.5547 64.7363 78.416C64.8963 78.2667 65.0029 78.1547 65.0563 78.08C65.1523 77.9413 65.2269 77.8613 65.2803 77.84C65.3336 77.808 65.4189 77.792 65.5363 77.792H66.3043C66.4109 77.792 66.4963 77.824 66.5603 77.888C66.6349 77.9413 66.6669 78.0213 66.6562 78.128C66.6456 78.288 66.5603 78.4853 66.4003 78.72C66.2403 78.944 66.0109 79.168 65.7123 79.392C65.4136 79.616 65.0509 79.8027 64.6243 79.952C64.1976 80.0907 63.7069 80.16 63.1523 80.16ZM60.9763 75.232H65.3603V75.184C65.3603 74.704 65.2696 74.2773 65.0883 73.904C64.9176 73.5307 64.6669 73.2373 64.3363 73.024C64.0056 72.8 63.6109 72.688 63.1523 72.688C62.6936 72.688 62.2989 72.8 61.9683 73.024C61.6483 73.2373 61.4029 73.5307 61.2323 73.904C61.0616 74.2773 60.9763 74.704 60.9763 75.184V75.232ZM71.6894 80.16C71.06 80.16 70.5267 80.0853 70.0894 79.936C69.6627 79.776 69.316 79.5787 69.0494 79.344C68.7934 79.0987 68.6067 78.848 68.4894 78.592C68.372 78.3253 68.308 78.08 68.2974 77.856C68.2974 77.76 68.3294 77.6853 68.3934 77.632C68.4574 77.568 68.532 77.536 68.6174 77.536H69.3694C69.4654 77.536 69.5454 77.5627 69.6094 77.616C69.6734 77.6587 69.7214 77.7387 69.7534 77.856C69.8814 78.2613 70.1267 78.544 70.4894 78.704C70.852 78.864 71.2947 78.944 71.8174 78.944C72.1587 78.944 72.4734 78.9013 72.7614 78.816C73.0494 78.72 73.2734 78.5707 73.4334 78.368C73.604 78.1653 73.6894 77.9147 73.6894 77.616C73.6894 77.1787 73.5614 76.848 73.3054 76.624C73.06 76.4 72.676 76.288 72.1534 76.288H71.2734C71.1667 76.288 71.0814 76.256 71.0174 76.192C70.9534 76.128 70.9214 76.0427 70.9214 75.936V75.504C70.9214 75.408 70.9534 75.328 71.0174 75.264C71.0814 75.1893 71.1667 75.152 71.2734 75.152H72.0574C72.4947 75.152 72.8307 75.0667 73.0654 74.896C73.3 74.7253 73.4174 74.4533 73.4174 74.08C73.4174 73.856 73.364 73.6427 73.2574 73.44C73.1507 73.2373 72.9694 73.072 72.7134 72.944C72.468 72.8053 72.1267 72.736 71.6894 72.736C71.0707 72.736 70.6334 72.8427 70.3774 73.056C70.132 73.2587 69.956 73.5627 69.8494 73.968C69.8067 74.0853 69.7534 74.1653 69.6894 74.208C69.636 74.2507 69.556 74.272 69.4494 74.272H68.7294C68.6334 74.272 68.5534 74.2453 68.4894 74.192C68.4254 74.1387 68.3934 74.064 68.3934 73.968C68.404 73.648 68.4734 73.344 68.6014 73.056C68.74 72.768 68.9427 72.5067 69.2094 72.272C69.4867 72.0373 69.828 71.856 70.2334 71.728C70.6494 71.5893 71.1347 71.52 71.6894 71.52C72.4894 71.52 73.1187 71.6427 73.5774 71.888C74.0467 72.1333 74.3774 72.4373 74.5694 72.8C74.772 73.152 74.8734 73.504 74.8734 73.856C74.8734 74.272 74.804 74.6187 74.6654 74.896C74.5374 75.1733 74.2814 75.408 73.8974 75.6C74.3774 75.7813 74.708 76.0533 74.8894 76.416C75.0707 76.7787 75.1667 77.2 75.1774 77.68C75.188 78.2347 75.0387 78.6933 74.7294 79.056C74.4307 79.4187 74.02 79.696 73.4974 79.888C72.9747 80.0693 72.372 80.16 71.6894 80.16ZM80.2929 80.16C79.1942 80.16 78.3195 79.824 77.6689 79.152C77.0182 78.4693 76.6609 77.5413 76.5969 76.368C76.5862 76.2293 76.5809 76.0533 76.5809 75.84C76.5809 75.616 76.5862 75.4347 76.5969 75.296C76.6395 74.5387 76.8155 73.8773 77.1249 73.312C77.4342 72.736 77.8555 72.2933 78.3889 71.984C78.9329 71.6747 79.5675 71.52 80.2929 71.52C81.1035 71.52 81.7809 71.6907 82.3249 72.032C82.8795 72.3733 83.3009 72.8587 83.5889 73.488C83.8769 74.1173 84.0209 74.8533 84.0209 75.696V75.968C84.0209 76.0853 83.9835 76.176 83.9089 76.24C83.8449 76.304 83.7595 76.336 83.6529 76.336H78.1169C78.1169 76.3467 78.1169 76.368 78.1169 76.4C78.1169 76.432 78.1169 76.4587 78.1169 76.48C78.1382 76.9173 78.2342 77.328 78.4049 77.712C78.5755 78.0853 78.8209 78.3893 79.1409 78.624C79.4609 78.8587 79.8449 78.976 80.2929 78.976C80.6769 78.976 80.9969 78.9173 81.2529 78.8C81.5089 78.6827 81.7169 78.5547 81.8769 78.416C82.0369 78.2667 82.1435 78.1547 82.1969 78.08C82.2929 77.9413 82.3675 77.8613 82.4209 77.84C82.4742 77.808 82.5595 77.792 82.6769 77.792H83.4449C83.5515 77.792 83.6369 77.824 83.7009 77.888C83.7755 77.9413 83.8075 78.0213 83.7969 78.128C83.7862 78.288 83.7009 78.4853 83.5409 78.72C83.3809 78.944 83.1515 79.168 82.8529 79.392C82.5542 79.616 82.1915 79.8027 81.7649 79.952C81.3382 80.0907 80.8475 80.16 80.2929 80.16ZM78.1169 75.232H82.5009V75.184C82.5009 74.704 82.4102 74.2773 82.2289 73.904C82.0582 73.5307 81.8075 73.2373 81.4769 73.024C81.1462 72.8 80.7515 72.688 80.2929 72.688C79.8342 72.688 79.4395 72.8 79.1089 73.024C78.7889 73.2373 78.5435 73.5307 78.3729 73.904C78.2022 74.2773 78.1169 74.704 78.1169 75.184V75.232ZM81.2529 70.064C81.1355 70.064 81.0449 70.032 80.9809 69.968C80.9169 69.904 80.8849 69.8187 80.8849 69.712V68.848C80.8849 68.7413 80.9169 68.656 80.9809 68.592C81.0449 68.5173 81.1355 68.48 81.2529 68.48H82.1169C82.2235 68.48 82.3089 68.5173 82.3729 68.592C82.4475 68.656 82.4849 68.7413 82.4849 68.848V69.712C82.4849 69.8187 82.4475 69.904 82.3729 69.968C82.3089 70.032 82.2235 70.064 82.1169 70.064H81.2529ZM78.5329 70.064C78.4262 70.064 78.3409 70.032 78.2769 69.968C78.2129 69.904 78.1809 69.8187 78.1809 69.712V68.848C78.1809 68.7413 78.2129 68.656 78.2769 68.592C78.3409 68.5173 78.4262 68.48 78.5329 68.48H79.4129C79.5195 68.48 79.6049 68.5173 79.6689 68.592C79.7435 68.656 79.7809 68.7413 79.7809 68.848V69.712C79.7809 69.8187 79.7435 69.904 79.6689 69.968C79.6049 70.032 79.5195 70.064 79.4129 70.064H78.5329ZM86.286 80C86.1793 80 86.094 79.968 86.03 79.904C85.966 79.84 85.934 79.7547 85.934 79.648V71.984C85.934 71.8987 85.966 71.8293 86.03 71.776C86.1047 71.712 86.1793 71.68 86.254 71.68H87.07C87.2407 71.68 87.374 71.7653 87.47 71.936L90.19 77.024L92.926 71.936C93.022 71.7653 93.1553 71.68 93.326 71.68H94.126C94.2113 71.68 94.286 71.712 94.35 71.776C94.414 71.8293 94.446 71.8987 94.446 71.984V79.648C94.446 79.7547 94.414 79.84 94.35 79.904C94.286 79.968 94.206 80 94.11 80H93.326C93.2193 80 93.134 79.968 93.07 79.904C93.006 79.84 92.974 79.7547 92.974 79.648V73.264L93.534 73.328L90.926 78.256C90.8727 78.3627 90.8087 78.4587 90.734 78.544C90.6593 78.6293 90.5473 78.672 90.398 78.672H89.982C89.8433 78.672 89.7367 78.6293 89.662 78.544C89.5873 78.4587 89.518 78.3627 89.454 78.256L86.926 73.568L87.422 73.52V79.648C87.422 79.7547 87.39 79.84 87.326 79.904C87.262 79.968 87.1767 80 87.07 80H86.286ZM104.122 80.16C103.365 80.16 102.709 80.016 102.154 79.728C101.61 79.4293 101.189 79.008 100.89 78.464C100.591 77.9093 100.431 77.248 100.41 76.48C100.399 76.32 100.394 76.1067 100.394 75.84C100.394 75.5733 100.399 75.36 100.41 75.2C100.431 74.432 100.591 73.776 100.89 73.232C101.189 72.6773 101.61 72.256 102.154 71.968C102.709 71.6693 103.365 71.52 104.122 71.52C104.741 71.52 105.269 71.6053 105.706 71.776C106.154 71.9467 106.522 72.1653 106.81 72.432C107.098 72.6987 107.311 72.9867 107.45 73.296C107.599 73.6053 107.679 73.8987 107.69 74.176C107.701 74.2827 107.669 74.368 107.594 74.432C107.519 74.496 107.429 74.528 107.322 74.528H106.554C106.447 74.528 106.367 74.5067 106.314 74.464C106.261 74.4107 106.207 74.3253 106.154 74.208C105.962 73.6853 105.701 73.3173 105.37 73.104C105.039 72.8907 104.629 72.784 104.138 72.784C103.498 72.784 102.975 72.9813 102.57 73.376C102.175 73.7707 101.962 74.4053 101.93 75.28C101.919 75.664 101.919 76.0373 101.93 76.4C101.962 77.2853 102.175 77.9253 102.57 78.32C102.975 78.704 103.498 78.896 104.138 78.896C104.629 78.896 105.039 78.7893 105.37 78.576C105.701 78.3627 105.962 77.9947 106.154 77.472C106.207 77.3547 106.261 77.2747 106.314 77.232C106.367 77.1787 106.447 77.152 106.554 77.152H107.322C107.429 77.152 107.519 77.184 107.594 77.248C107.669 77.312 107.701 77.3973 107.69 77.504C107.679 77.728 107.631 77.9573 107.546 78.192C107.461 78.4267 107.322 78.6667 107.13 78.912C106.949 79.1467 106.719 79.36 106.442 79.552C106.165 79.7333 105.829 79.8827 105.434 80C105.05 80.1067 104.613 80.16 104.122 80.16ZM109.958 80C109.852 80 109.761 79.968 109.686 79.904C109.622 79.8293 109.59 79.7387 109.59 79.632V72.048C109.59 71.9413 109.622 71.856 109.686 71.792C109.761 71.7173 109.852 71.68 109.958 71.68H110.71C110.817 71.68 110.902 71.7173 110.966 71.792C111.041 71.856 111.078 71.9413 111.078 72.048V75.12H112.534L114.694 71.92C114.748 71.8453 114.806 71.7867 114.87 71.744C114.934 71.7013 115.02 71.68 115.126 71.68H115.958C116.054 71.68 116.134 71.7013 116.198 71.744C116.262 71.7867 116.294 71.8507 116.294 71.936C116.294 71.9573 116.284 71.9893 116.262 72.032C116.252 72.064 116.236 72.096 116.214 72.128L113.814 75.664L116.534 79.536C116.588 79.6 116.614 79.6693 116.614 79.744C116.614 79.8293 116.582 79.8933 116.518 79.936C116.465 79.9787 116.39 80 116.294 80H115.318C115.222 80 115.142 79.9787 115.078 79.936C115.014 79.8933 114.956 79.8347 114.902 79.76L112.55 76.416H111.078V79.632C111.078 79.7387 111.041 79.8293 110.966 79.904C110.902 79.968 110.817 80 110.71 80H109.958ZM121.576 80.16C120.766 80.16 120.088 80.0053 119.544 79.696C119 79.3867 118.584 78.96 118.296 78.416C118.008 77.8613 117.848 77.232 117.816 76.528C117.806 76.3467 117.8 76.1173 117.8 75.84C117.8 75.552 117.806 75.3227 117.816 75.152C117.848 74.4373 118.008 73.808 118.296 73.264C118.595 72.72 119.016 72.2933 119.56 71.984C120.104 71.6747 120.776 71.52 121.576 71.52C122.376 71.52 123.048 71.6747 123.592 71.984C124.136 72.2933 124.552 72.72 124.84 73.264C125.139 73.808 125.304 74.4373 125.336 75.152C125.347 75.3227 125.352 75.552 125.352 75.84C125.352 76.1173 125.347 76.3467 125.336 76.528C125.304 77.232 125.144 77.8613 124.856 78.416C124.568 78.96 124.152 79.3867 123.608 79.696C123.064 80.0053 122.387 80.16 121.576 80.16ZM121.576 78.928C122.238 78.928 122.766 78.72 123.16 78.304C123.555 77.8773 123.768 77.2587 123.8 76.448C123.811 76.288 123.816 76.0853 123.816 75.84C123.816 75.5947 123.811 75.392 123.8 75.232C123.768 74.4213 123.555 73.808 123.16 73.392C122.766 72.9653 122.238 72.752 121.576 72.752C120.915 72.752 120.382 72.9653 119.976 73.392C119.582 73.808 119.374 74.4213 119.352 75.232C119.342 75.392 119.336 75.5947 119.336 75.84C119.336 76.0853 119.342 76.288 119.352 76.448C119.374 77.2587 119.582 77.8773 119.976 78.304C120.382 78.72 120.915 78.928 121.576 78.928ZM126.956 80C126.849 80 126.759 79.9627 126.684 79.888C126.609 79.8133 126.572 79.7227 126.572 79.616V79.024C126.572 78.8 126.684 78.6827 126.908 78.672C127.239 78.6613 127.516 78.5067 127.74 78.208C127.964 77.8987 128.135 77.4133 128.252 76.752C128.369 76.08 128.428 75.1947 128.428 74.096V72.048C128.428 71.9413 128.46 71.856 128.524 71.792C128.599 71.7173 128.689 71.68 128.796 71.68H133.884C133.991 71.68 134.076 71.7173 134.14 71.792C134.215 71.856 134.252 71.9413 134.252 72.048V79.632C134.252 79.7387 134.215 79.8293 134.14 79.904C134.076 79.968 133.991 80 133.884 80H133.116C133.009 80 132.924 79.968 132.86 79.904C132.796 79.8293 132.764 79.7387 132.764 79.632V72.96H129.884V74.272C129.884 75.296 129.825 76.176 129.708 76.912C129.591 77.6373 129.409 78.2293 129.164 78.688C128.929 79.136 128.625 79.4667 128.252 79.68C127.889 79.8933 127.457 80 126.956 80ZM137.005 80C136.898 80 136.808 79.968 136.733 79.904C136.669 79.8293 136.637 79.7387 136.637 79.632V72.048C136.637 71.9413 136.669 71.856 136.733 71.792C136.808 71.7173 136.898 71.68 137.005 71.68H137.773C137.88 71.68 137.965 71.7173 138.029 71.792C138.104 71.856 138.141 71.9413 138.141 72.048V74.4H139.933C141.021 74.4 141.816 74.656 142.317 75.168C142.818 75.68 143.069 76.3733 143.069 77.248C143.069 78.1867 142.792 78.88 142.237 79.328C141.682 79.776 140.85 80 139.741 80H137.005ZM138.125 78.8H139.805C140.445 78.8 140.914 78.688 141.213 78.464C141.512 78.2293 141.661 77.824 141.661 77.248C141.661 76.6933 141.517 76.2827 141.229 76.016C140.941 75.7387 140.466 75.6 139.805 75.6H138.125V78.8ZM145.021 80C144.914 80 144.823 79.968 144.749 79.904C144.685 79.8293 144.653 79.7387 144.653 79.632V72.048C144.653 71.9413 144.685 71.856 144.749 71.792C144.823 71.7173 144.914 71.68 145.021 71.68H145.773C145.879 71.68 145.965 71.7173 146.029 71.792C146.103 71.856 146.141 71.9413 146.141 72.048V75.12H147.597L149.757 71.92C149.81 71.8453 149.869 71.7867 149.933 71.744C149.997 71.7013 150.082 71.68 150.189 71.68H151.021C151.117 71.68 151.197 71.7013 151.261 71.744C151.325 71.7867 151.357 71.8507 151.357 71.936C151.357 71.9573 151.346 71.9893 151.325 72.032C151.314 72.064 151.298 72.096 151.277 72.128L148.877 75.664L151.597 79.536C151.65 79.6 151.677 79.6693 151.677 79.744C151.677 79.8293 151.645 79.8933 151.581 79.936C151.527 79.9787 151.453 80 151.357 80H150.381C150.285 80 150.205 79.9787 150.141 79.936C150.077 79.8933 150.018 79.8347 149.965 79.76L147.613 76.416H146.141V79.632C146.141 79.7387 146.103 79.8293 146.029 79.904C145.965 79.968 145.879 80 145.773 80H145.021ZM156.639 80.16C155.828 80.16 155.151 80.0053 154.607 79.696C154.063 79.3867 153.647 78.96 153.359 78.416C153.071 77.8613 152.911 77.232 152.879 76.528C152.868 76.3467 152.863 76.1173 152.863 75.84C152.863 75.552 152.868 75.3227 152.879 75.152C152.911 74.4373 153.071 73.808 153.359 73.264C153.658 72.72 154.079 72.2933 154.623 71.984C155.167 71.6747 155.839 71.52 156.639 71.52C157.439 71.52 158.111 71.6747 158.655 71.984C159.199 72.2933 159.615 72.72 159.903 73.264C160.202 73.808 160.367 74.4373 160.399 75.152C160.41 75.3227 160.415 75.552 160.415 75.84C160.415 76.1173 160.41 76.3467 160.399 76.528C160.367 77.232 160.207 77.8613 159.919 78.416C159.631 78.96 159.215 79.3867 158.671 79.696C158.127 80.0053 157.45 80.16 156.639 80.16ZM156.639 78.928C157.3 78.928 157.828 78.72 158.223 78.304C158.618 77.8773 158.831 77.2587 158.863 76.448C158.874 76.288 158.879 76.0853 158.879 75.84C158.879 75.5947 158.874 75.392 158.863 75.232C158.831 74.4213 158.618 73.808 158.223 73.392C157.828 72.9653 157.3 72.752 156.639 72.752C155.978 72.752 155.444 72.9653 155.039 73.392C154.644 73.808 154.436 74.4213 154.415 75.232C154.404 75.392 154.399 75.5947 154.399 75.84C154.399 76.0853 154.404 76.288 154.415 76.448C154.436 77.2587 154.644 77.8773 155.039 78.304C155.444 78.72 155.978 78.928 156.639 78.928ZM20.552 100C20.4453 100 20.3547 99.968 20.28 99.904C20.216 99.8293 20.184 99.7387 20.184 99.632V92.048C20.184 91.9413 20.216 91.856 20.28 91.792C20.3547 91.7173 20.4453 91.68 20.552 91.68H26.904C27.0107 91.68 27.096 91.7173 27.16 91.792C27.2347 91.856 27.272 91.9413 27.272 92.048V99.632C27.272 99.7387 27.2347 99.8293 27.16 99.904C27.096 99.968 27.0107 100 26.904 100H26.136C26.0293 100 25.944 99.968 25.88 99.904C25.816 99.8293 25.784 99.7387 25.784 99.632V92.96H21.672V99.632C21.672 99.7387 21.64 99.8293 21.576 99.904C21.512 99.968 21.4267 100 21.32 100H20.552ZM33.0608 100.16C32.2501 100.16 31.5728 100.005 31.0288 99.696C30.4848 99.3867 30.0688 98.96 29.7808 98.416C29.4928 97.8613 29.3328 97.232 29.3008 96.528C29.2901 96.3467 29.2848 96.1173 29.2848 95.84C29.2848 95.552 29.2901 95.3227 29.3008 95.152C29.3328 94.4373 29.4928 93.808 29.7808 93.264C30.0794 92.72 30.5008 92.2933 31.0448 91.984C31.5888 91.6747 32.2608 91.52 33.0608 91.52C33.8608 91.52 34.5328 91.6747 35.0768 91.984C35.6208 92.2933 36.0368 92.72 36.3248 93.264C36.6234 93.808 36.7888 94.4373 36.8208 95.152C36.8314 95.3227 36.8368 95.552 36.8368 95.84C36.8368 96.1173 36.8314 96.3467 36.8208 96.528C36.7888 97.232 36.6288 97.8613 36.3408 98.416C36.0528 98.96 35.6368 99.3867 35.0928 99.696C34.5488 100.005 33.8714 100.16 33.0608 100.16ZM33.0608 98.928C33.7221 98.928 34.2501 98.72 34.6448 98.304C35.0394 97.8773 35.2528 97.2587 35.2848 96.448C35.2954 96.288 35.3008 96.0853 35.3008 95.84C35.3008 95.5947 35.2954 95.392 35.2848 95.232C35.2528 94.4213 35.0394 93.808 34.6448 93.392C34.2501 92.9653 33.7221 92.752 33.0608 92.752C32.3994 92.752 31.8661 92.9653 31.4608 93.392C31.0661 93.808 30.8581 94.4213 30.8368 95.232C30.8261 95.392 30.8207 95.5947 30.8207 95.84C30.8207 96.0853 30.8261 96.288 30.8368 96.448C30.8581 97.2587 31.0661 97.8773 31.4608 98.304C31.8661 98.72 32.3994 98.928 33.0608 98.928ZM38.4403 100C38.3336 100 38.2429 99.9627 38.1683 99.888C38.0936 99.8133 38.0563 99.7227 38.0563 99.616V99.024C38.0563 98.8 38.1683 98.6827 38.3923 98.672C38.7229 98.6613 39.0003 98.5067 39.2243 98.208C39.4483 97.8987 39.6189 97.4133 39.7363 96.752C39.8536 96.08 39.9123 95.1947 39.9123 94.096V92.048C39.9123 91.9413 39.9443 91.856 40.0082 91.792C40.0829 91.7173 40.1736 91.68 40.2803 91.68H45.3683C45.4749 91.68 45.5603 91.7173 45.6243 91.792C45.6989 91.856 45.7362 91.9413 45.7362 92.048V99.632C45.7362 99.7387 45.6989 99.8293 45.6243 99.904C45.5603 99.968 45.4749 100 45.3683 100H44.6003C44.4936 100 44.4083 99.968 44.3443 99.904C44.2803 99.8293 44.2483 99.7387 44.2483 99.632V92.96H41.3683V94.272C41.3683 95.296 41.3096 96.176 41.1923 96.912C41.0749 97.6373 40.8936 98.2293 40.6483 98.688C40.4136 99.136 40.1096 99.4667 39.7363 99.68C39.3736 99.8933 38.9416 100 38.4403 100ZM48.5055 103.04C48.3882 103.04 48.2975 103.003 48.2335 102.928C48.1695 102.864 48.1375 102.779 48.1375 102.672V102.128C48.1375 102.021 48.1695 101.931 48.2335 101.856C48.2975 101.792 48.3882 101.76 48.5055 101.76H48.9215C49.1668 101.76 49.3642 101.712 49.5135 101.616C49.6628 101.52 49.7962 101.355 49.9135 101.12C50.0415 100.896 50.1908 100.587 50.3615 100.192L53.8335 91.952C53.8655 91.8667 53.9082 91.8027 53.9615 91.76C54.0255 91.7067 54.1162 91.68 54.2335 91.68H54.9375C55.0335 91.68 55.1135 91.712 55.1775 91.776C55.2415 91.84 55.2735 91.9147 55.2735 92C55.2735 92.0427 55.2682 92.0853 55.2575 92.128C55.2468 92.16 55.2255 92.2133 55.1935 92.288L52.1535 99.488C51.9935 99.872 51.8175 100.272 51.6255 100.688C51.4442 101.104 51.2362 101.488 51.0015 101.84C50.7775 102.203 50.5108 102.491 50.2015 102.704C49.8922 102.928 49.5295 103.04 49.1135 103.04H48.5055ZM50.7295 99.76L47.4975 92.288C47.4442 92.16 47.4175 92.0693 47.4175 92.016C47.4282 91.92 47.4655 91.84 47.5295 91.776C47.5935 91.712 47.6682 91.68 47.7535 91.68H48.5055C48.6228 91.68 48.7082 91.7067 48.7615 91.76C48.8255 91.8133 48.8735 91.8773 48.9055 91.952L51.5615 98.304L50.7295 99.76ZM62.1351 100C62.0178 100 61.9271 99.968 61.8631 99.904C61.7991 99.8293 61.7671 99.7387 61.7671 99.632V96.624C61.4791 96.8907 61.1271 97.088 60.7111 97.216C60.3058 97.3333 59.8418 97.392 59.3191 97.392C58.3805 97.392 57.6498 97.184 57.1271 96.768C56.6151 96.352 56.3591 95.68 56.3591 94.752V92.048C56.3591 91.9413 56.3911 91.856 56.4551 91.792C56.5298 91.7173 56.6205 91.68 56.7271 91.68H57.5111C57.6178 91.68 57.7031 91.7173 57.7671 91.792C57.8418 91.856 57.8791 91.9413 57.8791 92.048V94.656C57.8791 95.136 58.0178 95.488 58.2951 95.712C58.5831 95.936 59.0205 96.048 59.6071 96.048C60.2578 96.048 60.7805 95.968 61.1751 95.808C61.5698 95.6373 61.7671 95.3387 61.7671 94.912V92.048C61.7671 91.9413 61.7991 91.856 61.8631 91.792C61.9271 91.7173 62.0178 91.68 62.1351 91.68H62.9351C63.0418 91.68 63.1271 91.7173 63.1911 91.792C63.2658 91.856 63.3031 91.9413 63.3031 92.048V99.632C63.3031 99.7387 63.2658 99.8293 63.1911 99.904C63.1271 99.968 63.0418 100 62.9351 100H62.1351ZM66.036 100C65.94 100 65.8547 99.968 65.78 99.904C65.716 99.8293 65.684 99.7493 65.684 99.664V92.048C65.684 91.9413 65.716 91.856 65.78 91.792C65.8547 91.7173 65.9453 91.68 66.052 91.68H66.82C66.9267 91.68 67.012 91.7173 67.076 91.792C67.14 91.856 67.172 91.9413 67.172 92.048V98.832L66.756 98.4L71.604 91.92C71.6573 91.856 71.716 91.8027 71.78 91.76C71.844 91.7067 71.924 91.68 72.02 91.68H72.756C72.8413 91.68 72.916 91.712 72.98 91.776C73.0547 91.84 73.092 91.9147 73.092 92V99.632C73.092 99.7387 73.0547 99.8293 72.98 99.904C72.916 99.968 72.8307 100 72.724 100H71.972C71.8547 100 71.764 99.968 71.7 99.904C71.636 99.8293 71.604 99.7387 71.604 99.632V93.248L72.052 93.232L67.172 99.76C67.1293 99.8133 67.076 99.8667 67.012 99.92C66.948 99.9733 66.8627 100 66.756 100H66.036ZM77.978 100C77.8713 100 77.7807 99.968 77.706 99.904C77.642 99.8293 77.61 99.7387 77.61 99.632V92.96H74.826C74.7193 92.96 74.6287 92.928 74.554 92.864C74.49 92.7893 74.458 92.6987 74.458 92.592V92.048C74.458 91.9413 74.49 91.856 74.554 91.792C74.6287 91.7173 74.7193 91.68 74.826 91.68H81.866C81.9727 91.68 82.058 91.7173 82.122 91.792C82.1967 91.856 82.234 91.9413 82.234 92.048V92.592C82.234 92.6987 82.1967 92.7893 82.122 92.864C82.058 92.928 81.9727 92.96 81.866 92.96H79.082V99.632C79.082 99.7387 79.05 99.8293 78.986 99.904C78.922 99.968 78.8313 100 78.714 100H77.978ZM86.9815 100.16C86.2242 100.16 85.5682 100.016 85.0135 99.728C84.4695 99.4293 84.0482 99.008 83.7495 98.464C83.4508 97.9093 83.2908 97.248 83.2695 96.48C83.2588 96.32 83.2535 96.1067 83.2535 95.84C83.2535 95.5733 83.2588 95.36 83.2695 95.2C83.2908 94.432 83.4508 93.776 83.7495 93.232C84.0482 92.6773 84.4695 92.256 85.0135 91.968C85.5682 91.6693 86.2242 91.52 86.9815 91.52C87.6002 91.52 88.1282 91.6053 88.5655 91.776C89.0135 91.9467 89.3815 92.1653 89.6695 92.432C89.9575 92.6987 90.1708 92.9867 90.3095 93.296C90.4588 93.6053 90.5388 93.8987 90.5495 94.176C90.5602 94.2827 90.5282 94.368 90.4535 94.432C90.3788 94.496 90.2882 94.528 90.1815 94.528H89.4135C89.3068 94.528 89.2268 94.5067 89.1735 94.464C89.1202 94.4107 89.0668 94.3253 89.0135 94.208C88.8215 93.6853 88.5602 93.3173 88.2295 93.104C87.8988 92.8907 87.4882 92.784 86.9975 92.784C86.3575 92.784 85.8348 92.9813 85.4295 93.376C85.0348 93.7707 84.8215 94.4053 84.7895 95.28C84.7788 95.664 84.7788 96.0373 84.7895 96.4C84.8215 97.2853 85.0348 97.9253 85.4295 98.32C85.8348 98.704 86.3575 98.896 86.9975 98.896C87.4882 98.896 87.8988 98.7893 88.2295 98.576C88.5602 98.3627 88.8215 97.9947 89.0135 97.472C89.0668 97.3547 89.1202 97.2747 89.1735 97.232C89.2268 97.1787 89.3068 97.152 89.4135 97.152H90.1815C90.2882 97.152 90.3788 97.184 90.4535 97.248C90.5282 97.312 90.5602 97.3973 90.5495 97.504C90.5388 97.728 90.4908 97.9573 90.4055 98.192C90.3202 98.4267 90.1815 98.6667 89.9895 98.912C89.8082 99.1467 89.5788 99.36 89.3015 99.552C89.0242 99.7333 88.6882 99.8827 88.2935 100C87.9095 100.107 87.4722 100.16 86.9815 100.16ZM97.6336 100C97.5163 100 97.4256 99.968 97.3616 99.904C97.2976 99.8293 97.2656 99.7387 97.2656 99.632V97.024H95.4256V96.944C94.423 96.944 93.6763 96.6987 93.1856 96.208C92.7056 95.7067 92.4656 95.072 92.4656 94.304C92.4656 93.408 92.727 92.7467 93.2496 92.32C93.783 91.8933 94.583 91.68 95.6496 91.68H98.4016C98.5083 91.68 98.5936 91.7173 98.6576 91.792C98.7323 91.856 98.7696 91.9413 98.7696 92.048V99.632C98.7696 99.7387 98.7323 99.8293 98.6576 99.904C98.5936 99.968 98.5083 100 98.4016 100H97.6336ZM92.5616 100C92.4656 100 92.3856 99.968 92.3216 99.904C92.2576 99.84 92.2256 99.7653 92.2256 99.68C92.2256 99.6373 92.231 99.5947 92.2416 99.552C92.263 99.4987 92.295 99.4453 92.3376 99.392L94.2416 96.576L95.7776 96.688L93.7456 99.76C93.703 99.8133 93.6443 99.8667 93.5696 99.92C93.495 99.9733 93.415 100 93.3296 100H92.5616ZM95.4736 95.824H97.2816V92.88H95.6016C95.0043 92.88 94.5616 92.9867 94.2736 93.2C93.9963 93.4027 93.8576 93.7707 93.8576 94.304C93.8576 94.7413 93.9856 95.104 94.2416 95.392C94.5083 95.68 94.919 95.824 95.4736 95.824ZM105.443 100C105.336 100 105.245 99.968 105.171 99.904C105.107 99.8293 105.075 99.7387 105.075 99.632V92.048C105.075 91.9413 105.107 91.856 105.171 91.792C105.245 91.7173 105.336 91.68 105.443 91.68H111.795C111.901 91.68 111.987 91.7173 112.051 91.792C112.125 91.856 112.163 91.9413 112.163 92.048V99.632C112.163 99.7387 112.125 99.8293 112.051 99.904C111.987 99.968 111.901 100 111.795 100H111.027C110.92 100 110.835 99.968 110.771 99.904C110.707 99.8293 110.675 99.7387 110.675 99.632V92.96H106.563V99.632C106.563 99.7387 106.531 99.8293 106.467 99.904C106.403 99.968 106.317 100 106.211 100H105.443ZM117.951 100.16C117.141 100.16 116.463 100.005 115.919 99.696C115.375 99.3867 114.959 98.96 114.671 98.416C114.383 97.8613 114.223 97.232 114.191 96.528C114.181 96.3467 114.175 96.1173 114.175 95.84C114.175 95.552 114.181 95.3227 114.191 95.152C114.223 94.4373 114.383 93.808 114.671 93.264C114.97 92.72 115.391 92.2933 115.935 91.984C116.479 91.6747 117.151 91.52 117.951 91.52C118.751 91.52 119.423 91.6747 119.967 91.984C120.511 92.2933 120.927 92.72 121.215 93.264C121.514 93.808 121.679 94.4373 121.711 95.152C121.722 95.3227 121.727 95.552 121.727 95.84C121.727 96.1173 121.722 96.3467 121.711 96.528C121.679 97.232 121.519 97.8613 121.231 98.416C120.943 98.96 120.527 99.3867 119.983 99.696C119.439 100.005 118.762 100.16 117.951 100.16ZM117.951 98.928C118.613 98.928 119.141 98.72 119.535 98.304C119.93 97.8773 120.143 97.2587 120.175 96.448C120.186 96.288 120.191 96.0853 120.191 95.84C120.191 95.5947 120.186 95.392 120.175 95.232C120.143 94.4213 119.93 93.808 119.535 93.392C119.141 92.9653 118.613 92.752 117.951 92.752C117.29 92.752 116.757 92.9653 116.351 93.392C115.957 93.808 115.749 94.4213 115.727 95.232C115.717 95.392 115.711 95.5947 115.711 95.84C115.711 96.0853 115.717 96.288 115.727 96.448C115.749 97.2587 115.957 97.8773 116.351 98.304C116.757 98.72 117.29 98.928 117.951 98.928ZM22.728 120C22.6213 120 22.5307 119.968 22.456 119.904C22.392 119.829 22.36 119.739 22.36 119.632V112.96H19.576C19.4693 112.96 19.3787 112.928 19.304 112.864C19.24 112.789 19.208 112.699 19.208 112.592V112.048C19.208 111.941 19.24 111.856 19.304 111.792C19.3787 111.717 19.4693 111.68 19.576 111.68H26.616C26.7227 111.68 26.808 111.717 26.872 111.792C26.9467 111.856 26.984 111.941 26.984 112.048V112.592C26.984 112.699 26.9467 112.789 26.872 112.864C26.808 112.928 26.7227 112.96 26.616 112.96H23.832V119.632C23.832 119.739 23.8 119.829 23.736 119.904C23.672 119.968 23.5813 120 23.464 120H22.728ZM28.7555 123.04C28.6488 123.04 28.5582 123.003 28.4835 122.928C28.4195 122.864 28.3875 122.779 28.3875 122.672V112.048C28.3875 111.941 28.4195 111.856 28.4835 111.792C28.5582 111.717 28.6488 111.68 28.7555 111.68H29.4915C29.5982 111.68 29.6835 111.717 29.7475 111.792C29.8222 111.856 29.8595 111.941 29.8595 112.048V112.752C30.1155 112.4 30.4568 112.107 30.8835 111.872C31.3102 111.637 31.8435 111.52 32.4835 111.52C33.0808 111.52 33.5875 111.621 34.0035 111.824C34.4302 112.027 34.7768 112.304 35.0435 112.656C35.3208 113.008 35.5288 113.408 35.6675 113.856C35.8062 114.304 35.8808 114.784 35.8915 115.296C35.9022 115.467 35.9075 115.648 35.9075 115.84C35.9075 116.032 35.9022 116.213 35.8915 116.384C35.8808 116.885 35.8062 117.365 35.6675 117.824C35.5288 118.272 35.3208 118.672 35.0435 119.024C34.7768 119.365 34.4302 119.643 34.0035 119.856C33.5875 120.059 33.0808 120.16 32.4835 120.16C31.8648 120.16 31.3422 120.048 30.9155 119.824C30.4995 119.589 30.1582 119.301 29.8915 118.96V122.672C29.8915 122.779 29.8595 122.864 29.7955 122.928C29.7315 123.003 29.6408 123.04 29.5235 123.04H28.7555ZM32.1475 118.864C32.7022 118.864 33.1342 118.747 33.4435 118.512C33.7635 118.267 33.9928 117.952 34.1315 117.568C34.2702 117.173 34.3502 116.752 34.3715 116.304C34.3822 115.995 34.3822 115.685 34.3715 115.376C34.3502 114.928 34.2702 114.512 34.1315 114.128C33.9928 113.733 33.7635 113.419 33.4435 113.184C33.1342 112.939 32.7022 112.816 32.1475 112.816C31.6248 112.816 31.1982 112.939 30.8675 113.184C30.5475 113.429 30.3075 113.744 30.1475 114.128C29.9982 114.501 29.9128 114.885 29.8915 115.28C29.8808 115.451 29.8755 115.653 29.8755 115.888C29.8755 116.123 29.8808 116.331 29.8915 116.512C29.9022 116.885 29.9875 117.253 30.1475 117.616C30.3182 117.979 30.5688 118.277 30.8995 118.512C31.2302 118.747 31.6462 118.864 32.1475 118.864ZM41.2148 120.16C40.1161 120.16 39.2414 119.824 38.5908 119.152C37.9401 118.469 37.5828 117.541 37.5188 116.368C37.5081 116.229 37.5028 116.053 37.5028 115.84C37.5028 115.616 37.5081 115.435 37.5188 115.296C37.5614 114.539 37.7374 113.877 38.0468 113.312C38.3561 112.736 38.7774 112.293 39.3108 111.984C39.8548 111.675 40.4894 111.52 41.2148 111.52C42.0254 111.52 42.7028 111.691 43.2468 112.032C43.8014 112.373 44.2228 112.859 44.5108 113.488C44.7988 114.117 44.9427 114.853 44.9427 115.696V115.968C44.9427 116.085 44.9054 116.176 44.8308 116.24C44.7668 116.304 44.6814 116.336 44.5748 116.336H39.0388C39.0388 116.347 39.0388 116.368 39.0388 116.4C39.0388 116.432 39.0388 116.459 39.0388 116.48C39.0601 116.917 39.1561 117.328 39.3268 117.712C39.4974 118.085 39.7428 118.389 40.0628 118.624C40.3828 118.859 40.7668 118.976 41.2148 118.976C41.5988 118.976 41.9188 118.917 42.1748 118.8C42.4308 118.683 42.6388 118.555 42.7988 118.416C42.9588 118.267 43.0654 118.155 43.1188 118.08C43.2148 117.941 43.2894 117.861 43.3428 117.84C43.3961 117.808 43.4814 117.792 43.5988 117.792H44.3668C44.4734 117.792 44.5588 117.824 44.6228 117.888C44.6974 117.941 44.7294 118.021 44.7188 118.128C44.7081 118.288 44.6228 118.485 44.4628 118.72C44.3028 118.944 44.0734 119.168 43.7748 119.392C43.4761 119.616 43.1134 119.803 42.6868 119.952C42.2601 120.091 41.7694 120.16 41.2148 120.16ZM39.0388 115.232H43.4228V115.184C43.4228 114.704 43.3321 114.277 43.1508 113.904C42.9801 113.531 42.7294 113.237 42.3988 113.024C42.0681 112.8 41.6734 112.688 41.2148 112.688C40.7561 112.688 40.3614 112.8 40.0308 113.024C39.7108 113.237 39.4654 113.531 39.2948 113.904C39.1241 114.277 39.0388 114.704 39.0388 115.184V115.232ZM50.3759 120.16C49.5545 120.16 48.8665 120.005 48.3119 119.696C47.7679 119.376 47.3519 118.928 47.0639 118.352C46.7865 117.765 46.6372 117.088 46.6159 116.32C46.6052 116 46.5999 115.68 46.5999 115.36C46.5999 115.04 46.6052 114.72 46.6159 114.4C46.6159 113.429 46.6959 112.624 46.8559 111.984C47.0159 111.344 47.2559 110.821 47.5759 110.416C47.9065 110 48.3225 109.659 48.8239 109.392C49.3252 109.125 49.9172 108.896 50.5999 108.704C51.2825 108.501 52.0612 108.288 52.9359 108.064C53.0319 108.043 53.1225 108.059 53.2079 108.112C53.3039 108.165 53.3572 108.24 53.3679 108.336L53.4959 108.992C53.5172 109.088 53.5012 109.173 53.4479 109.248C53.4052 109.323 53.3359 109.371 53.2399 109.392C52.4399 109.595 51.7412 109.771 51.1439 109.92C50.5465 110.069 50.0452 110.245 49.6399 110.448C49.2345 110.64 48.9092 110.891 48.6639 111.2C48.4185 111.509 48.2479 111.92 48.1519 112.432C48.0665 112.944 48.0399 113.6 48.0719 114.4L47.7199 114.256C47.7732 113.861 47.9385 113.504 48.2159 113.184C48.5039 112.853 48.8612 112.587 49.2879 112.384C49.7145 112.181 50.1679 112.08 50.6479 112.08C51.3839 112.08 52.0025 112.235 52.5039 112.544C53.0159 112.853 53.4052 113.275 53.6719 113.808C53.9492 114.341 54.1039 114.955 54.1359 115.648C54.1572 116.011 54.1572 116.325 54.1359 116.592C54.1039 117.285 53.9439 117.904 53.6559 118.448C53.3679 118.981 52.9519 119.403 52.4079 119.712C51.8639 120.011 51.1865 120.16 50.3759 120.16ZM50.3759 118.976C51.0479 118.976 51.5812 118.768 51.9759 118.352C52.3705 117.936 52.5785 117.328 52.5999 116.528C52.6105 116.421 52.6159 116.299 52.6159 116.16C52.6159 116.021 52.6105 115.877 52.5999 115.728C52.5785 114.917 52.3705 114.304 51.9759 113.888C51.5919 113.472 51.1065 113.264 50.5199 113.264C49.8479 113.264 49.2932 113.472 48.8559 113.888C48.4185 114.304 48.1839 114.917 48.1519 115.728C48.1412 115.877 48.1359 116.021 48.1359 116.16C48.1359 116.299 48.1412 116.421 48.1519 116.528C48.1839 117.328 48.3972 117.936 48.7919 118.352C49.1865 118.768 49.7145 118.976 50.3759 118.976ZM59.5608 120.16C58.7501 120.16 58.0728 120.005 57.5288 119.696C56.9848 119.387 56.5688 118.96 56.2808 118.416C55.9928 117.861 55.8328 117.232 55.8008 116.528C55.7901 116.347 55.7848 116.117 55.7848 115.84C55.7848 115.552 55.7901 115.323 55.8008 115.152C55.8328 114.437 55.9928 113.808 56.2808 113.264C56.5794 112.72 57.0008 112.293 57.5448 111.984C58.0888 111.675 58.7608 111.52 59.5608 111.52C60.3608 111.52 61.0328 111.675 61.5768 111.984C62.1208 112.293 62.5368 112.72 62.8248 113.264C63.1234 113.808 63.2888 114.437 63.3208 115.152C63.3314 115.323 63.3368 115.552 63.3368 115.84C63.3368 116.117 63.3314 116.347 63.3208 116.528C63.2888 117.232 63.1288 117.861 62.8408 118.416C62.5528 118.96 62.1368 119.387 61.5928 119.696C61.0488 120.005 60.3714 120.16 59.5608 120.16ZM59.5608 118.928C60.2221 118.928 60.7501 118.72 61.1448 118.304C61.5394 117.877 61.7528 117.259 61.7848 116.448C61.7954 116.288 61.8008 116.085 61.8008 115.84C61.8008 115.595 61.7954 115.392 61.7848 115.232C61.7528 114.421 61.5394 113.808 61.1448 113.392C60.7501 112.965 60.2221 112.752 59.5608 112.752C58.8994 112.752 58.3661 112.965 57.9608 113.392C57.5661 113.808 57.3581 114.421 57.3368 115.232C57.3261 115.392 57.3207 115.595 57.3207 115.84C57.3207 116.085 57.3261 116.288 57.3368 116.448C57.3581 117.259 57.5661 117.877 57.9608 118.304C58.3661 118.72 58.8994 118.928 59.5608 118.928ZM65.7083 120C65.6016 120 65.5109 119.968 65.4363 119.904C65.3723 119.829 65.3403 119.739 65.3403 119.632V112.048C65.3403 111.941 65.3723 111.856 65.4363 111.792C65.5109 111.717 65.6016 111.68 65.7083 111.68H69.0363C70.0389 111.68 70.7909 111.883 71.2923 112.288C71.8043 112.693 72.0603 113.237 72.0603 113.92C72.0603 114.4 71.9696 114.763 71.7883 115.008C71.6069 115.253 71.3509 115.461 71.0203 115.632C71.4256 115.803 71.7296 116.08 71.9323 116.464C72.1456 116.837 72.2523 117.227 72.2523 117.632C72.2523 118.4 71.9803 118.987 71.4363 119.392C70.8923 119.797 70.1349 120 69.1643 120H65.7083ZM66.8123 118.832H69.0363C69.5483 118.832 69.9589 118.736 70.2683 118.544C70.5883 118.341 70.7483 118.037 70.7483 117.632C70.7483 117.205 70.6043 116.896 70.3163 116.704C70.0283 116.501 69.6016 116.4 69.0363 116.4H66.8123V118.832ZM66.8123 115.216H68.9403C69.4523 115.216 69.8576 115.104 70.1563 114.88C70.4656 114.656 70.6203 114.341 70.6203 113.936C70.6203 113.52 70.4656 113.237 70.1563 113.088C69.8576 112.928 69.4523 112.848 68.9403 112.848H66.8123V115.216ZM76.629 120.16C76.0957 120.16 75.6103 120.053 75.173 119.84C74.7357 119.627 74.3837 119.339 74.117 118.976C73.8503 118.613 73.717 118.203 73.717 117.744C73.717 117.008 74.0157 116.421 74.613 115.984C75.2103 115.547 75.989 115.259 76.949 115.12L79.333 114.784V114.32C79.333 113.808 79.1837 113.408 78.885 113.12C78.597 112.832 78.1223 112.688 77.461 112.688C76.981 112.688 76.5917 112.784 76.293 112.976C76.005 113.168 75.8023 113.413 75.685 113.712C75.621 113.872 75.509 113.952 75.349 113.952H74.629C74.5117 113.952 74.421 113.92 74.357 113.856C74.3037 113.781 74.277 113.696 74.277 113.6C74.277 113.44 74.3357 113.243 74.453 113.008C74.581 112.773 74.773 112.544 75.029 112.32C75.285 112.096 75.6103 111.909 76.005 111.76C76.4103 111.6 76.901 111.52 77.477 111.52C78.117 111.52 78.6557 111.605 79.093 111.776C79.5303 111.936 79.8717 112.155 80.117 112.432C80.373 112.709 80.5543 113.024 80.661 113.376C80.7783 113.728 80.837 114.085 80.837 114.448V119.632C80.837 119.739 80.7997 119.829 80.725 119.904C80.661 119.968 80.5757 120 80.469 120H79.733C79.6157 120 79.525 119.968 79.461 119.904C79.397 119.829 79.365 119.739 79.365 119.632V118.944C79.2263 119.136 79.0397 119.328 78.805 119.52C78.5703 119.701 78.277 119.856 77.925 119.984C77.573 120.101 77.141 120.16 76.629 120.16ZM76.965 118.96C77.4023 118.96 77.8023 118.869 78.165 118.688C78.5277 118.496 78.8103 118.203 79.013 117.808C79.2263 117.413 79.333 116.917 79.333 116.32V115.872L77.477 116.144C76.7197 116.251 76.149 116.432 75.765 116.688C75.381 116.933 75.189 117.248 75.189 117.632C75.189 117.931 75.2743 118.181 75.445 118.384C75.6263 118.576 75.8503 118.72 76.117 118.816C76.3943 118.912 76.677 118.96 76.965 118.96ZM83.5051 120C83.3985 120 83.3078 119.968 83.2331 119.904C83.1691 119.829 83.1371 119.739 83.1371 119.632V112.048C83.1371 111.941 83.1691 111.856 83.2331 111.792C83.3078 111.717 83.3985 111.68 83.5051 111.68H84.2731C84.3798 111.68 84.4651 111.717 84.5291 111.792C84.5931 111.856 84.6251 111.941 84.6251 112.048V115.12H88.9931V112.048C88.9931 111.941 89.0251 111.856 89.0891 111.792C89.1638 111.717 89.2545 111.68 89.3611 111.68H90.1131C90.2198 111.68 90.3051 111.717 90.3691 111.792C90.4438 111.856 90.4811 111.941 90.4811 112.048V119.632C90.4811 119.739 90.4438 119.829 90.3691 119.904C90.3051 119.968 90.2198 120 90.1131 120H89.3611C89.2545 120 89.1638 119.968 89.0891 119.904C89.0251 119.829 88.9931 119.739 88.9931 119.632V116.4H84.6251V119.632C84.6251 119.739 84.5931 119.829 84.5291 119.904C84.4651 119.968 84.3798 120 84.2731 120H83.5051ZM93.2391 120C93.1431 120 93.0578 119.968 92.9831 119.904C92.9191 119.829 92.8871 119.749 92.8871 119.664V112.048C92.8871 111.941 92.9191 111.856 92.9831 111.792C93.0578 111.717 93.1485 111.68 93.2551 111.68H94.0231C94.1298 111.68 94.2151 111.717 94.2791 111.792C94.3431 111.856 94.3751 111.941 94.3751 112.048V118.832L93.9591 118.4L98.8071 111.92C98.8605 111.856 98.9191 111.803 98.9831 111.76C99.0471 111.707 99.1271 111.68 99.2231 111.68H99.9591C100.044 111.68 100.119 111.712 100.183 111.776C100.258 111.84 100.295 111.915 100.295 112V119.632C100.295 119.739 100.258 119.829 100.183 119.904C100.119 119.968 100.034 120 99.9271 120H99.1751C99.0578 120 98.9671 119.968 98.9031 119.904C98.8391 119.829 98.8071 119.739 98.8071 119.632V113.248L99.2551 113.232L94.3751 119.76C94.3325 119.813 94.2791 119.867 94.2151 119.92C94.1511 119.973 94.0658 120 93.9591 120H93.2391ZM107.821 120C107.704 120 107.613 119.968 107.549 119.904C107.485 119.829 107.453 119.739 107.453 119.632V117.024H105.613V116.944C104.61 116.944 103.864 116.699 103.373 116.208C102.893 115.707 102.653 115.072 102.653 114.304C102.653 113.408 102.914 112.747 103.437 112.32C103.97 111.893 104.77 111.68 105.837 111.68H108.589C108.696 111.68 108.781 111.717 108.845 111.792C108.92 111.856 108.957 111.941 108.957 112.048V119.632C108.957 119.739 108.92 119.829 108.845 119.904C108.781 119.968 108.696 120 108.589 120H107.821ZM102.749 120C102.653 120 102.573 119.968 102.509 119.904C102.445 119.84 102.413 119.765 102.413 119.68C102.413 119.637 102.418 119.595 102.429 119.552C102.45 119.499 102.482 119.445 102.525 119.392L104.429 116.576L105.965 116.688L103.933 119.76C103.89 119.813 103.832 119.867 103.757 119.92C103.682 119.973 103.602 120 103.517 120H102.749ZM105.661 115.824H107.469V112.88H105.789C105.192 112.88 104.749 112.987 104.461 113.2C104.184 113.403 104.045 113.771 104.045 114.304C104.045 114.741 104.173 115.104 104.429 115.392C104.696 115.68 105.106 115.824 105.661 115.824ZM111.692 120C111.586 120 111.5 119.968 111.436 119.904C111.372 119.84 111.34 119.755 111.34 119.648V111.984C111.34 111.899 111.372 111.829 111.436 111.776C111.511 111.712 111.586 111.68 111.66 111.68H112.476C112.647 111.68 112.78 111.765 112.876 111.936L115.596 117.024L118.332 111.936C118.428 111.765 118.562 111.68 118.732 111.68H119.532C119.618 111.68 119.692 111.712 119.756 111.776C119.82 111.829 119.852 111.899 119.852 111.984V119.648C119.852 119.755 119.82 119.84 119.756 119.904C119.692 119.968 119.612 120 119.516 120H118.732C118.626 120 118.54 119.968 118.476 119.904C118.412 119.84 118.38 119.755 118.38 119.648V113.264L118.94 113.328L116.332 118.256C116.279 118.363 116.215 118.459 116.14 118.544C116.066 118.629 115.954 118.672 115.804 118.672H115.388C115.25 118.672 115.143 118.629 115.068 118.544C114.994 118.459 114.924 118.363 114.86 118.256L112.332 113.568L112.828 113.52V119.648C112.828 119.755 112.796 119.84 112.732 119.904C112.668 119.968 112.583 120 112.476 120H111.692ZM20.552 140C20.4453 140 20.3547 139.968 20.28 139.904C20.216 139.829 20.184 139.739 20.184 139.632V132.048C20.184 131.941 20.216 131.856 20.28 131.792C20.3547 131.717 20.4453 131.68 20.552 131.68H21.304C21.4107 131.68 21.496 131.717 21.56 131.792C21.6347 131.856 21.672 131.941 21.672 132.048V135.12H23.128L25.288 131.92C25.3413 131.845 25.4 131.787 25.464 131.744C25.528 131.701 25.6133 131.68 25.72 131.68H26.552C26.648 131.68 26.728 131.701 26.792 131.744C26.856 131.787 26.888 131.851 26.888 131.936C26.888 131.957 26.8773 131.989 26.856 132.032C26.8453 132.064 26.8293 132.096 26.808 132.128L24.408 135.664L27.128 139.536C27.1813 139.6 27.208 139.669 27.208 139.744C27.208 139.829 27.176 139.893 27.112 139.936C27.0587 139.979 26.984 140 26.888 140H25.912C25.816 140 25.736 139.979 25.672 139.936C25.608 139.893 25.5493 139.835 25.496 139.76L23.144 136.416H21.672V139.632C21.672 139.739 21.6347 139.829 21.56 139.904C21.496 139.968 21.4107 140 21.304 140H20.552ZM33.052 140C32.9453 140 32.8547 139.968 32.78 139.904C32.716 139.829 32.684 139.739 32.684 139.632V132.048C32.684 131.941 32.716 131.856 32.78 131.792C32.8547 131.717 32.9453 131.68 33.052 131.68H39.404C39.5107 131.68 39.596 131.717 39.66 131.792C39.7347 131.856 39.772 131.941 39.772 132.048V139.632C39.772 139.739 39.7347 139.829 39.66 139.904C39.596 139.968 39.5107 140 39.404 140H38.636C38.5293 140 38.444 139.968 38.38 139.904C38.316 139.829 38.284 139.739 38.284 139.632V132.96H34.172V139.632C34.172 139.739 34.14 139.829 34.076 139.904C34.012 139.968 33.9267 140 33.82 140H33.052ZM42.5368 143.04C42.4301 143.04 42.3394 143.003 42.2648 142.928C42.2008 142.864 42.1688 142.779 42.1688 142.672V132.048C42.1688 131.941 42.2008 131.856 42.2648 131.792C42.3394 131.717 42.4301 131.68 42.5368 131.68H43.2728C43.3794 131.68 43.4648 131.717 43.5288 131.792C43.6034 131.856 43.6408 131.941 43.6408 132.048V132.752C43.8968 132.4 44.2381 132.107 44.6648 131.872C45.0914 131.637 45.6248 131.52 46.2648 131.52C46.8621 131.52 47.3688 131.621 47.7848 131.824C48.2114 132.027 48.5581 132.304 48.8248 132.656C49.1021 133.008 49.3101 133.408 49.4488 133.856C49.5874 134.304 49.6621 134.784 49.6728 135.296C49.6834 135.467 49.6888 135.648 49.6888 135.84C49.6888 136.032 49.6834 136.213 49.6728 136.384C49.6621 136.885 49.5874 137.365 49.4488 137.824C49.3101 138.272 49.1021 138.672 48.8248 139.024C48.5581 139.365 48.2114 139.643 47.7848 139.856C47.3688 140.059 46.8621 140.16 46.2648 140.16C45.6461 140.16 45.1234 140.048 44.6968 139.824C44.2808 139.589 43.9394 139.301 43.6728 138.96V142.672C43.6728 142.779 43.6408 142.864 43.5768 142.928C43.5128 143.003 43.4221 143.04 43.3048 143.04H42.5368ZM45.9288 138.864C46.4834 138.864 46.9154 138.747 47.2248 138.512C47.5448 138.267 47.7741 137.952 47.9128 137.568C48.0514 137.173 48.1314 136.752 48.1528 136.304C48.1634 135.995 48.1634 135.685 48.1528 135.376C48.1314 134.928 48.0514 134.512 47.9128 134.128C47.7741 133.733 47.5448 133.419 47.2248 133.184C46.9154 132.939 46.4834 132.816 45.9288 132.816C45.4061 132.816 44.9794 132.939 44.6488 133.184C44.3288 133.429 44.0888 133.744 43.9288 134.128C43.7794 134.501 43.6941 134.885 43.6728 135.28C43.6621 135.451 43.6568 135.653 43.6568 135.888C43.6568 136.123 43.6621 136.331 43.6728 136.512C43.6834 136.885 43.7688 137.253 43.9288 137.616C44.0994 137.979 44.3501 138.277 44.6808 138.512C45.0114 138.747 45.4274 138.864 45.9288 138.864ZM55.092 140.16C54.2813 140.16 53.604 140.005 53.06 139.696C52.516 139.387 52.1 138.96 51.812 138.416C51.524 137.861 51.364 137.232 51.332 136.528C51.3213 136.347 51.316 136.117 51.316 135.84C51.316 135.552 51.3213 135.323 51.332 135.152C51.364 134.437 51.524 133.808 51.812 133.264C52.1107 132.72 52.532 132.293 53.076 131.984C53.62 131.675 54.292 131.52 55.092 131.52C55.892 131.52 56.564 131.675 57.108 131.984C57.652 132.293 58.068 132.72 58.356 133.264C58.6547 133.808 58.82 134.437 58.852 135.152C58.8627 135.323 58.868 135.552 58.868 135.84C58.868 136.117 58.8627 136.347 58.852 136.528C58.82 137.232 58.66 137.861 58.372 138.416C58.084 138.96 57.668 139.387 57.124 139.696C56.58 140.005 55.9027 140.16 55.092 140.16ZM55.092 138.928C55.7533 138.928 56.2813 138.72 56.676 138.304C57.0707 137.877 57.284 137.259 57.316 136.448C57.3267 136.288 57.332 136.085 57.332 135.84C57.332 135.595 57.3267 135.392 57.316 135.232C57.284 134.421 57.0707 133.808 56.676 133.392C56.2813 132.965 55.7533 132.752 55.092 132.752C54.4307 132.752 53.8973 132.965 53.492 133.392C53.0973 133.808 52.8893 134.421 52.868 135.232C52.8573 135.392 52.852 135.595 52.852 135.84C52.852 136.085 52.8573 136.288 52.868 136.448C52.8893 137.259 53.0973 137.877 53.492 138.304C53.8973 138.72 54.4307 138.928 55.092 138.928ZM61.2395 140C61.1328 140 61.0422 139.968 60.9675 139.904C60.9035 139.829 60.8715 139.739 60.8715 139.632V132.048C60.8715 131.941 60.9035 131.856 60.9675 131.792C61.0422 131.717 61.1328 131.68 61.2395 131.68H64.5675C65.5702 131.68 66.3222 131.883 66.8235 132.288C67.3355 132.693 67.5915 133.237 67.5915 133.92C67.5915 134.4 67.5008 134.763 67.3195 135.008C67.1382 135.253 66.8822 135.461 66.5515 135.632C66.9568 135.803 67.2608 136.08 67.4635 136.464C67.6768 136.837 67.7835 137.227 67.7835 137.632C67.7835 138.4 67.5115 138.987 66.9675 139.392C66.4235 139.797 65.6662 140 64.6955 140H61.2395ZM62.3435 138.832H64.5675C65.0795 138.832 65.4902 138.736 65.7995 138.544C66.1195 138.341 66.2795 138.037 66.2795 137.632C66.2795 137.205 66.1355 136.896 65.8475 136.704C65.5595 136.501 65.1328 136.4 64.5675 136.4H62.3435V138.832ZM62.3435 135.216H64.4715C64.9835 135.216 65.3888 135.104 65.6875 134.88C65.9968 134.656 66.1515 134.341 66.1515 133.936C66.1515 133.52 65.9968 133.237 65.6875 133.088C65.3888 132.928 64.9835 132.848 64.4715 132.848H62.3435V135.216ZM73.2483 140.16C72.4376 140.16 71.7603 140.005 71.2163 139.696C70.6723 139.387 70.2563 138.96 69.9683 138.416C69.6803 137.861 69.5203 137.232 69.4883 136.528C69.4776 136.347 69.4723 136.117 69.4723 135.84C69.4723 135.552 69.4776 135.323 69.4883 135.152C69.5203 134.437 69.6803 133.808 69.9683 133.264C70.2669 132.72 70.6883 132.293 71.2323 131.984C71.7763 131.675 72.4483 131.52 73.2483 131.52C74.0483 131.52 74.7203 131.675 75.2643 131.984C75.8083 132.293 76.2243 132.72 76.5123 133.264C76.8109 133.808 76.9763 134.437 77.0083 135.152C77.0189 135.323 77.0243 135.552 77.0243 135.84C77.0243 136.117 77.0189 136.347 77.0083 136.528C76.9763 137.232 76.8163 137.861 76.5283 138.416C76.2403 138.96 75.8243 139.387 75.2803 139.696C74.7363 140.005 74.0589 140.16 73.2483 140.16ZM73.2483 138.928C73.9096 138.928 74.4376 138.72 74.8323 138.304C75.2269 137.877 75.4403 137.259 75.4723 136.448C75.4829 136.288 75.4883 136.085 75.4883 135.84C75.4883 135.595 75.4829 135.392 75.4723 135.232C75.4403 134.421 75.2269 133.808 74.8323 133.392C74.4376 132.965 73.9096 132.752 73.2483 132.752C72.5869 132.752 72.0536 132.965 71.6483 133.392C71.2536 133.808 71.0456 134.421 71.0243 135.232C71.0136 135.392 71.0082 135.595 71.0082 135.84C71.0082 136.085 71.0136 136.288 71.0243 136.448C71.0456 137.259 71.2536 137.877 71.6483 138.304C72.0536 138.72 72.5869 138.928 73.2483 138.928ZM81.9238 140.16C81.2944 140.16 80.7611 140.085 80.3238 139.936C79.8971 139.776 79.5504 139.579 79.2838 139.344C79.0278 139.099 78.8411 138.848 78.7238 138.592C78.6064 138.325 78.5424 138.08 78.5318 137.856C78.5318 137.76 78.5638 137.685 78.6278 137.632C78.6918 137.568 78.7664 137.536 78.8518 137.536H79.6038C79.6998 137.536 79.7798 137.563 79.8438 137.616C79.9078 137.659 79.9558 137.739 79.9878 137.856C80.1158 138.261 80.3611 138.544 80.7238 138.704C81.0864 138.864 81.5291 138.944 82.0518 138.944C82.3931 138.944 82.7078 138.901 82.9958 138.816C83.2838 138.72 83.5078 138.571 83.6678 138.368C83.8384 138.165 83.9238 137.915 83.9238 137.616C83.9238 137.179 83.7958 136.848 83.5398 136.624C83.2944 136.4 82.9104 136.288 82.3878 136.288H81.5078C81.4011 136.288 81.3158 136.256 81.2518 136.192C81.1878 136.128 81.1558 136.043 81.1558 135.936V135.504C81.1558 135.408 81.1878 135.328 81.2518 135.264C81.3158 135.189 81.4011 135.152 81.5078 135.152H82.2918C82.7291 135.152 83.0651 135.067 83.2998 134.896C83.5344 134.725 83.6518 134.453 83.6518 134.08C83.6518 133.856 83.5984 133.643 83.4918 133.44C83.3851 133.237 83.2038 133.072 82.9478 132.944C82.7024 132.805 82.3611 132.736 81.9238 132.736C81.3051 132.736 80.8678 132.843 80.6118 133.056C80.3664 133.259 80.1904 133.563 80.0838 133.968C80.0411 134.085 79.9878 134.165 79.9238 134.208C79.8704 134.251 79.7904 134.272 79.6838 134.272H78.9638C78.8678 134.272 78.7878 134.245 78.7238 134.192C78.6598 134.139 78.6278 134.064 78.6278 133.968C78.6384 133.648 78.7078 133.344 78.8358 133.056C78.9744 132.768 79.1771 132.507 79.4438 132.272C79.7211 132.037 80.0624 131.856 80.4678 131.728C80.8838 131.589 81.3691 131.52 81.9238 131.52C82.7238 131.52 83.3531 131.643 83.8118 131.888C84.2811 132.133 84.6118 132.437 84.8038 132.8C85.0064 133.152 85.1078 133.504 85.1078 133.856C85.1078 134.272 85.0384 134.619 84.8998 134.896C84.7718 135.173 84.5158 135.408 84.1318 135.6C84.6118 135.781 84.9424 136.053 85.1238 136.416C85.3051 136.779 85.4011 137.2 85.4118 137.68C85.4224 138.235 85.2731 138.693 84.9638 139.056C84.6651 139.419 84.2544 139.696 83.7318 139.888C83.2091 140.069 82.6064 140.16 81.9238 140.16ZM87.5993 143.04C87.4819 143.04 87.3913 143.003 87.3273 142.928C87.2633 142.864 87.2313 142.779 87.2313 142.672V142.128C87.2313 142.021 87.2633 141.931 87.3273 141.856C87.3913 141.792 87.4819 141.76 87.5993 141.76H88.0153C88.2606 141.76 88.4579 141.712 88.6073 141.616C88.7566 141.52 88.8899 141.355 89.0073 141.12C89.1353 140.896 89.2846 140.587 89.4553 140.192L92.9273 131.952C92.9593 131.867 93.0019 131.803 93.0553 131.76C93.1193 131.707 93.2099 131.68 93.3273 131.68H94.0312C94.1273 131.68 94.2073 131.712 94.2713 131.776C94.3353 131.84 94.3673 131.915 94.3673 132C94.3673 132.043 94.3619 132.085 94.3513 132.128C94.3406 132.16 94.3193 132.213 94.2873 132.288L91.2473 139.488C91.0873 139.872 90.9113 140.272 90.7193 140.688C90.5379 141.104 90.3299 141.488 90.0953 141.84C89.8713 142.203 89.6046 142.491 89.2953 142.704C88.9859 142.928 88.6233 143.04 88.2073 143.04H87.5993ZM89.8233 139.76L86.5913 132.288C86.5379 132.16 86.5113 132.069 86.5113 132.016C86.5219 131.92 86.5593 131.84 86.6233 131.776C86.6873 131.712 86.7619 131.68 86.8473 131.68H87.5993C87.7166 131.68 87.8019 131.707 87.8553 131.76C87.9193 131.813 87.9673 131.877 87.9993 131.952L90.6553 138.304L89.8233 139.76ZM103.423 140.16C102.601 140.16 101.913 140.005 101.359 139.696C100.815 139.376 100.399 138.928 100.111 138.352C99.8334 137.765 99.6841 137.088 99.6628 136.32C99.6521 136 99.6468 135.68 99.6468 135.36C99.6468 135.04 99.6521 134.72 99.6628 134.4C99.6628 133.429 99.7428 132.624 99.9028 131.984C100.063 131.344 100.303 130.821 100.623 130.416C100.953 130 101.369 129.659 101.871 129.392C102.372 129.125 102.964 128.896 103.647 128.704C104.329 128.501 105.108 128.288 105.983 128.064C106.079 128.043 106.169 128.059 106.255 128.112C106.351 128.165 106.404 128.24 106.415 128.336L106.543 128.992C106.564 129.088 106.548 129.173 106.495 129.248C106.452 129.323 106.383 129.371 106.287 129.392C105.487 129.595 104.788 129.771 104.191 129.92C103.593 130.069 103.092 130.245 102.687 130.448C102.281 130.64 101.956 130.891 101.711 131.2C101.465 131.509 101.295 131.92 101.199 132.432C101.113 132.944 101.087 133.6 101.119 134.4L100.767 134.256C100.82 133.861 100.985 133.504 101.263 133.184C101.551 132.853 101.908 132.587 102.335 132.384C102.761 132.181 103.215 132.08 103.695 132.08C104.431 132.08 105.049 132.235 105.551 132.544C106.063 132.853 106.452 133.275 106.719 133.808C106.996 134.341 107.151 134.955 107.183 135.648C107.204 136.011 107.204 136.325 107.183 136.592C107.151 137.285 106.991 137.904 106.703 138.448C106.415 138.981 105.999 139.403 105.455 139.712C104.911 140.011 104.233 140.16 103.423 140.16ZM103.423 138.976C104.095 138.976 104.628 138.768 105.023 138.352C105.417 137.936 105.625 137.328 105.647 136.528C105.657 136.421 105.663 136.299 105.663 136.16C105.663 136.021 105.657 135.877 105.647 135.728C105.625 134.917 105.417 134.304 105.023 133.888C104.639 133.472 104.153 133.264 103.567 133.264C102.895 133.264 102.34 133.472 101.903 133.888C101.465 134.304 101.231 134.917 101.199 135.728C101.188 135.877 101.183 136.021 101.183 136.16C101.183 136.299 101.188 136.421 101.199 136.528C101.231 137.328 101.444 137.936 101.839 138.352C102.233 138.768 102.761 138.976 103.423 138.976ZM111.52 140.16C110.986 140.16 110.501 140.053 110.064 139.84C109.626 139.627 109.274 139.339 109.008 138.976C108.741 138.613 108.608 138.203 108.608 137.744C108.608 137.008 108.906 136.421 109.504 135.984C110.101 135.547 110.88 135.259 111.84 135.12L114.224 134.784V134.32C114.224 133.808 114.074 133.408 113.776 133.12C113.488 132.832 113.013 132.688 112.352 132.688C111.872 132.688 111.482 132.784 111.184 132.976C110.896 133.168 110.693 133.413 110.576 133.712C110.512 133.872 110.4 133.952 110.24 133.952H109.52C109.402 133.952 109.312 133.92 109.248 133.856C109.194 133.781 109.168 133.696 109.168 133.6C109.168 133.44 109.226 133.243 109.344 133.008C109.472 132.773 109.664 132.544 109.92 132.32C110.176 132.096 110.501 131.909 110.896 131.76C111.301 131.6 111.792 131.52 112.368 131.52C113.008 131.52 113.546 131.605 113.984 131.776C114.421 131.936 114.762 132.155 115.008 132.432C115.264 132.709 115.445 133.024 115.552 133.376C115.669 133.728 115.728 134.085 115.728 134.448V139.632C115.728 139.739 115.69 139.829 115.616 139.904C115.552 139.968 115.466 140 115.36 140H114.624C114.506 140 114.416 139.968 114.352 139.904C114.288 139.829 114.256 139.739 114.256 139.632V138.944C114.117 139.136 113.93 139.328 113.696 139.52C113.461 139.701 113.168 139.856 112.816 139.984C112.464 140.101 112.032 140.16 111.52 140.16ZM111.856 138.96C112.293 138.96 112.693 138.869 113.056 138.688C113.418 138.496 113.701 138.203 113.904 137.808C114.117 137.413 114.224 136.917 114.224 136.32V135.872L112.368 136.144C111.61 136.251 111.04 136.432 110.656 136.688C110.272 136.933 110.08 137.248 110.08 137.632C110.08 137.931 110.165 138.181 110.336 138.384C110.517 138.576 110.741 138.72 111.008 138.816C111.285 138.912 111.568 138.96 111.856 138.96ZM118.396 140C118.289 140 118.198 139.968 118.124 139.904C118.06 139.829 118.028 139.739 118.028 139.632V132.048C118.028 131.941 118.06 131.856 118.124 131.792C118.198 131.717 118.289 131.68 118.396 131.68H123.18C123.286 131.68 123.372 131.717 123.436 131.792C123.5 131.856 123.532 131.941 123.532 132.048V132.592C123.532 132.699 123.5 132.789 123.436 132.864C123.372 132.928 123.286 132.96 123.18 132.96H119.516V139.632C119.516 139.739 119.484 139.829 119.42 139.904C119.356 139.968 119.27 140 119.164 140H118.396ZM127.223 140.16C126.689 140.16 126.204 140.053 125.767 139.84C125.329 139.627 124.977 139.339 124.711 138.976C124.444 138.613 124.311 138.203 124.311 137.744C124.311 137.008 124.609 136.421 125.207 135.984C125.804 135.547 126.583 135.259 127.543 135.12L129.927 134.784V134.32C129.927 133.808 129.777 133.408 129.479 133.12C129.191 132.832 128.716 132.688 128.055 132.688C127.575 132.688 127.185 132.784 126.887 132.976C126.599 133.168 126.396 133.413 126.279 133.712C126.215 133.872 126.103 133.952 125.943 133.952H125.223C125.105 133.952 125.015 133.92 124.951 133.856C124.897 133.781 124.871 133.696 124.871 133.6C124.871 133.44 124.929 133.243 125.047 133.008C125.175 132.773 125.367 132.544 125.623 132.32C125.879 132.096 126.204 131.909 126.599 131.76C127.004 131.6 127.495 131.52 128.071 131.52C128.711 131.52 129.249 131.605 129.687 131.776C130.124 131.936 130.465 132.155 130.711 132.432C130.967 132.709 131.148 133.024 131.255 133.376C131.372 133.728 131.431 134.085 131.431 134.448V139.632C131.431 139.739 131.393 139.829 131.319 139.904C131.255 139.968 131.169 140 131.063 140H130.327C130.209 140 130.119 139.968 130.055 139.904C129.991 139.829 129.959 139.739 129.959 139.632V138.944C129.82 139.136 129.633 139.328 129.399 139.52C129.164 139.701 128.871 139.856 128.519 139.984C128.167 140.101 127.735 140.16 127.223 140.16ZM127.559 138.96C127.996 138.96 128.396 138.869 128.759 138.688C129.121 138.496 129.404 138.203 129.607 137.808C129.82 137.413 129.927 136.917 129.927 136.32V135.872L128.071 136.144C127.313 136.251 126.743 136.432 126.359 136.688C125.975 136.933 125.783 137.248 125.783 137.632C125.783 137.931 125.868 138.181 126.039 138.384C126.22 138.576 126.444 138.72 126.711 138.816C126.988 138.912 127.271 138.96 127.559 138.96ZM133.235 140C133.139 140 133.059 139.979 132.995 139.936C132.942 139.893 132.915 139.829 132.915 139.744C132.915 139.691 132.942 139.621 132.995 139.536L135.731 135.648L133.315 132.128C133.294 132.096 133.278 132.064 133.267 132.032C133.256 131.989 133.251 131.957 133.251 131.936C133.251 131.851 133.278 131.787 133.331 131.744C133.395 131.701 133.475 131.68 133.571 131.68H134.403C134.51 131.68 134.595 131.701 134.659 131.744C134.723 131.787 134.782 131.845 134.835 131.92L136.995 135.12H138.211V132.048C138.211 131.941 138.243 131.856 138.307 131.792C138.382 131.717 138.472 131.68 138.579 131.68H139.315C139.432 131.68 139.523 131.717 139.587 131.792C139.651 131.856 139.683 131.941 139.683 132.048V135.12H140.851L143.043 131.92C143.086 131.845 143.139 131.787 143.203 131.744C143.278 131.701 143.363 131.68 143.459 131.68H144.307C144.403 131.68 144.478 131.701 144.531 131.744C144.595 131.787 144.627 131.851 144.627 131.936C144.627 131.957 144.616 131.989 144.595 132.032C144.584 132.064 144.568 132.096 144.547 132.128L142.147 135.648L144.883 139.536C144.926 139.6 144.947 139.669 144.947 139.744C144.947 139.829 144.92 139.893 144.867 139.936C144.814 139.979 144.734 140 144.627 140H143.667C143.56 140 143.47 139.979 143.395 139.936C143.331 139.893 143.278 139.835 143.235 139.76L140.899 136.4H139.683V139.632C139.683 139.739 139.651 139.829 139.587 139.904C139.523 139.968 139.432 140 139.315 140H138.579C138.472 140 138.382 139.968 138.307 139.904C138.243 139.829 138.211 139.739 138.211 139.632V136.4H136.995L134.627 139.76C134.595 139.835 134.542 139.893 134.467 139.936C134.403 139.979 134.318 140 134.211 140H133.235ZM148.817 140.16C148.283 140.16 147.798 140.053 147.361 139.84C146.923 139.627 146.571 139.339 146.305 138.976C146.038 138.613 145.905 138.203 145.905 137.744C145.905 137.008 146.203 136.421 146.801 135.984C147.398 135.547 148.177 135.259 149.137 135.12L151.521 134.784V134.32C151.521 133.808 151.371 133.408 151.073 133.12C150.785 132.832 150.31 132.688 149.649 132.688C149.169 132.688 148.779 132.784 148.481 132.976C148.193 133.168 147.99 133.413 147.873 133.712C147.809 133.872 147.697 133.952 147.537 133.952H146.817C146.699 133.952 146.609 133.92 146.545 133.856C146.491 133.781 146.465 133.696 146.465 133.6C146.465 133.44 146.523 133.243 146.641 133.008C146.769 132.773 146.961 132.544 147.217 132.32C147.473 132.096 147.798 131.909 148.193 131.76C148.598 131.6 149.089 131.52 149.665 131.52C150.305 131.52 150.843 131.605 151.281 131.776C151.718 131.936 152.059 132.155 152.305 132.432C152.561 132.709 152.742 133.024 152.849 133.376C152.966 133.728 153.025 134.085 153.025 134.448V139.632C153.025 139.739 152.987 139.829 152.913 139.904C152.849 139.968 152.763 140 152.657 140H151.921C151.803 140 151.713 139.968 151.649 139.904C151.585 139.829 151.553 139.739 151.553 139.632V138.944C151.414 139.136 151.227 139.328 150.993 139.52C150.758 139.701 150.465 139.856 150.113 139.984C149.761 140.101 149.329 140.16 148.817 140.16ZM149.153 138.96C149.59 138.96 149.99 138.869 150.353 138.688C150.715 138.496 150.998 138.203 151.201 137.808C151.414 137.413 151.521 136.917 151.521 136.32V135.872L149.665 136.144C148.907 136.251 148.337 136.432 147.953 136.688C147.569 136.933 147.377 137.248 147.377 137.632C147.377 137.931 147.462 138.181 147.633 138.384C147.814 138.576 148.038 138.72 148.305 138.816C148.582 138.912 148.865 138.96 149.153 138.96ZM155.581 140C155.474 140 155.383 139.968 155.309 139.904C155.245 139.829 155.213 139.739 155.213 139.632V138.48C155.213 138.373 155.245 138.288 155.309 138.224C155.383 138.149 155.474 138.112 155.581 138.112H156.733C156.839 138.112 156.925 138.149 156.989 138.224C157.063 138.288 157.101 138.373 157.101 138.48V139.632C157.101 139.739 157.063 139.829 156.989 139.904C156.925 139.968 156.839 140 156.733 140H155.581Z" fill="white"/>
<g clip-path="url(#clip0_11521_3496)">
<path d="M160 6H146L153 0L160 6Z" fill="black"/>
</g>
<defs>
<filter id="filter0_d_11521_3496" x="0" y="6" width="200" height="170" filterUnits="userSpaceOnUse" color-interpolation-filters="sRGB">
<feFlood flood-opacity="0" result="BackgroundImageFix"/>
<feColorMatrix in="SourceAlpha" type="matrix" values="0 0 0 0 0 0 0 0 0 0 0 0 0 0 0 0 0 0 127 0" result="hardAlpha"/>
<feOffset dy="10"/>
<feColorMatrix type="matrix" values="0 0 0 0 0 0 0 0 0 0 0 0 0 0 0 0 0 0 0.1 0"/>
<feBlend mode="normal" in2="BackgroundImageFix" result="effect1_dropShadow_11521_3496"/>
<feBlend mode="normal" in="SourceGraphic" in2="effect1_dropShadow_11521_3496" result="shape"/>
</filter>
<clipPath id="clip0_11521_3496">
<rect width="14" height="6" fill="white" transform="translate(146)"/>
</clipPath>
</defs>
</svg>
